<?xml version="1.0" encoding="utf-8"?>
<!-- Generator: Adobe Illustrator 17.1.0, SVG Export Plug-In . SVG Version: 6.00 Build 0)  -->
<!DOCTYPE svg PUBLIC "-//W3C//DTD SVG 1.1//EN" "http://www.w3.org/Graphics/SVG/1.1/DTD/svg11.dtd">
<svg version="1.1" id="Layer_1" xmlns="http://www.w3.org/2000/svg" xmlns:xlink="http://www.w3.org/1999/xlink" x="0px" y="0px"
	 viewBox="7.6 358.6 119.2 411.9" enable-background="new 7.6 358.6 119.2 411.9" xml:space="preserve">
<rect x="7.6" y="358.6" fill="#22215E" width="117.6" height="74.8"/>
<linearGradient id="SVGID_1_" gradientUnits="userSpaceOnUse" x1="20.851" y1="685.7834" x2="20.851" y2="662.2834" gradientTransform="matrix(3.1847 0 0 -3.1847 0 2879.6736)">
	<stop  offset="0" style="stop-color:#FFFFFF"/>
	<stop  offset="0.3204" style="stop-color:#FFF7E7"/>
	<stop  offset="0.7453" style="stop-color:#FEEDCE"/>
	<stop  offset="1" style="stop-color:#FEEAC4"/>
</linearGradient>
<rect x="7.6" y="695.6" fill="url(#SVGID_1_)" stroke="#FBB15F" stroke-width="0.5" width="117.6" height="74.8"/>
<g>
	<g>
		<g>
			<circle fill="#ED1C2E" cx="43.6" cy="396" r="33"/>
			<g>
				<path fill="#FCB131" d="M87.8,363c-8.5,0-16.3,3.2-22.1,8.5c-1.2,1.1-2.3,2.2-3.3,3.5H69c0.9,1.1,1.7,2.3,2.5,3.5H59.9
					c-0.7,1.1-1.3,2.3-1.9,3.5h15.5c0.5,1.1,1,2.3,1.4,3.5H56.6c-0.4,1.1-0.7,2.3-1,3.5h20.2c0.5,2.3,0.7,4.6,0.7,7
					c0,3.7-0.6,7.2-1.7,10.5H56.6c0.4,1.2,0.9,2.4,1.4,3.5h15.5c-0.6,1.2-1.2,2.4-1.9,3.5H59.9c0.8,1.2,1.6,2.4,2.5,3.5H69
					c-1,1.2-2.1,2.4-3.3,3.5c5.8,5.3,13.6,8.5,22.1,8.5c18.2,0,33-14.8,33-33C120.8,377.8,106,363,87.8,363z"/>
			</g>
		</g>
		<path fill="#FCB131" d="M116.4,414.4c0-0.6,0.5-1.1,1.1-1.1c0.6,0,1.1,0.5,1.1,1.1c0,0.6-0.5,1.1-1.1,1.1
			C116.9,415.4,116.4,415,116.4,414.4z M117.5,415.2c0.5,0,0.8-0.4,0.8-0.8c0-0.4-0.4-0.8-0.8-0.8c-0.4,0-0.8,0.4-0.8,0.8
			C116.7,414.8,117,415.2,117.5,415.2z M117.3,414.8h-0.2v-0.9h0.4c0.1,0,0.2,0,0.2,0c0.1,0.1,0.1,0.1,0.1,0.2
			c0,0.1-0.1,0.2-0.2,0.2l0.2,0.4h-0.2l-0.1-0.4h-0.2V414.8z M117.3,414.3h0.1c0,0,0.1,0,0.1,0c0,0,0.1-0.1,0.1-0.1
			c0,0,0-0.1-0.1-0.1c0,0-0.1,0-0.1,0h-0.1V414.3z"/>
	</g>
	<g>
		<g>
			<path fill="#003473" d="M35.9,399.6c-0.4,0-0.5-0.1-0.8-0.1c-2,0-3.1,0.7-3.1,2.1c0,0.8,0.5,1.4,1.3,1.4
				C34.8,403,35.8,401.6,35.9,399.6z M38.5,405.7c-0.5,0-3,0-3,0l0.1-1.4c-0.9,1.1-2.1,1.6-3.8,1.6c-1.9,0-3.3-1.5-3.3-3.7
				c0-3.3,2.3-5.2,6.3-5.2c0.4,0,0.9,0,1.5,0.1c0.1-0.4,0.1-0.6,0.1-0.9c0-0.9-0.6-1.2-2.3-1.2c-1.7,0-3.2,0.4-3.8,0.6
				c0-0.2,0.5-3.1,0.5-3.1c1.8-0.5,3-0.7,4.3-0.7c3.1,0,4.7,1.4,4.7,4c0,0.7-0.1,1.6-0.3,2.7C39.2,400.4,38.6,404.6,38.5,405.7z"/>
			<polygon fill="#003473" points="27.1,405.7 23.5,405.7 25.5,392.8 21,405.7 18.5,405.7 18.2,392.9 16.1,405.7 12.7,405.7 
				15.5,389 20.7,389 21,398.3 24.1,389 29.8,389 			"/>
			<path fill="#003473" d="M92.3,399.6c-0.4,0-0.5-0.1-0.8-0.1c-2,0-3.1,0.7-3.1,2.1c0,0.8,0.5,1.4,1.3,1.4
				C91.1,403,92.2,401.6,92.3,399.6z M94.9,405.7c-0.5,0-3,0-3,0l0.1-1.4c-0.9,1.1-2.1,1.6-3.7,1.6c-1.9,0-3.3-1.5-3.3-3.7
				c0-3.3,2.3-5.2,6.3-5.2c0.4,0,0.9,0,1.5,0.1c0.1-0.4,0.1-0.6,0.1-0.9c0-0.9-0.6-1.2-2.3-1.2c-1.8,0-3.2,0.4-3.8,0.6
				c0-0.2,0.5-3.1,0.5-3.1c1.8-0.5,3-0.7,4.3-0.7c3.1,0,4.7,1.4,4.7,4c0,0.7-0.1,1.6-0.3,2.7C95.6,400.4,94.9,404.6,94.9,405.7z"/>
			<path fill="#003473" d="M54.4,405.5c-1,0.3-1.7,0.4-2.6,0.4c-1.8,0-2.8-1.1-2.8-3c0-0.6,0.3-2.2,0.5-3.6C49.7,398,51,390,51,390
				h3.6l-0.4,2.1h2.1l-0.5,3.3h-2.2c-0.4,2.6-1,5.8-1,6.2c0,0.7,0.4,1,1.2,1c0.4,0,0.7,0,1-0.1L54.4,405.5z"/>
			<path fill="#003473" d="M65.3,405.4c-1.2,0.4-2.4,0.6-3.6,0.6c-4,0-6.1-2.1-6.1-6.1c0-4.6,2.6-8.1,6.2-8.1c2.9,0,4.8,1.9,4.8,4.9
				c0,1-0.1,2-0.4,3.3h-7.1c-0.2,2,1,2.8,3.1,2.8c1.3,0,2.4-0.3,3.7-0.9L65.3,405.4z M63.3,397.3c0-0.3,0.4-2.4-1.7-2.4
				c-1.1,0-1.9,0.9-2.3,2.4H63.3z"/>
			<path fill="#003473" d="M40.6,396.4c0,1.7,0.8,2.9,2.7,3.8c1.4,0.7,1.7,0.9,1.7,1.5c0,0.9-0.6,1.2-2.1,1.2
				c-1.1,0-2.1-0.2-3.2-0.5c0,0-0.5,3-0.5,3.1c0.8,0.2,1.5,0.3,3.7,0.4c3.8,0,5.5-1.4,5.5-4.5c0-1.9-0.7-3-2.5-3.8
				c-1.5-0.7-1.7-0.8-1.7-1.5c0-0.7,0.6-1.1,1.8-1.1c0.7,0,1.7,0.1,2.6,0.2l0.5-3.2c-0.9-0.1-2.3-0.3-3.1-0.3
				C42,391.8,40.6,393.9,40.6,396.4z"/>
			<path fill="#003473" d="M82.7,392.1c1,0,1.9,0.3,3.2,0.9l0.6-3.6c-0.5-0.2-2.4-1.4-3.9-1.4c-2.4,0-4.4,1.2-5.8,3.1
				c-2.1-0.7-2.9,0.7-4,2.1l-0.9,0.2c0.1-0.5,0.1-0.9,0.1-1.4h-3.3c-0.4,4.2-1.2,8.5-1.9,12.7l-0.2,0.9h3.6c0.6-3.9,0.9-6.4,1.1-8.1
				l1.3-0.7c0.2-0.8,0.8-1,2.1-1c-0.2,0.9-0.3,1.8-0.3,2.8c0,4.4,2.4,7.2,6.3,7.2c1,0,1.8-0.1,3.2-0.5l0.6-3.8
				c-1.2,0.6-2.2,0.9-3,0.9c-2.1,0-3.3-1.5-3.3-4.1C78.2,394.7,80,392.1,82.7,392.1z"/>
			<path fill="#003473" d="M113,389l-0.8,4.8c-1-1.3-2-2.2-3.4-2.2c-1.8,0-3.4,1.4-4.5,3.4c-1.5-0.3-3.1-0.8-3.1-0.8v0
				c0.1-1.1,0.2-1.8,0.2-2h-3.3c-0.4,4.2-1.2,8.5-1.9,12.7l-0.2,0.9h3.6c0.5-3.1,0.9-5.7,1.1-7.8c1.2-1.1,1.8-2.1,3.1-2
				c-0.6,1.3-0.9,2.8-0.9,4.4c0,3.4,1.7,5.6,4.3,5.6c1.3,0,2.3-0.5,3.3-1.5l-0.2,1.3h3.4l2.7-16.7C116.5,389,113,389,113,389z
				 M108.5,402.5c-1.2,0-1.8-0.9-1.8-2.7c0-2.7,1.2-4.6,2.8-4.6c1.2,0,1.9,0.9,1.9,2.7C111.4,400.6,110.2,402.5,108.5,402.5z"/>
		</g>
		<g>
			<polygon fill="#FFFFFF" points="28.1,404.7 24.5,404.7 26.6,391.8 22,404.7 19.6,404.7 19.3,391.9 17.1,404.7 13.8,404.7 
				16.5,388 21.7,388 21.8,398.3 25.3,388 30.9,388 			"/>
			<path fill="#FFFFFF" d="M36.9,398.6c-0.4,0-0.5-0.1-0.8-0.1c-2,0-3.1,0.7-3.1,2.1c0,0.8,0.5,1.4,1.3,1.4
				C35.8,402,36.9,400.6,36.9,398.6z M39.5,404.7c-0.5,0-3,0-3,0l0.1-1.4c-0.9,1.1-2.1,1.6-3.8,1.6c-1.9,0-3.3-1.5-3.3-3.7
				c0-3.3,2.3-5.2,6.3-5.2c0.4,0,0.9,0,1.5,0.1c0.1-0.5,0.1-0.6,0.1-0.9c0-0.9-0.6-1.2-2.3-1.2c-1.8,0-3.2,0.4-3.8,0.6
				c0-0.2,0.5-3.1,0.5-3.1c1.8-0.5,3-0.7,4.3-0.7c3.1,0,4.7,1.4,4.7,4c0,0.7-0.1,1.6-0.3,2.7C40.3,399.4,39.6,403.6,39.5,404.7z"/>
			<path fill="#FFFFFF" d="M87.5,388.4l-0.6,3.6c-1.3-0.6-2.2-0.9-3.2-0.9c-2.7,0-4.6,2.6-4.6,6.3c0,2.5,1.3,4.1,3.3,4.1
				c0.9,0,1.9-0.3,3-0.9l-0.6,3.8c-1.3,0.4-2.2,0.5-3.2,0.5c-3.9,0-6.3-2.8-6.3-7.2c0-6,3.3-10.2,8.1-10.2
				C85.1,387.5,87,388.2,87.5,388.4z"/>
			<path fill="#FFFFFF" d="M93.3,398.6c-0.4,0-0.5-0.1-0.8-0.1c-2,0-3.1,0.7-3.1,2.1c0,0.8,0.5,1.4,1.3,1.4
				C92.2,402,93.2,400.6,93.3,398.6z M95.9,404.7c-0.5,0-3,0-3,0l0.1-1.4c-0.9,1.1-2.1,1.6-3.8,1.6c-1.9,0-3.3-1.5-3.3-3.7
				c0-3.3,2.3-5.2,6.3-5.2c0.4,0,0.9,0,1.5,0.1c0.1-0.5,0.1-0.6,0.1-0.9c0-0.9-0.6-1.2-2.3-1.2c-1.8,0-3.2,0.4-3.8,0.6
				c0-0.2,0.5-3.1,0.5-3.1c1.8-0.5,3-0.7,4.3-0.7c3.1,0,4.7,1.4,4.7,4c0,0.7-0.1,1.6-0.3,2.7C96.6,399.4,96,403.6,95.9,404.7z"/>
			<path fill="#FFFFFF" d="M55.4,404.5c-1,0.3-1.7,0.4-2.6,0.4c-1.8,0-2.8-1-2.8-3c0-0.6,0.3-2.2,0.5-3.6c0.2-1.3,1.6-9.3,1.6-9.3
				h3.6l-0.4,2.1H57l-0.5,3.3h-1.8c-0.4,2.6-1,5.8-1,6.2c0,0.7,0.4,1,1.2,1c0.4,0,0.7,0,1-0.1L55.4,404.5z"/>
			<path fill="#FFFFFF" d="M66.3,404.4c-1.2,0.4-2.4,0.6-3.6,0.5c-4,0-6.1-2.1-6.1-6.1c0-4.6,2.6-8.1,6.2-8.1c2.9,0,4.8,1.9,4.8,4.9
				c0,1-0.1,2-0.4,3.3h-7.1c-0.2,2,1,2.8,3.1,2.8c1.3,0,2.4-0.3,3.7-0.9L66.3,404.4z M64.3,396.3c0-0.3,0.4-2.4-1.7-2.4
				c-1.1,0-1.9,0.9-2.3,2.4H64.3z"/>
			<path fill="#FFFFFF" d="M41.7,395.4c0,1.7,0.8,2.9,2.7,3.8c1.4,0.7,1.7,0.9,1.7,1.5c0,0.8-0.6,1.2-2.1,1.2
				c-1.1,0-2.1-0.2-3.2-0.5c0,0-0.5,3-0.5,3.1c0.8,0.2,1.5,0.3,3.7,0.4c3.8,0,5.5-1.4,5.5-4.5c0-1.9-0.7-3-2.5-3.8
				c-1.5-0.7-1.7-0.8-1.7-1.5c0-0.7,0.6-1.1,1.8-1.1c0.7,0,1.7,0.1,2.6,0.2l0.5-3.1c-0.9-0.1-2.3-0.3-3.1-0.3
				C43,390.8,41.6,392.9,41.7,395.4z"/>
			<path fill="#FFFFFF" d="M114.8,404.7h-3.4l0.2-1.3c-1,1-2,1.5-3.3,1.5c-2.6,0-4.3-2.2-4.3-5.6c0-4.5,2.7-8.3,5.8-8.3
				c1.4,0,2.4,0.6,3.4,1.9l0.8-4.8h3.5L114.8,404.7z M109.5,401.5c1.7,0,2.8-1.9,2.8-4.6c0-1.7-0.7-2.7-1.9-2.7
				c-1.6,0-2.8,1.9-2.8,4.6C107.7,400.6,108.3,401.5,109.5,401.5z"/>
			<path fill="#FFFFFF" d="M99.1,391.1c-0.4,4.2-1.2,8.5-1.9,12.7l-0.2,0.9h3.6c1.3-8.3,1.6-9.9,3.6-9.7c0.3-1.7,0.9-3.2,1.4-3.9
				c-1.5-0.3-2.3,0.5-3.4,2.1c0.1-0.7,0.2-1.4,0.2-2.1C102.4,391.1,99.1,391.1,99.1,391.1z"/>
			<path fill="#FFFFFF" d="M69.7,391.1c-0.5,4.2-1.2,8.5-1.9,12.7l-0.2,0.9h3.6c1.3-8.3,1.6-9.9,3.6-9.7c0.3-1.7,0.9-3.2,1.4-3.9
				c-1.5-0.3-2.3,0.5-3.4,2.1c0.1-0.7,0.2-1.4,0.2-2.1C72.9,391.1,69.7,391.1,69.7,391.1z"/>
			<g>
				<path fill="#FFFFFF" d="M116.4,403.6c0-0.6,0.5-1.1,1.1-1.1c0.6,0,1.1,0.5,1.1,1.1s-0.5,1.1-1.1,1.1
					C116.9,404.7,116.4,404.2,116.4,403.6z M117.5,404.4c0.5,0,0.8-0.4,0.8-0.8s-0.4-0.8-0.8-0.8c-0.4,0-0.8,0.4-0.8,0.8
					C116.7,404.1,117,404.4,117.5,404.4z M117.3,404.1h-0.2v-0.9h0.4c0.1,0,0.2,0,0.2,0c0.1,0,0.1,0.1,0.1,0.2
					c0,0.1-0.1,0.2-0.2,0.2l0.2,0.4h-0.2l-0.1-0.4h-0.2V404.1z M117.3,403.5h0.1c0,0,0.1,0,0.1,0c0,0,0.1-0.1,0.1-0.1
					c0,0,0-0.1-0.1-0.1c0,0-0.1,0-0.1,0h-0.1L117.3,403.5L117.3,403.5z"/>
			</g>
		</g>
	</g>
</g>
<path fill="#FFFFFF" d="M7.6,491.9L7.6,491.9C7.6,491.8,7.6,491.8,7.6,491.9z"/>
<g>
	<rect x="7.6" y="439.8" fill="#0058A0" stroke="#0058A0" stroke-width="0.5144" width="119.2" height="74.4"/>
	<path fill="#FFFFFF" d="M13.2,491.8c0,0.6,0.5,5.3,5.9,5.3c33.5,0,74.2,0,107.7,0l0-57.3H13.2C13.2,452.2,13.2,481.9,13.2,491.8
		L13.2,491.8z"/>
	<g>
		<path fill="#0058A0" d="M45.6,451.8l-8.3,22.3l-0.9-4.5c-2-5.4-5.9-10.4-11.7-13.7l7.6,28.6h9l13.3-32.7H45.6"/>
		<polyline fill="#0058A0" points="52.7,484.5 58,451.7 66.5,451.7 61.2,484.5 52.7,484.5 		"/>
		<path fill="#0058A0" d="M91.8,452.5c-1.7-0.7-4.3-1.4-7.6-1.4c-8.4,0-14.3,4.4-14.3,10.8c-0.1,4.7,4.2,7.3,7.4,8.9
			c3.3,1.6,4.4,2.6,4.4,4.1c0,2.2-2.6,3.2-5.1,3.2c-3.4,0-5.2-0.5-8-1.7l-1.1-0.5l-1.2,7.3c2,0.9,5.6,1.7,9.4,1.8
			c8.9,0,14.7-4.4,14.7-11.2c0-3.7-2.2-6.6-7.1-8.9c-2.9-1.5-4.8-2.5-4.7-4.1c0-1.4,1.5-2.8,4.9-2.8c2.8-0.1,4.8,0.6,6.3,1.3
			l0.8,0.4L91.8,452.5"/>
		<path fill="#0058A0" d="M113.5,451.8H107c-2,0-3.5,0.6-4.4,2.7l-12.6,30h8.9c0,0,1.5-4,1.8-4.9c1,0,9.6,0,10.8,0
			c0.3,1.1,1,4.9,1,4.9h7.9L113.5,451.8 M103.1,472.9c0.7-1.9,3.4-9.2,3.4-9.2c-0.1,0.1,0.7-1.9,1.1-3.1l0.6,2.8c0,0,1.6,7.8,2,9.5
			C108.8,472.9,104.8,472.9,103.1,472.9z"/>
		<path fill="#FAA61A" d="M29.6,451.7H16l-0.1,0.6c10.6,2.7,17.6,9.4,20.5,17.3l-3-15.1C33,452.4,31.5,451.8,29.6,451.7z"/>
	</g>
</g>
<g>
	
		<radialGradient id="SVGID_2_" cx="-142.3944" cy="-183.8605" r="22.683" gradientTransform="matrix(3.1847 0 0 3.1847 474.691 1122.4119)" gradientUnits="userSpaceOnUse">
		<stop  offset="0" style="stop-color:#9FD4F3"/>
		<stop  offset="7.110000e-02" style="stop-color:#99D2F2"/>
		<stop  offset="0.1575" style="stop-color:#8BCDF1"/>
		<stop  offset="0.2516" style="stop-color:#71C6EF"/>
		<stop  offset="0.3514" style="stop-color:#51BCEA"/>
		<stop  offset="0.4546" style="stop-color:#21ADE4"/>
		<stop  offset="0.5" style="stop-color:#1AA6DF"/>
		<stop  offset="1" style="stop-color:#3078BC"/>
	</radialGradient>
	<path fill="url(#SVGID_2_)" d="M84.6,523.4h-77v77.3h77v-25.5c0.3-0.4,0.5-1,0.5-1.7c0-0.8-0.1-1.3-0.5-1.7"/>
	<path fill="#FFFFFF" d="M14.6,556.8l-1.5-3.6l-1.5,3.6 M47.2,555.4c-0.3,0.2-0.6,0.2-1.1,0.2h-2.6v-2h2.7c0.4,0,0.8,0,1,0.2
		c0.3,0.1,0.5,0.4,0.5,0.8C47.6,554.9,47.5,555.2,47.2,555.4z M65.9,556.8l-1.5-3.6l-1.5,3.6H65.9z M31,560.7h-2.2l0-7.1l-3.1,7.1
		h-1.9l-3.1-7.1v7.1h-4.4l-0.8-2h-4.5l-0.8,2H7.6l3.9-9.1h3.2l3.7,8.6v-8.6h3.5l2.8,6.1l2.6-6.1H31V560.7L31,560.7z M39.8,560.7
		h-7.2v-9.1h7.2v1.9h-5.1v1.6h4.9v1.9h-4.9v1.8h5.1V560.7z M50,554.1c0,1.4-1,2.2-1.5,2.4c0.5,0.2,0.9,0.5,1.1,0.8
		c0.3,0.4,0.4,0.9,0.4,1.7v1.8h-2.2l0-1.1c0-0.5,0.1-1.3-0.3-1.8c-0.3-0.3-0.8-0.4-1.6-0.4h-2.3v3.3h-2.2v-9.1h5
		c1.1,0,1.9,0,2.6,0.4C49.6,552.5,50,553.1,50,554.1z M53.5,560.7h-2.2v-9.1h2.2V560.7z M79.1,560.7H76l-4.1-6.8v6.8h-4.4l-0.8-2
		h-4.5l-0.8,2h-2.5c-1.1,0-2.4-0.2-3.1-1c-0.8-0.8-1.1-1.8-1.1-3.5c0-1.3,0.2-2.6,1.2-3.5c0.7-0.7,1.8-1.1,3.3-1.1h2.1v1.9h-2
		c-0.8,0-1.2,0.1-1.7,0.5c-0.4,0.4-0.6,1.1-0.6,2.1c0,1,0.2,1.7,0.6,2.1c0.3,0.4,0.9,0.5,1.5,0.5h1l3.1-7.1h3.2l3.7,8.6v-8.6h3.3
		l3.8,6.3v-6.3h2.2L79.1,560.7L79.1,560.7z M7.6,562.5h3.7l0.8-2H14l0.8,2h7.3v-1.5l0.7,1.5h3.8l0.7-1.6v1.6h18.1l0-3.3h0.4
		c0.2,0,0.3,0,0.3,0.4v2.9h9.3v-0.8c0.8,0.4,1.9,0.8,3.5,0.8h3.9l0.8-2h1.9l0.8,2h7.6v-1.9l1.1,1.9H81v-12.6h-6v1.5l-0.8-1.5H68v1.5
		l-0.8-1.5h-8.3c-1.4,0-2.6,0.2-3.6,0.7v-0.7h-5.7v0.7c-0.6-0.6-1.5-0.7-2.4-0.7h-21l-1.4,3.3l-1.4-3.3h-6.6v1.5l-0.7-1.5h-5.6
		l-2.6,6L7.6,562.5L7.6,562.5z"/>
	<path fill="#FFFFFF" d="M84.6,569.2h-3.9c-0.4,0-0.7,0-0.9,0.2c-0.2,0.1-0.3,0.4-0.3,0.7c0,0.3,0.2,0.6,0.5,0.7
		c0.2,0.1,0.5,0.1,0.8,0.1l1.2,0c1.2,0,2,0.2,2.5,0.7c0.1,0.1,0.1,0.1,0.2,0.2 M84.6,575.1c-0.5,0.8-1.5,1.2-2.9,1.2h-4.2v-1.9h4.2
		c0.4,0,0.7-0.1,0.9-0.2c0.1-0.1,0.3-0.3,0.3-0.6c0-0.3-0.1-0.5-0.3-0.6c-0.2-0.1-0.4-0.2-0.8-0.2c-2-0.1-4.6,0.1-4.6-2.8
		c0-1.3,0.8-2.7,3.1-2.7h4.3v-1.8h-4c-1.2,0-2.1,0.3-2.7,0.7v-0.7H72c-0.9,0-2.1,0.2-2.6,0.7v-0.7H58.8v0.7
		c-0.8-0.6-2.3-0.7-2.9-0.7h-7v0.7c-0.7-0.6-2.1-0.7-3.1-0.7h-7.8l-1.8,1.9l-1.7-1.9H22.9v12.6h11.4l1.8-2l1.7,2l7.1,0v-3h0.7
		c0.9,0,2,0,3-0.4v3.4h5.8v-3.3h0.3c0.4,0,0.4,0,0.4,0.4v2.9h17.7c1.1,0,2.3-0.3,2.9-0.8v0.8h5.6c1.2,0,2.3-0.2,3.2-0.6L84.6,575.1
		L84.6,575.1z M76,571.5c0.4,0.4,0.6,1,0.6,1.9c0,1.9-1.2,2.9-3.4,2.9H69v-1.9h4.2c0.4,0,0.7-0.1,0.9-0.2c0.1-0.1,0.3-0.3,0.3-0.6
		c0-0.3-0.1-0.5-0.3-0.6c-0.2-0.1-0.4-0.2-0.8-0.2c-2-0.1-4.6,0.1-4.6-2.8c0-1.3,0.8-2.7,3.1-2.7h4.3v1.9h-4c-0.4,0-0.7,0-0.9,0.2
		c-0.2,0.1-0.3,0.4-0.3,0.7c0,0.3,0.2,0.6,0.5,0.7c0.2,0.1,0.5,0.1,0.8,0.1l1.2,0C74.7,570.8,75.5,571,76,571.5z M56.4,571
		c-0.3,0.2-0.6,0.2-1.1,0.2h-2.6v-2h2.7c0.4,0,0.8,0,1,0.2c0.3,0.1,0.4,0.4,0.4,0.8S56.7,570.8,56.4,571z M57.8,572.1
		c0.5,0.2,0.9,0.5,1.1,0.8c0.3,0.4,0.4,0.9,0.4,1.7v1.8H57v-1.1c0-0.5,0.1-1.4-0.3-1.8c-0.3-0.3-0.8-0.4-1.6-0.4h-2.3v3.3h-2.2v-9.1
		h5c1.1,0,1.9,0,2.6,0.4c0.7,0.4,1.1,1,1.1,2C59.3,571.1,58.3,571.9,57.8,572.1z M60.5,567.2h7.2v1.9h-5.1v1.6h4.9v1.8h-4.9v1.8
		l5.1,0v1.9h-7.2V567.2z M45.9,571.4h-2.8v-2.3h2.8c0.8,0,1.3,0.3,1.3,1.1C47.2,571,46.7,571.4,45.9,571.4z M40.9,575.5l-3.3-3.7
		l3.3-3.6V575.5z M32.4,574.4H27v-1.8h4.8v-1.8H27v-1.6h5.4l2.4,2.6L32.4,574.4z M49.6,570.2c0,2.5-1.9,3-3.8,3h-2.7v3h-4.2l-2.7-3
		l-2.8,3h-8.6v-9.1h8.7l2.7,3l2.7-3h6.9C47.6,567.2,49.6,567.7,49.6,570.2z"/>
</g>
<g>
	<path fill="#F58220" d="M125.6,652.7c0,0-32.2,22.7-91.3,32.9h91.3V652.7z"/>
	<path fill="#231F20" d="M126,610.5l-118.4,0l0,76h118.8v-76H126z M125.6,611.4c0,0.8,0,73.4,0,74.3c-0.9,0-116.3,0-117.1,0
		c0-0.8,0-73.4,0-74.3C9.3,611.4,124.7,611.4,125.6,611.4z"/>
	<path fill="#E83530" d="M114.3,676.3"/>
	
		<radialGradient id="SVGID_3_" cx="15.5155" cy="1189.8544" r="2.7202" gradientTransform="matrix(3.1847 0 0 -3.1847 20.4332 4427.7168)" gradientUnits="userSpaceOnUse">
		<stop  offset="5.600000e-03" style="stop-color:#FFEFE1"/>
		<stop  offset="0.1092" style="stop-color:#FFEAD8"/>
		<stop  offset="0.2782" style="stop-color:#FDDCC0"/>
		<stop  offset="0.4917" style="stop-color:#FBC698"/>
		<stop  offset="0.7412" style="stop-color:#F8A761"/>
		<stop  offset="1" style="stop-color:#F58220"/>
	</radialGradient>
	<path fill="url(#SVGID_3_)" d="M69.9,629.8c-4.8,0-8.8,3.8-8.8,8.5c0,5,3.8,8.7,8.8,8.7c4.9,0,8.7-3.8,8.7-8.6
		C78.6,633.5,74.8,629.8,69.9,629.8z"/>
	<path fill="#001722" d="M20.1,630.1h-4.7v16.4H20c2.5,0,4.3-0.6,5.9-1.9c1.9-1.6,3-3.9,3-6.3C28.9,633.5,25.3,630.1,20.1,630.1z
		 M23.8,642.5c-1,0.9-2.3,1.3-4.4,1.3h-0.9v-10.9h0.9c2.1,0,3.3,0.4,4.4,1.3c1.1,1,1.8,2.5,1.8,4.1
		C25.6,639.9,24.9,641.5,23.8,642.5z"/>
	<rect x="30.4" y="630.1" fill="#001722" width="3.2" height="16.4"/>
	<path fill="#001722" d="M41.4,636.4c-1.9-0.7-2.5-1.2-2.5-2.1c0-1,1-1.8,2.4-1.8c1,0,1.8,0.4,2.6,1.3l1.7-2.2
		c-1.4-1.2-3-1.8-4.8-1.8c-2.9,0-5.1,2-5.1,4.7c0,2.3,1,3.4,4,4.5c1.3,0.4,1.9,0.7,2.2,0.9c0.6,0.4,1,1,1,1.7c0,1.3-1.1,2.3-2.5,2.3
		c-1.5,0-2.8-0.8-3.5-2.2l-2.1,2c1.5,2.2,3.3,3.1,5.7,3.1c3.3,0,5.7-2.2,5.7-5.4C46.2,638.9,45.1,637.7,41.4,636.4z"/>
	<path fill="#001722" d="M47.2,638.3c0,4.8,3.8,8.6,8.7,8.6c1.4,0,2.6-0.3,4-1v-3.8c-1.3,1.3-2.4,1.8-3.9,1.8
		c-3.2,0-5.5-2.3-5.5-5.7c0-3.2,2.4-5.6,5.4-5.6c1.5,0,2.7,0.5,4,1.9v-3.8c-1.4-0.7-2.6-1-3.9-1C51.1,629.7,47.2,633.5,47.2,638.3z"
		/>
	<polygon fill="#001722" points="85.9,641.1 81.5,630.1 78,630.1 85,647 86.7,647 93.8,630.1 90.3,630.1 	"/>
	<polygon fill="#001722" points="95.2,646.5 104.3,646.5 104.3,643.8 98.4,643.8 98.4,639.3 104.1,639.3 104.1,636.5 98.4,636.5 
		98.4,632.9 104.3,632.9 104.3,630.1 95.2,630.1 	"/>
	<path fill="#001722" d="M117,635c0-3.1-2.1-4.9-5.8-4.9h-4.8v16.4h3.2v-6.6h0.4l4.4,6.6h3.9l-5.2-6.9
		C115.7,639.1,117,637.5,117,635z M110.6,637.7h-0.9v-5h1c2,0,3.1,0.8,3.1,2.4C113.7,636.8,112.7,637.7,110.6,637.7z"/>
	<path fill="#231F20" d="M119.3,631.3c0-0.3-0.2-0.4-0.5-0.4h-0.5v1.4h0.3v-0.6l0.4,0.6h0.4l-0.5-0.6
		C119.2,631.7,119.3,631.5,119.3,631.3z M118.7,631.5L118.7,631.5l-0.1-0.4h0.1c0.2,0,0.3,0.1,0.3,0.2
		C119,631.5,118.9,631.5,118.7,631.5z"/>
	<path fill="#231F20" d="M118.8,630.3c-0.7,0-1.3,0.6-1.3,1.3c0,0.7,0.6,1.3,1.3,1.3c0.7,0,1.3-0.6,1.3-1.3
		C120.1,630.9,119.5,630.3,118.8,630.3z M118.8,632.6c-0.6,0-1-0.5-1-1c0-0.6,0.4-1,1-1c0.5,0,1,0.5,1,1
		C119.8,632.2,119.4,632.6,118.8,632.6z"/>
	<path fill="#231F20" d="M44.1,650.9l4.3,4.5v-4.3H49v5.7l-4.3-4.5v4.2h-0.6V650.9z"/>
	<path fill="#231F20" d="M44,650.9v5.8h0.7c0,0,0-3.9,0-4.2c0.2,0.2,4.3,4.5,4.3,4.5V651h-0.7c0,0,0,3.9,0,4.2
		c-0.2-0.2-4.3-4.5-4.3-4.5L44,650.9L44,650.9z M44.2,651c0.2,0.2,4.3,4.5,4.3,4.5s0-4.2,0-4.4c0.1,0,0.4,0,0.5,0c0,0.1,0,5.3,0,5.6
		c-0.2-0.2-4.3-4.5-4.3-4.5s0,4.2,0,4.3c-0.1,0-0.4,0-0.5,0C44.2,656.4,44.2,651.3,44.2,651z"/>
	<path fill="#231F20" d="M52,651.1h2.9v0.6h-2.2v1.6h2.2v0.6h-2.2v2.2h2.2v0.6H52V651.1z"/>
	<path fill="#231F20" d="M54.8,651h-2.9v5.6h3V656c0,0-2.1,0-2.2,0c0-0.1,0-1.9,0-2c0.1,0,2.2,0,2.2,0v-0.7c0,0-2.1,0-2.2,0
		c0-0.1,0-1.4,0-1.5c0.1,0,2.2,0,2.2,0L54.8,651L54.8,651z M54.8,651.2c0,0.1,0,0.4,0,0.5c-0.1,0-2.2,0-2.2,0v1.8c0,0,2.1,0,2.2,0
		c0,0.1,0,0.4,0,0.5c-0.1,0-2.2,0-2.2,0v2.3c0,0,2.1,0,2.2,0c0,0.1,0,0.4,0,0.5c-0.1,0-2.6,0-2.7,0c0-0.1,0-5.3,0-5.4
		C52.1,651.2,54.7,651.2,54.8,651.2z"/>
	<path fill="#231F20" d="M59.2,656.6h-0.6v-4.9h-1.3v-0.6h3.3v0.6h-1.3V656.6z"/>
	<path fill="#231F20" d="M60.5,651h-3.3v0.7c0,0,1.2,0,1.3,0c0,0.1,0,4.9,0,4.9h0.7c0,0,0-4.8,0-4.9c0.1,0,1.3,0,1.3,0L60.5,651
		L60.5,651z M60.4,651.2c0,0.1,0,0.4,0,0.5c-0.1,0-1.3,0-1.3,0s0,4.8,0,4.9c-0.1,0-0.4,0-0.5,0c0-0.1,0-4.9,0-4.9s-1.2,0-1.3,0
		c0-0.1,0-0.4,0-0.5C57.4,651.2,60.3,651.2,60.4,651.2z"/>
	<path fill="#231F20" d="M64.6,655.2l1.8-4.4l1.8,4.4l1.4-4.1h0.7l-2.1,5.8l-1.8-4.4l-1.8,4.4l-2.1-5.8h0.7L64.6,655.2z"/>
	<path fill="#231F20" d="M66.3,650.8c0,0-1.6,4-1.7,4.3c-0.1-0.3-1.4-4-1.4-4h-0.8l2.2,6c0,0,1.7-4.2,1.8-4.4
		c0.1,0.3,1.8,4.4,1.8,4.4l2.2-6h-0.8c0,0-1.3,3.8-1.4,4c-0.1-0.3-1.8-4.4-1.8-4.4L66.3,650.8z M64.7,655.2c0,0,1.6-4,1.7-4.3
		c0.1,0.2,1.8,4.4,1.8,4.4s1.5-4.2,1.5-4.2c0.1,0,0.4,0,0.5,0c-0.1,0.1-1.9,5.3-2,5.6c-0.1-0.3-1.8-4.4-1.8-4.4s-1.7,4.2-1.8,4.4
		c-0.1-0.3-2-5.4-2-5.6c0.1,0,0.5,0,0.5,0c0,0.1,1.5,4.2,1.5,4.2L64.7,655.2z"/>
	<path fill="#231F20" d="M78.2,653.9c0,1.6-1.3,2.8-2.9,2.8c-1.6,0-2.9-1.3-2.9-2.8c0-1.6,1.3-2.9,2.9-2.9
		C76.9,651,78.2,652.3,78.2,653.9z M73.1,653.9c0,1.2,1,2.3,2.3,2.3c1.2,0,2.3-1,2.3-2.3c0-1.2-1-2.3-2.3-2.3
		C74.1,651.6,73.1,652.6,73.1,653.9z"/>
	<path fill="#231F20" d="M72.4,653.9c0,1.6,1.3,2.9,2.9,2.9c1.6,0,2.9-1.3,2.9-2.9c0-1.6-1.3-2.9-2.9-2.9
		C73.7,651,72.4,652.3,72.4,653.9z M72.5,653.9c0-1.5,1.3-2.8,2.8-2.8c1.5,0,2.8,1.3,2.8,2.8c0,1.5-1.3,2.8-2.8,2.8
		C73.8,656.6,72.5,655.4,72.5,653.9z"/>
	<path fill="#231F20" d="M73,653.9c0,1.3,1,2.3,2.3,2.3c1.3,0,2.3-1,2.3-2.3c0-1.3-1-2.3-2.3-2.3C74.1,651.5,73,652.6,73,653.9z
		 M73.1,653.9c0-1.2,1-2.2,2.2-2.2c1.2,0,2.2,1,2.2,2.2c0,1.2-1,2.2-2.2,2.2C74.1,656.1,73.1,655.1,73.1,653.9z"/>
	<path fill="#231F20" d="M81.5,656.6h-0.6v-5.5h0.8c1,0,2,0.3,2,1.5c0,0.8-0.5,1.4-1.4,1.5l1.7,2.5h-0.8l-1.7-2.4h-0.2L81.5,656.6
		L81.5,656.6z M81.5,653.6h0.2c0.7,0,1.4-0.1,1.4-1c0-0.9-0.7-1-1.4-1h-0.2L81.5,653.6L81.5,653.6z"/>
	<path fill="#231F20" d="M80.9,651L80.9,651l-0.1,5.6h0.7c0,0,0-2.3,0-2.4c0,0,0.1,0,0.1,0l0,0c0,0,1.6,2.4,1.6,2.4l0.8,0h0.1
		c0,0-1.7-2.4-1.8-2.5c0.8-0.1,1.3-0.7,1.3-1.6c0-1.1-0.7-1.6-2.1-1.6C81.7,651,80.9,651,80.9,651z M81.7,651.2c1.3,0,2,0.5,2,1.5
		c0,0.8-0.5,1.4-1.3,1.5l-0.1,0c0,0,1.6,2.3,1.7,2.5c-0.2,0-0.6,0-0.6,0h0c0,0-1.6-2.4-1.6-2.4l-0.2,0h-0.1c0,0,0,2.3,0,2.4
		c-0.1,0-0.4,0-0.5,0c0-0.1,0-5.3,0-5.4C81,651.2,81.7,651.2,81.7,651.2z"/>
	<path fill="#231F20" d="M81.5,651.6L81.5,651.6l-0.1,2.1h0.2c0.7,0,1.4-0.1,1.4-1c0-1-0.8-1.1-1.5-1.1H81.5z M81.7,651.7
		c0.7,0,1.3,0.1,1.3,0.9c0,0.8-0.7,0.9-1.3,0.9c0,0-0.1,0-0.1,0c0-0.1,0-1.8,0-1.9C81.6,651.7,81.7,651.7,81.7,651.7z"/>
	<path fill="#231F20" d="M89.6,651.1h0.8l-2.6,2.6l2.7,2.9h-0.8l-2.3-2.5l-0.1,0.1v2.4h-0.6v-5.5h0.6v2.4L89.6,651.1z"/>
	<path fill="#231F20" d="M90.4,651h-0.8c0,0-2.1,2.1-2.3,2.3c0-0.2,0-2.3,0-2.3h-0.7v5.6h0.7c0,0,0-2.4,0-2.4c0,0,0.1,0,0.1-0.1
		c0.1,0.1,2.2,2.5,2.2,2.5l0.9,0h0.1c0,0-2.6-2.9-2.7-3c0.1-0.1,2.6-2.6,2.6-2.6H90.4z M90.3,651.2c-0.2,0.2-2.5,2.5-2.5,2.5
		s2.5,2.7,2.6,2.9c-0.2,0-0.7,0-0.7,0l0,0c0,0-2.2-2.5-2.2-2.5l0,0l-0.2,0.2c0,0,0,2.2,0,2.4c-0.1,0-0.4,0-0.5,0c0-0.1,0-5.3,0-5.4
		c0.1,0,0.4,0,0.5,0c0,0.1,0,2.4,0,2.4s2.4-2.4,2.4-2.4C89.7,651.2,90.1,651.2,90.3,651.2z"/>
</g>
<g>
	<path fill="#1C3665" d="M112.1,723.5v-3.2h-1.2v-0.4h2.8v0.4h-1.2v3.2L112.1,723.5L112.1,723.5z"/>
	<path fill="#1C3665" d="M114.2,723.5v-3.6h0.7l0.9,2.5c0.1,0.2,0.1,0.4,0.2,0.5c0-0.1,0.1-0.3,0.2-0.6l0.9-2.5h0.6v3.6h-0.5v-3
		l-1.1,3h-0.4l-1-3v3C114.7,723.5,114.2,723.5,114.2,723.5z"/>
</g>
<g>
	<path fill="#34679A" d="M79.5,732.5c-0.9,0.6-2.1,1-3.7,1H75c-0.6,0-1-0.5-0.9-1.1l0.9-3.8c0.1-0.6,0.8-1.1,1.4-1.1h1
		c1.1,0,2,0.2,2.6,0.6c0.6,0.4,0.9,1,0.9,1.8C80.8,730.9,80.3,731.8,79.5,732.5z M85.9,726.6c-0.4-0.7-0.9-1.3-1.6-1.7
		c-0.7-0.5-1.6-0.8-2.6-0.9c-1-0.2-2.2-0.3-3.5-0.3H72c-0.6,0-1.3,0.5-1.4,1.1l-4.2,18.1c-0.1,0.6,0.3,1.1,0.9,1.1h3
		c0.6,0,1.3-0.5,1.4-1.1l1-4.4c0.1-0.6,0.8-1.1,1.4-1.1h0.9c3.6,0,6.4-0.7,8.5-2.2c2-1.5,3-3.4,3-5.9
		C86.4,728.2,86.2,727.3,85.9,726.6"/>
	<path fill="#34679A" d="M94.9,740c-0.5,0.3-1,0.6-1.6,0.9c-0.5,0.2-1.1,0.3-1.5,0.3c-0.7,0-1.3-0.1-1.7-0.3
		c-0.4-0.2-0.6-0.6-0.6-1.1c0-0.6,0.1-1.1,0.4-1.4c0.3-0.4,0.7-0.6,1.3-0.8c0.5-0.2,1.2-0.3,1.9-0.4c0.8-0.1,1.6-0.2,2.5-0.3
		L94.9,740z M94,744h3.7c0.6,0,1.3-0.5,1.4-1.1l2.2-9.3c0.1-0.2,0.1-0.5,0.1-0.8c0-0.3,0-0.5,0-0.7c0-1.3-0.6-2.3-1.7-2.9
		c-1.1-0.6-2.9-0.9-5.3-0.9c-1.2,0-2.4,0.1-3.6,0.3c-1.2,0.2-2.1,0.3-2.7,0.5l-0.5,2.5c-0.1,0.6,0,1.1,0.2,1.1
		c0.5-0.2,1.2-0.4,2.2-0.7c1-0.3,1.9-0.4,2.7-0.4c1.2,0,2.1,0.1,2.7,0.4c0.6,0.3,0.9,0.7,0.9,1.3c0,0.2,0,0.3,0,0.4
		c0,0.1-0.1,0.2-0.1,0.3c-1.7,0.1-3.3,0.3-4.7,0.5c-1.5,0.2-2.7,0.6-3.8,1c-1.1,0.5-2,1.2-2.5,2c-0.6,0.8-0.9,1.9-0.9,3.1
		c0,1.1,0.4,2.1,1.2,2.8c0.8,0.7,1.8,1.1,3.1,1.1c0.8,0,1.4-0.1,1.9-0.2c0.4-0.1,0.9-0.3,1.4-0.5c0.4-0.2,0.8-0.4,1.2-0.7
		c0.4-0.3,0.8-0.5,1.1-0.7L94,744"/>
	<path fill="#34679A" d="M110.9,723.8l-4.2,19.1c-0.1,0.6-0.8,1.1-1.4,1.1h-2.6c-0.6,0-1-0.5-0.9-1.1l4-18c0.1-0.6,0.8-1.1,1.4-1.1
		L110.9,723.8"/>
	<path fill="#1C3665" d="M27.2,732.5c-0.9,0.7-2.1,1-3.7,1h-0.7c-0.6,0-1-0.5-0.9-1.1l0.9-3.8c0.1-0.6,0.8-1.1,1.4-1.1h1
		c1.1,0,2,0.2,2.6,0.6c0.6,0.4,0.9,1,0.9,1.8C28.5,731,28.1,731.9,27.2,732.5z M33.6,726.6c-0.4-0.7-0.9-1.3-1.6-1.7
		c-0.7-0.4-1.6-0.8-2.6-0.9c-1-0.2-2.2-0.3-3.5-0.3h-6.2c-0.6,0-1.3,0.5-1.4,1.1l-4.2,18.1c-0.1,0.6,0.3,1.1,0.9,1.1h3
		c0.6,0,1.3-0.5,1.4-1.1l1-4.4c0.1-0.6,0.8-1.1,1.4-1.1h0.9c3.6,0,6.4-0.7,8.5-2.2c2-1.5,3-3.4,3-5.9
		C34.1,728.2,34,727.3,33.6,726.6"/>
	<path fill="#1C3665" d="M42.6,740c-0.5,0.3-1,0.6-1.5,0.9c-0.6,0.2-1.1,0.3-1.5,0.3c-0.7,0-1.3-0.1-1.7-0.3
		c-0.4-0.2-0.6-0.6-0.6-1.1c0-0.6,0.1-1.1,0.4-1.4c0.3-0.4,0.7-0.6,1.3-0.8c0.5-0.2,1.2-0.3,1.9-0.4c0.8-0.1,1.6-0.2,2.5-0.3
		L42.6,740z M41.7,744h3.7c0.6,0,1.3-0.5,1.4-1.1l2.2-9.3c0.1-0.2,0.1-0.5,0.1-0.8c0-0.3,0.1-0.5,0.1-0.7c0-1.3-0.6-2.3-1.7-2.9
		c-1.1-0.6-2.9-0.9-5.3-0.9c-1.2,0-2.4,0.1-3.6,0.3c-1.2,0.2-2.1,0.4-2.7,0.5l-0.5,2.5c-0.1,0.6,0,1.1,0.2,1.1
		c0.5-0.2,1.2-0.4,2.2-0.7c1-0.3,1.9-0.4,2.7-0.4c1.2,0,2.1,0.1,2.7,0.4c0.6,0.3,0.9,0.7,0.9,1.3c0,0.2,0,0.3,0,0.4
		c0,0.1-0.1,0.2-0.1,0.3c-1.7,0.1-3.3,0.3-4.7,0.5c-1.5,0.2-2.7,0.6-3.8,1c-1.1,0.5-2,1.2-2.5,2c-0.6,0.8-0.9,1.9-0.9,3.1
		c0,1.1,0.4,2.1,1.2,2.8c0.8,0.7,1.8,1.1,3.1,1.1c0.8,0,1.4-0.1,1.9-0.2c0.5-0.1,0.9-0.3,1.4-0.5c0.4-0.2,0.8-0.4,1.2-0.7
		c0.4-0.3,0.8-0.5,1.1-0.7L41.7,744"/>
	<path fill="#1C3665" d="M64.3,728.2c-0.6,0-1.5,0.5-1.9,1.1l-5.2,9l-1.4-9c-0.1-0.6-0.8-1.1-1.4-1.1h-2.6c-0.6,0-1,0.5-0.9,1.1
		l2.3,14.8c0,0.3,0.1,0.6,0.1,0.8l-2.9,4.8c-0.4,0.6-0.2,1.1,0.5,1.1h3.1c0.6,0,1.5-0.5,1.8-1.1l12.8-21.5L64.3,728.2L64.3,728.2z"
		/>
</g>
</svg>
