<?xml version="1.0" encoding="utf-8"?>
<!-- Generator: Adobe Illustrator 17.1.0, SVG Export Plug-In . SVG Version: 6.00 Build 0)  -->
<!DOCTYPE svg PUBLIC "-//W3C//DTD SVG 1.1//EN" "http://www.w3.org/Graphics/SVG/1.1/DTD/svg11.dtd">
<svg version="1.1" xmlns="http://www.w3.org/2000/svg" xmlns:xlink="http://www.w3.org/1999/xlink" x="0px" y="0px"
	 viewBox="0 0 12402.011 1655.435" enable-background="new 0 0 12402.011 1655.435" xml:space="preserve">
<g id="Mastercard">
	<linearGradient id="SVGID_1_" gradientUnits="userSpaceOnUse" x1="3724.7285" y1="-5.574293e-08" x2="3724.7285" y2="1655.4348">
		<stop  offset="0" style="stop-color:#30219E"/>
		<stop  offset="0.1416" style="stop-color:#281C86"/>
		<stop  offset="0.3171" style="stop-color:#21166F"/>
		<stop  offset="0.5068" style="stop-color:#1C135F"/>
		<stop  offset="0.719" style="stop-color:#191155"/>
		<stop  offset="1" style="stop-color:#181052"/>
	</linearGradient>
	<rect x="2483.152" y="0" fill="url(#SVGID_1_)" width="2483.152" height="1655.435"/>
	<g>
		<g>
			<g>
				<circle fill="#ED1C2E" cx="3249.838" cy="840.19" r="709.112"/>
				<g>
					<path fill="#FCB131" d="M4199.619,131.078c-182.65,0-350.258,68.763-474.89,182.65c-25.786,23.637-49.423,47.274-70.911,75.209
						h141.822c19.34,23.637,36.53,49.423,53.721,75.209h-249.263c-15.042,23.637-27.935,49.423-40.828,75.209h333.068
						c10.744,23.637,21.488,49.423,30.084,75.209h-393.235c-8.595,23.637-15.042,49.423-21.488,75.209h434.062
						c10.744,49.423,15.042,98.846,15.042,150.418c0,79.507-12.893,154.716-36.53,225.627h-391.086
						c8.595,25.786,19.339,51.572,30.083,75.209h333.068c-12.893,25.786-25.786,51.572-40.828,75.209h-251.412
						c17.19,25.786,34.381,51.572,53.72,75.209h141.822c-21.488,25.786-45.125,51.572-70.911,75.209
						c124.632,113.887,292.24,182.65,474.89,182.65c391.086,0,709.112-318.026,709.112-709.112
						C4908.73,449.103,4590.705,131.078,4199.619,131.078z"/>
				</g>
			</g>
			<path fill="#FCB131" d="M4814.182,1235.573c0-12.893,10.744-23.637,23.637-23.637c12.893,0,23.637,10.744,23.637,23.637
				s-10.744,23.637-23.637,23.637C4824.926,1257.061,4814.182,1248.466,4814.182,1235.573z M4837.819,1252.764
				c10.744,0,17.191-8.595,17.191-17.19c0-8.595-8.595-17.19-17.191-17.19c-8.595,0-17.19,8.595-17.19,17.19
				C4820.628,1244.168,4827.075,1252.764,4837.819,1252.764z M4833.521,1244.168h-4.297v-19.339h8.595c2.148,0,4.297,0,4.297,0
				c2.149,2.149,2.149,2.149,2.149,4.298s-2.149,4.298-4.298,4.298l4.298,8.595h-4.298l-2.148-8.595h-4.298V1244.168
				L4833.521,1244.168z M4833.521,1233.424h2.149h2.148l2.149-2.149c0,0,0-2.149-2.149-2.149h-2.148h-2.149V1233.424z"/>
		</g>
		<g>
			<g>
				<path fill="#003473" d="M3084.379,917.547c-8.595,0-10.744-2.149-17.19-2.149c-42.977,0-66.614,15.042-66.614,45.125
					c0,17.19,10.744,30.083,27.935,30.083C3060.742,990.607,3082.23,960.524,3084.379,917.547z M3140.249,1048.626
					c-10.744,0-64.465,0-64.465,0l2.149-30.083c-19.339,23.637-45.125,34.381-81.655,34.381c-40.828,0-70.911-32.232-70.911-79.507
					c0-70.911,49.423-111.739,135.376-111.739c8.595,0,19.339,0,32.232,2.149c2.149-8.595,2.149-12.893,2.149-19.339
					c0-19.339-12.893-25.786-49.423-25.786s-68.762,8.595-81.655,12.893c0-4.298,10.744-66.614,10.744-66.614
					c38.679-10.744,64.465-15.042,92.399-15.042c66.614,0,100.995,30.083,100.995,85.953c0,15.042-2.149,34.381-6.447,58.018
					C3155.29,934.738,3142.397,1024.989,3140.249,1048.626z"/>
				<polygon fill="#003473" points="2895.283,1048.626 2817.925,1048.626 2860.902,771.427 2764.204,1048.626 2710.484,1048.626 
					2704.037,773.576 2658.912,1048.626 2585.852,1048.626 2646.019,689.772 2757.758,689.772 2764.204,889.612 2830.818,689.772 
					2953.301,689.772 				"/>
				<path fill="#003473" d="M4296.315,917.547c-8.595,0-10.744-2.149-17.19-2.149c-42.977,0-66.613,15.042-66.613,45.125
					c0,17.19,10.744,30.083,27.935,30.083C4270.53,990.607,4294.167,960.524,4296.315,917.547z M4352.185,1048.626
					c-10.744,0-64.465,0-64.465,0l2.149-30.083c-19.339,23.637-45.125,34.381-79.506,34.381c-40.828,0-70.911-32.232-70.911-79.507
					c0-70.911,49.423-111.739,135.375-111.739c8.596,0,19.34,0,32.232,2.149c2.149-8.595,2.149-12.893,2.149-19.339
					c0-19.339-12.893-25.786-49.423-25.786c-38.679,0-68.762,8.595-81.655,12.893c0-4.298,10.744-66.614,10.744-66.614
					c38.679-10.744,64.464-15.042,92.399-15.042c66.613,0,100.995,30.083,100.995,85.953c0,15.042-2.149,34.381-6.447,58.018
					C4367.227,934.738,4352.185,1024.989,4352.185,1048.626z"/>
				<path fill="#003473" d="M3481.912,1044.328c-21.488,6.446-36.53,8.595-55.869,8.595c-38.679,0-60.167-23.637-60.167-64.465
					c0-12.893,6.447-47.274,10.744-77.358c4.298-27.934,32.232-199.84,32.232-199.84h77.357l-8.595,45.125h45.125l-10.744,70.911
					h-47.274c-8.595,55.87-21.488,124.631-21.488,133.227c0,15.042,8.595,21.488,25.786,21.488c8.595,0,15.042,0,21.488-2.149
					L3481.912,1044.328z"/>
				<path fill="#003473" d="M3716.133,1042.179c-25.786,8.595-51.572,12.893-77.358,12.893
					c-85.953,0-131.078-45.125-131.078-131.078c0-98.846,55.869-174.055,133.227-174.055c62.316,0,103.144,40.828,103.144,105.292
					c0,21.488-2.149,42.976-8.595,70.911h-152.566c-4.298,42.977,21.488,60.167,66.614,60.167c27.935,0,51.572-6.446,79.506-19.339
					L3716.133,1042.179z M3673.157,868.124c0-6.446,8.595-51.572-36.53-51.572c-23.637,0-40.828,19.339-49.423,51.572H3673.157z"/>
				<path fill="#003473" d="M3185.374,848.785c0,36.53,17.191,62.316,58.018,81.655c30.083,15.042,36.53,19.339,36.53,32.232
					c0,19.339-12.893,25.786-45.125,25.786c-23.637,0-45.125-4.298-68.762-10.744c0,0-10.744,64.465-10.744,66.614
					c17.191,4.298,32.232,6.446,79.507,8.595c81.655,0,118.185-30.083,118.185-96.697c0-40.828-15.042-64.465-53.721-81.655
					c-32.232-15.042-36.53-17.19-36.53-32.232c0-15.042,12.893-23.637,38.679-23.637c15.042,0,36.53,2.149,55.869,4.298
					l10.744-68.763c-19.34-2.149-49.423-6.446-66.614-6.446C3215.457,749.939,3185.374,795.064,3185.374,848.785z"/>
				<path fill="#003473" d="M4090.029,756.386c21.488,0,40.827,6.446,68.762,19.339l12.893-77.358
					c-10.744-4.298-51.572-30.083-83.804-30.083c-51.572,0-94.548,25.786-124.632,66.614
					c-45.125-15.042-62.316,15.042-85.953,45.125l-19.339,4.298c2.149-10.744,2.149-19.339,2.149-30.083h-70.911
					c-8.595,90.251-25.786,182.65-40.828,272.901l-4.298,19.339h77.358c12.893-83.804,19.339-137.525,23.637-174.055l27.935-15.042
					c4.298-17.19,17.191-21.488,45.125-21.488c-4.298,19.339-6.447,38.679-6.447,60.167c0,94.548,51.572,154.716,135.376,154.716
					c21.488,0,38.679-2.149,68.762-10.744l12.893-81.655c-25.786,12.893-47.274,19.339-64.465,19.339
					c-45.125,0-70.911-32.232-70.911-88.102C3993.331,812.255,4032.01,756.386,4090.029,756.386z"/>
				<path fill="#003473" d="M4741.122,689.772l-17.191,103.143c-21.488-27.934-42.976-47.274-73.06-47.274
					c-38.679,0-73.06,30.083-96.697,73.06c-32.232-6.446-66.614-17.19-66.614-17.19l0,0c2.149-23.637,4.298-38.679,4.298-42.977
					h-70.911c-8.596,90.251-25.786,182.65-40.828,272.901l-4.298,19.339h77.358c10.744-66.614,19.339-122.483,23.637-167.608
					c25.786-23.637,38.679-45.125,66.614-42.977c-12.893,27.934-19.34,60.167-19.34,94.548c0,73.06,36.53,120.334,92.4,120.334
					c27.935,0,49.423-10.744,70.911-32.232l-4.298,27.934h73.06l58.018-358.854C4816.331,689.772,4741.122,689.772,4741.122,689.772
					z M4644.425,979.863c-25.786,0-38.679-19.339-38.679-58.018c0-58.018,25.786-98.846,60.167-98.846
					c25.786,0,40.828,19.339,40.828,58.018C4706.741,939.036,4680.955,979.863,4644.425,979.863z"/>
			</g>
			<g>
				<polygon fill="#FFFFFF" points="2916.771,1027.137 2839.413,1027.137 2884.539,749.939 2785.693,1027.137 2734.121,1027.137 
					2727.675,752.088 2680.4,1027.137 2609.489,1027.137 2667.507,668.284 2779.246,668.284 2781.395,889.612 2856.604,668.284 
					2976.938,668.284 				"/>
				<path fill="#FFFFFF" d="M3105.867,896.059c-8.595,0-10.744-2.149-17.191-2.149c-42.976,0-66.614,15.042-66.614,45.125
					c0,17.19,10.744,30.083,27.935,30.083C3082.23,969.119,3105.867,939.036,3105.867,896.059z M3161.737,1027.137
					c-10.744,0-64.465,0-64.465,0l2.149-30.083c-19.339,23.637-45.125,34.381-81.655,34.381c-40.828,0-70.911-32.232-70.911-79.507
					c0-70.911,49.423-111.739,135.376-111.739c8.595,0,19.34,0,32.232,2.149c2.149-10.744,2.149-12.893,2.149-19.339
					c0-19.339-12.893-25.786-49.423-25.786c-38.679,0-68.762,8.595-81.655,12.893c0-4.298,10.744-66.614,10.744-66.614
					c38.679-10.744,64.465-15.042,92.399-15.042c66.614,0,100.995,30.083,100.995,85.953c0,15.042-2.149,34.381-6.446,58.018
					C3178.927,913.249,3163.885,1003.5,3161.737,1027.137z"/>
				<path fill="#FFFFFF" d="M4193.172,676.879l-12.893,77.358c-27.935-12.893-47.274-19.339-68.763-19.339
					c-58.018,0-98.846,55.87-98.846,135.376c0,53.721,27.935,88.102,70.911,88.102c19.34,0,40.827-6.446,64.465-19.339
					l-12.893,81.655c-27.935,8.595-47.274,10.744-68.762,10.744c-83.804,0-135.376-60.167-135.376-154.716
					c0-128.929,70.911-219.18,174.054-219.18C4141.6,657.54,4182.428,672.582,4193.172,676.879z"/>
				<path fill="#FFFFFF" d="M4317.804,896.059c-8.595,0-10.744-2.149-17.19-2.149c-42.977,0-66.614,15.042-66.614,45.125
					c0,17.19,10.744,30.083,27.935,30.083C4294.167,969.119,4315.655,939.036,4317.804,896.059z M4373.673,1027.137
					c-10.744,0-64.465,0-64.465,0l2.149-30.083c-19.339,23.637-45.125,34.381-81.655,34.381c-40.828,0-70.912-32.232-70.912-79.507
					c0-70.911,49.423-111.739,135.376-111.739c8.596,0,19.34,0,32.232,2.149c2.149-10.744,2.149-12.893,2.149-19.339
					c0-19.339-12.893-25.786-49.423-25.786c-38.679,0-68.763,8.595-81.656,12.893c0-4.298,10.744-66.614,10.744-66.614
					c38.679-10.744,64.465-15.042,92.4-15.042c66.613,0,100.995,30.083,100.995,85.953c0,15.042-2.149,34.381-6.447,58.018
					C4388.715,913.249,4375.822,1003.5,4373.673,1027.137z"/>
				<path fill="#FFFFFF" d="M3503.4,1022.84c-21.488,6.446-36.53,8.595-55.869,8.595c-38.679,0-60.167-21.488-60.167-64.465
					c0-12.893,6.447-47.274,10.744-77.358c4.298-27.934,34.381-199.84,34.381-199.84h77.358l-8.595,45.125h36.53l-10.744,70.911
					h-38.679c-8.595,55.87-21.488,124.631-21.488,133.227c0,15.042,8.595,21.488,25.786,21.488c8.595,0,15.042,0,21.488-2.149
					L3503.4,1022.84z"/>
				<path fill="#FFFFFF" d="M3737.622,1020.691c-25.786,8.595-51.572,12.893-77.358,10.744
					c-85.953,0-131.078-45.125-131.078-131.078c0-98.846,55.869-174.055,133.227-174.055c62.316,0,103.144,40.828,103.144,105.292
					c0,21.488-2.149,42.977-8.595,70.911h-152.566c-4.298,42.976,21.488,60.167,66.614,60.167c27.935,0,51.572-6.446,79.506-19.339
					L3737.622,1020.691z M3694.645,846.636c0-6.446,8.595-51.572-36.53-51.572c-23.637,0-40.828,19.339-49.423,51.572H3694.645z"/>
				<path fill="#FFFFFF" d="M3209.011,827.296c0,36.53,17.19,62.316,58.018,81.655c30.084,15.042,36.53,19.339,36.53,32.232
					c0,17.19-12.893,25.786-45.125,25.786c-23.637,0-45.125-4.298-68.762-10.744c0,0-10.744,64.465-10.744,66.614
					c17.19,4.298,32.232,6.446,79.506,8.595c81.655,0,118.185-30.083,118.185-96.697c0-40.828-15.042-64.465-53.72-81.655
					c-32.232-15.042-36.53-17.19-36.53-32.232c0-15.042,12.893-23.637,38.679-23.637c15.042,0,36.53,2.149,55.869,4.298
					l10.744-66.614c-19.339-2.149-49.423-6.446-66.614-6.446C3236.946,728.45,3206.862,773.576,3209.011,827.296z"/>
				<path fill="#FFFFFF" d="M4779.801,1027.137h-73.06l4.298-27.934c-21.488,21.488-42.977,32.232-70.911,32.232
					c-55.87,0-92.4-47.274-92.4-120.334c0-96.697,58.019-178.352,124.632-178.352c30.083,0,51.572,12.893,73.06,40.828
					l17.191-103.143h75.208L4779.801,1027.137z M4665.913,958.375c36.53,0,60.167-40.828,60.167-98.846
					c0-36.53-15.042-58.018-40.828-58.018c-34.381,0-60.167,40.828-60.167,98.846
					C4627.234,939.036,4640.127,958.375,4665.913,958.375z"/>
				<path fill="#FFFFFF" d="M4442.436,734.897c-8.595,90.251-25.786,182.65-40.828,272.901l-4.298,19.339h77.358
					c27.935-178.352,34.381-212.733,77.357-208.436c6.447-36.53,19.339-68.763,30.083-83.804
					c-32.232-6.446-49.423,10.744-73.06,45.125c2.149-15.042,4.298-30.083,4.298-45.125H4442.436z"/>
				<path fill="#FFFFFF" d="M3810.681,734.897c-10.744,90.251-25.786,182.65-40.828,272.901l-4.298,19.339h77.358
					c27.935-178.352,34.381-212.733,77.357-208.436c6.447-36.53,19.34-68.763,30.084-83.804
					c-32.232-6.446-49.423,10.744-73.06,45.125c2.149-15.042,4.298-30.083,4.298-45.125
					C3879.444,734.897,3810.681,734.897,3810.681,734.897z"/>
				<g>
					<path fill="#FFFFFF" d="M4814.182,1003.5c0-12.893,10.744-23.637,23.637-23.637c12.893,0,23.637,10.744,23.637,23.637
						s-10.744,23.637-23.637,23.637C4824.926,1027.137,4814.182,1016.393,4814.182,1003.5z M4837.819,1020.691
						c10.744,0,17.191-8.595,17.191-17.19s-8.595-17.19-17.191-17.19c-8.595,0-17.19,8.595-17.19,17.19
						C4820.628,1014.244,4827.075,1020.691,4837.819,1020.691z M4833.521,1014.244h-4.297v-19.339h8.595c2.148,0,4.297,0,4.297,0
						c2.149,0,2.149,2.149,2.149,4.298c0,2.149-2.149,4.298-4.298,4.298l4.298,8.595h-4.298l-2.148-8.595h-4.298V1014.244
						L4833.521,1014.244z M4833.521,1001.351h2.149h2.148l2.149-2.149c0,0,0-2.149-2.149-2.149h-2.148h-2.149V1001.351
						L4833.521,1001.351z"/>
				</g>
			</g>
		</g>
	</g>
</g>
<g id="Visa">
	<linearGradient id="SVGID_2_" gradientUnits="userSpaceOnUse" x1="1241.5762" y1="-5.574384e-08" x2="1241.5762" y2="1655.4348">
		<stop  offset="0" style="stop-color:#EEF9FF"/>
		<stop  offset="1" style="stop-color:#AAAFB5"/>
	</linearGradient>
	<rect x="0" y="0" fill="url(#SVGID_2_)" width="2483.152" height="1655.435"/>
	<g>
		<path fill="#0058A0" d="M695.25,473.339L507.874,976.771l-20.318-101.59c-45.151-121.907-133.195-234.784-264.133-309.284
			l171.573,645.658h203.179l300.253-738.217L695.25,473.339"/>
		<polyline fill="#0058A0" points="855.536,1211.556 975.186,471.082 1167.077,471.082 1047.427,1211.556 855.536,1211.556 		"/>
		<path fill="#0058A0" d="M1738.236,489.142c-38.378-15.803-97.074-31.605-171.573-31.605
			c-189.634,0-322.829,99.332-322.829,243.814c-2.257,106.105,94.817,164.8,167.058,200.921
			c74.499,36.121,99.332,58.696,99.332,92.559c0,49.666-58.696,72.242-115.135,72.242c-76.757,0-117.392-11.288-180.604-38.379
			l-24.833-11.288l-27.09,164.8c45.151,20.318,126.422,38.379,212.209,40.635c200.921,0,331.859-99.332,331.859-252.845
			c0-83.529-49.666-148.998-160.286-200.921c-65.469-33.863-108.362-56.439-106.104-92.559c0-31.605,33.863-63.211,110.62-63.211
			c63.211-2.258,108.362,13.545,142.225,29.348l18.06,9.03L1738.236,489.142"/>
		<path fill="#0058A0" d="M2228.123,473.339h-146.74c-45.151,0-79.014,13.545-99.332,60.954L1697.6,1211.556h200.922
			c0,0,33.863-90.302,40.636-110.62c22.575,0,216.724,0,243.815,0c6.773,24.833,22.575,110.62,22.575,110.62h178.346
			L2228.123,473.339 M1993.338,949.681c15.803-42.893,76.757-207.694,76.757-207.694c-2.258,2.258,15.803-42.893,24.833-69.984
			l13.545,63.211c0,0,36.121,176.088,45.151,214.467C2122.018,949.681,2031.716,949.681,1993.338,949.681z"/>
		<path fill="#FAA61A" d="M334.043,471.082H27.017l-2.258,13.545c239.3,60.954,397.328,212.209,462.797,390.555L419.83,534.293
			C410.8,486.884,376.937,473.339,334.043,471.082z"/>
	</g>
</g>
<g id="Amex">
	<g>
		
			<radialGradient id="SVGID_3_" cx="5454.4937" cy="1326.4086" r="0" gradientTransform="matrix(6.7701 0 0 -4.4563 -29485.6973 6935.0552)" gradientUnits="userSpaceOnUse">
			<stop  offset="0" style="stop-color:#9FD4F3"/>
			<stop  offset="0.0711" style="stop-color:#99D2F2"/>
			<stop  offset="0.1575" style="stop-color:#8BCDF1"/>
			<stop  offset="0.2516" style="stop-color:#71C6EF"/>
			<stop  offset="0.3514" style="stop-color:#51BCEA"/>
			<stop  offset="0.4546" style="stop-color:#21ADE4"/>
			<stop  offset="0.5" style="stop-color:#1AA6DF"/>
			<stop  offset="1" style="stop-color:#3078BC"/>
		</radialGradient>
		<path fill="url(#SVGID_3_)" d="M7441.883,1024.246"/>
		
			<radialGradient id="SVGID_4_" cx="5153.0352" cy="1490.292" r="340.9322" gradientTransform="matrix(6.7701 0 0 -4.5097 -29485.6973 7009.1958)" gradientUnits="userSpaceOnUse">
			<stop  offset="0" style="stop-color:#9FD4F3"/>
			<stop  offset="0.0711" style="stop-color:#99D2F2"/>
			<stop  offset="0.1575" style="stop-color:#8BCDF1"/>
			<stop  offset="0.2516" style="stop-color:#71C6EF"/>
			<stop  offset="0.3514" style="stop-color:#51BCEA"/>
			<stop  offset="0.4546" style="stop-color:#21ADE4"/>
			<stop  offset="0.5" style="stop-color:#1AA6DF"/>
			<stop  offset="1" style="stop-color:#3078BC"/>
		</radialGradient>
		<path fill="url(#SVGID_4_)" d="M7441.883,0H4966.305v1655.435h2475.579v-546.101"/>
		<path fill="#FFFFFF" d="M5190.529,576.925l-48.048-115.315l-48.048,115.315 M6234.776,532.081
			c-9.61,6.407-19.219,6.407-35.235,6.407h-83.284v-64.064h86.487c12.813,0,25.626,0,32.032,6.407
			c9.609,3.202,16.016,12.814,16.016,25.625C6247.589,516.065,6244.386,525.674,6234.776,532.081z M6833.777,576.925
			l-48.048-115.315l-48.048,115.315H6833.777z M5715.856,701.851h-70.471V474.423l-99.299,227.427h-60.861l-99.3-227.427v227.427
			h-140.941l-25.625-64.064h-144.145l-25.625,64.064h-83.284l124.925-291.491h102.503l118.519,275.475V410.359h112.112
			l89.69,195.395l83.284-195.395h118.519V701.851L5715.856,701.851z M5997.739,701.851h-230.631V410.359h230.631v60.862h-163.364
			v51.251h156.958v60.862h-156.958v57.657h163.364V701.851z M6324.466,490.438c0,44.846-32.032,70.471-48.048,76.878
			c16.016,6.407,28.829,16.016,35.235,25.625c9.609,12.814,12.813,28.83,12.813,54.455v57.657h-70.471v-35.235
			c0-16.016,3.203-41.641-9.61-57.657c-9.609-9.609-25.625-12.814-51.251-12.814h-73.674v105.706h-70.471V413.562h160.16
			c35.235,0,60.861,0,83.284,12.814C6311.653,439.187,6324.466,458.405,6324.466,490.438z M6436.579,701.851h-70.471V410.359h70.471
			V701.851z M7256.601,701.851h-99.3l-131.332-217.818v217.818h-140.941l-25.625-64.064h-144.145l-25.625,64.064h-80.081
			c-35.235,0-76.877-6.407-99.299-32.032c-25.626-25.625-35.235-57.657-35.235-112.112c0-41.641,6.406-83.283,38.438-112.112
			c22.422-22.423,57.658-35.235,105.706-35.235h67.267v60.862h-64.064c-25.625,0-38.438,3.202-54.455,16.016
			c-12.813,12.814-19.219,35.235-19.219,67.267s6.406,54.455,19.219,67.267c9.609,12.814,28.829,16.016,48.048,16.016h32.032
			l99.3-227.427h102.502l118.519,275.475V410.359h105.706l121.722,201.802V410.359h70.471L7256.601,701.851L7256.601,701.851z
			 M4966.305,759.508h118.519l25.625-64.064h60.861l25.626,64.064h233.834V711.46l22.422,48.048h121.722l22.422-51.251v51.251
			h579.781V653.802h12.812c6.407,0,9.61,0,9.61,12.814v92.894h297.898v-25.625c25.626,12.814,60.861,25.625,112.112,25.625h124.925
			l25.626-64.064h60.861l25.625,64.064h243.444v-60.862l35.235,60.862h192.192V355.906h-192.192v48.048l-25.626-48.048h-198.599
			v48.048l-25.625-48.048h-265.867c-44.845,0-83.283,6.407-115.315,22.423v-22.423h-182.583v22.423
			c-19.219-19.219-48.048-22.423-76.877-22.423h-672.674l-44.845,105.706l-44.845-105.706H5261v48.048l-22.422-48.048h-179.38
			l-83.284,192.193L4966.305,759.508L4966.305,759.508z"/>
		<path fill="#FFFFFF" d="M7432.777,974.124h-124.925c-12.812,0-22.422,0-28.829,6.407c-6.406,3.202-9.61,12.814-9.61,22.423
			c0,9.609,6.406,19.218,16.016,22.423c6.406,3.202,16.016,3.202,25.625,3.202h38.438c38.438,0,64.064,6.407,80.081,22.423
			c3.203,3.203,3.203,3.203,6.406,6.407 M7432.777,1163.112c-16.016,25.625-48.048,38.439-92.893,38.439h-134.535v-60.862h134.535
			c12.813,0,22.422-3.202,28.829-6.407c3.203-3.202,9.61-9.609,9.61-19.219s-3.203-16.016-9.61-19.218
			c-6.406-3.203-12.813-6.407-25.626-6.407c-64.064-3.202-147.348,3.202-147.348-89.69c0-41.641,25.626-86.487,99.3-86.487h137.738
			v-57.657h-128.128c-38.438,0-67.267,9.609-86.486,22.423v-22.423h-188.99c-28.829,0-67.267,6.407-83.283,22.423v-22.423h-339.541
			v22.423c-25.625-19.219-73.674-22.423-92.893-22.423h-224.225v22.423c-22.423-19.219-67.268-22.423-99.3-22.423h-249.85
			l-57.658,60.862l-54.455-60.862h-371.572v403.604h365.166l57.658-64.064l54.455,64.064h227.428v-96.096h22.422
			c28.829,0,64.064,0,96.096-12.814v108.91h185.786v-105.706h9.61c12.813,0,12.813,0,12.813,12.814v92.894h566.968
			c35.235,0,73.674-9.609,92.893-25.625v25.625h179.38c38.438,0,73.674-6.407,102.502-19.219L7432.777,1163.112L7432.777,1163.112z
			 M7157.301,1047.797c12.813,12.814,19.219,32.032,19.219,60.862c0,60.862-38.438,92.894-108.909,92.894h-134.535v-60.862h134.535
			c12.813,0,22.422-3.202,28.829-6.407c3.203-3.202,9.61-9.609,9.61-19.219s-3.203-16.016-9.61-19.218
			c-6.406-3.203-12.813-6.407-25.626-6.407c-64.064-3.202-147.348,3.202-147.348-89.69c0-41.641,25.626-86.487,99.3-86.487h137.738
			v60.862h-128.128c-12.812,0-22.422,0-28.829,6.407c-6.406,3.202-9.61,12.814-9.61,22.423c0,9.609,6.406,19.218,16.016,22.423
			c6.406,3.202,16.016,3.202,25.625,3.202h38.438C7115.659,1025.374,7141.285,1031.781,7157.301,1047.797z M6529.472,1031.781
			c-9.609,6.407-19.219,6.407-35.235,6.407h-83.283v-64.064h86.486c12.813,0,25.626,0,32.032,6.407
			c9.61,3.202,12.813,12.814,12.813,25.625C6542.285,1018.967,6539.081,1025.374,6529.472,1031.781z M6574.316,1067.016
			c16.016,6.407,28.829,16.016,35.235,25.625c9.61,12.814,12.813,28.83,12.813,54.455v57.657h-73.674v-35.234
			c0-16.016,3.203-44.846-9.61-57.657c-9.609-9.609-25.625-12.814-51.251-12.814h-73.674v105.706h-70.471V913.262h160.161
			c35.235,0,60.861,0,83.283,12.814s35.235,32.032,35.235,64.064C6622.365,1034.983,6590.333,1060.611,6574.316,1067.016z
			 M6660.803,910.059h230.631v60.862h-163.364v51.251h156.957v57.657h-156.957v57.657h163.364v60.862h-230.631V910.059z
			 M6193.135,1044.595h-89.69v-73.674h89.69c25.625,0,41.642,9.609,41.642,35.235
			C6234.776,1031.781,6218.76,1044.595,6193.135,1044.595z M6032.974,1175.925l-105.706-118.519l105.706-115.315V1175.925z
			 M5760.701,1140.691h-172.974v-57.657h153.754v-57.657h-153.754v-51.251h172.974l76.877,83.283L5760.701,1140.691z
			 M6311.653,1006.156c0,80.08-60.861,96.096-121.722,96.096h-86.487v96.096H5968.91l-86.487-96.096l-89.69,96.096h-275.476V906.857
			h278.679l86.487,96.096l86.487-96.096h221.021C6247.589,910.059,6311.653,926.075,6311.653,1006.156z"/>
	</g>
</g>
<g id="Discover">
	<rect x="7470.005" y="0.163" fill="#FFFFFF" width="2477" height="1623"/>
	<g>
		<path fill="#F58220" d="M9911.628,919.202c0,0-671.881,494.453-1905.053,716.63h1905.053V919.202z"/>
		<path fill="#231F20" d="M9919.974,0H7449.457v1655.435H9928.32V0H9919.974z M9914.744,19.604c0,17.425,0,1598.802,0,1618.405
			c-18.779,0-2429.815,0-2446.508,0c0-17.425,0-1598.802,0-1618.405C7484.929,19.604,9895.965,19.604,9914.744,19.604z"/>
		<path fill="#E83530" d="M9794.451,1311.758"/>
		
			<radialGradient id="SVGID_5_" cx="5842.7666" cy="-131.9855" r="31.4329" gradientTransform="matrix(6.0795 0 0 6.1235 -26773.2832 1482.4202)" gradientUnits="userSpaceOnUse">
			<stop  offset="0.0056" style="stop-color:#FFEFE1"/>
			<stop  offset="0.1092" style="stop-color:#FFEAD8"/>
			<stop  offset="0.2782" style="stop-color:#FDDCC0"/>
			<stop  offset="0.4917" style="stop-color:#FBC698"/>
			<stop  offset="0.7412" style="stop-color:#F8A761"/>
			<stop  offset="1" style="stop-color:#F58220"/>
		</radialGradient>
		<path fill="url(#SVGID_5_)" d="M8748.773,482.936c-105.985,0-194.307,84.513-194.307,189.043
			c0,111.202,83.905,193.491,194.307,193.491c108.193,0,192.099-84.513,192.099-191.266
			C8940.872,565.225,8856.967,482.936,8748.773,482.936z"/>
		<path fill="#001722" d="M7649.174,489.608h-103.777v364.742h101.569c55.201,0,94.945-13.344,130.274-42.257
			c41.953-35.584,66.241-86.738,66.241-140.114C7843.48,565.225,7763.992,489.608,7649.174,489.608z M7730.871,765.388
			c-22.08,20.017-50.785,28.912-97.153,28.912h-19.872V551.88h19.872c46.369,0,72.865,8.897,97.153,28.912
			c24.289,22.24,39.745,55.601,39.745,91.185C7770.616,707.564,7755.16,743.148,7730.871,765.388z"/>
		<rect x="7876.601" y="489.608" fill="#001722" width="70.657" height="364.742"/>
		<path fill="#001722" d="M8119.485,629.723c-41.953-15.568-55.201-26.689-55.201-46.704c0-22.24,22.081-40.032,52.993-40.032
			c22.08,0,39.744,8.897,57.409,28.912l37.536-48.929c-30.912-26.689-66.241-40.032-105.985-40.032
			c-64.033,0-112.609,44.481-112.609,104.53c0,51.152,22.08,75.618,88.321,100.081c28.704,8.897,41.953,15.568,48.577,20.017
			c13.248,8.897,22.08,22.24,22.08,37.809c0,28.912-24.288,51.152-55.201,51.152c-33.12,0-61.825-17.792-77.281-48.929
			l-46.369,44.481c33.12,48.929,72.865,68.944,125.857,68.944c72.865,0,125.858-48.929,125.858-120.098
			C8225.47,685.324,8201.182,658.635,8119.485,629.723z"/>
		<path fill="#001722" d="M8247.551,671.979c0,106.753,83.905,191.266,192.099,191.266c30.912,0,57.408-6.672,88.321-22.24v-84.513
			c-28.705,28.912-52.993,40.032-86.113,40.032c-70.657,0-121.442-51.152-121.442-126.77c0-71.169,52.993-124.545,119.234-124.545
			c33.12,0,59.616,11.12,88.321,42.257v-84.513c-30.913-15.569-57.409-22.24-86.113-22.24
			C8333.664,480.712,8247.551,565.225,8247.551,671.979z"/>
		<polygon fill="#001722" points="9102.059,734.251 9004.905,489.608 8927.624,489.608 9082.187,865.47 9119.723,865.47 
			9276.493,489.608 9199.212,489.608 		"/>
		<polygon fill="#001722" points="9307.405,854.349 9508.336,854.349 9508.336,794.3 9378.062,794.3 9378.062,694.219 
			9503.92,694.219 9503.92,631.946 9378.062,631.946 9378.062,551.882 9508.336,551.882 9508.336,489.608 9307.405,489.608 		"/>
		<path fill="#001722" d="M9788.756,598.586c0-68.944-46.368-108.978-128.065-108.978h-105.985v364.742h70.656V707.564h8.833
			l97.153,146.786h86.113l-114.818-153.459C9760.052,689.771,9788.756,654.187,9788.756,598.586z M9647.442,658.635h-19.872V547.433
			h22.08c44.16,0,68.449,17.792,68.449,53.377C9715.892,638.618,9693.811,658.635,9647.442,658.635z"/>
		<path fill="#231F20" d="M9839.541,516.296c0-6.672-4.416-8.897-11.04-8.897h-11.04v31.137h6.624v-13.344l8.832,13.344h8.832
			l-11.04-13.344C9837.333,525.193,9839.541,520.745,9839.541,516.296z M9826.293,520.745L9826.293,520.745l-2.208-8.897h2.208
			c4.416,0,6.624,2.223,6.624,4.448C9832.917,520.745,9830.709,520.745,9826.293,520.745z"/>
		<path fill="#231F20" d="M9828.501,494.056c-15.456,0-28.704,13.344-28.704,28.912c0,15.569,13.248,28.912,28.704,28.912
			s28.704-13.344,28.704-28.912C9857.205,507.401,9843.957,494.056,9828.501,494.056z M9828.501,545.208
			c-13.248,0-22.08-11.12-22.08-22.24c0-13.344,8.832-22.24,22.08-22.24c11.04,0,22.08,11.12,22.08,22.24
			C9850.581,536.313,9841.749,545.208,9828.501,545.208z"/>
		<path fill="#231F20" d="M8179.102,952.207l94.945,100.081v-95.633h13.248v126.77l-94.945-100.081v93.41h-13.248V952.207z"/>
		<path fill="#231F20" d="M8176.894,952.207v128.994h15.456c0,0,0-86.738,0-93.41c4.416,4.448,94.945,100.081,94.945,100.081
			V954.431h-15.456c0,0,0,86.738,0,93.41c-4.416-4.448-94.945-100.081-94.945-100.081V952.207L8176.894,952.207z M8181.31,954.431
			c4.416,4.448,94.945,100.081,94.945,100.081s0-93.41,0-97.858c2.208,0,8.832,0,11.04,0c0,2.223,0,117.873,0,124.545
			c-4.416-4.448-94.945-100.081-94.945-100.081s0,93.41,0,95.633c-2.208,0-8.832,0-11.04,0
			C8181.31,1074.529,8181.31,961.103,8181.31,954.431z"/>
		<path fill="#231F20" d="M8353.536,956.654h64.033v13.344h-48.577v35.584h48.577v13.344h-48.577v48.929h48.577v13.344h-64.033
			V956.654z"/>
		<path fill="#231F20" d="M8415.36,954.431h-64.032v124.545h66.24v-13.344c0,0-46.368,0-48.576,0c0-2.224,0-42.257,0-44.481
			c2.208,0,48.576,0,48.576,0v-15.568c0,0-46.368,0-48.576,0c0-2.224,0-31.137,0-33.36c2.208,0,48.576,0,48.576,0L8415.36,954.431
			L8415.36,954.431z M8415.36,958.879c0,2.224,0,8.897,0,11.12c-2.208,0-48.576,0-48.576,0v40.032c0,0,46.368,0,48.576,0
			c0,2.223,0,8.897,0,11.12c-2.208,0-48.576,0-48.576,0v51.152c0,0,46.368,0,48.576,0c0,2.224,0,8.897,0,11.12
			c-2.208,0-57.408,0-59.616,0c0-2.224,0-117.873,0-120.098C8355.744,958.879,8413.152,958.879,8415.36,958.879z"/>
		<path fill="#231F20" d="M8512.515,1078.976h-13.249V969.998h-28.704v-13.344h72.865v13.344h-28.704v108.978H8512.515z"/>
		<path fill="#231F20" d="M8541.219,954.431h-72.865v15.568c0,0,26.496,0,28.704,0c0,2.224,0,108.978,0,108.978h15.457
			c0,0,0-106.753,0-108.978c2.208,0,28.704,0,28.704,0V954.431L8541.219,954.431z M8539.011,958.879c0,2.224,0,8.897,0,11.12
			c-2.208,0-28.704,0-28.704,0s0,106.753,0,108.978c-2.208,0-8.833,0-11.041,0c0-2.224,0-108.978,0-108.978s-26.496,0-28.704,0
			c0-2.223,0-8.897,0-11.12C8472.77,958.879,8536.803,958.879,8539.011,958.879z"/>
		<path fill="#231F20" d="M8631.748,1047.841l39.744-97.858l39.745,97.858l30.912-91.185h15.456l-46.368,128.994l-39.745-97.858
			l-39.744,97.858l-46.369-128.994h15.457L8631.748,1047.841z"/>
		<path fill="#231F20" d="M8669.284,949.983c0,0-35.328,88.961-37.536,95.633c-2.208-6.672-30.912-88.961-30.912-88.961h-17.665
			l48.577,133.442c0,0,37.536-93.41,39.744-97.858c2.208,6.672,39.745,97.858,39.745,97.858l48.576-133.442h-17.664
			c0,0-28.704,84.513-30.912,88.961c-2.208-6.672-39.745-97.858-39.745-97.858L8669.284,949.983z M8633.956,1047.841
			c0,0,35.328-88.961,37.536-95.633c2.208,4.448,39.745,97.858,39.745,97.858l33.12-93.41c2.208,0,8.832,0,11.04,0
			c-2.208,2.223-41.952,117.873-44.16,124.545c-2.208-6.672-39.745-97.858-39.745-97.858s-37.536,93.41-39.744,97.858
			c-2.208-6.672-44.161-120.098-44.161-124.545c2.208,0,11.04,0,11.04,0c0,2.223,33.121,93.41,33.121,93.41L8633.956,1047.841z"/>
		<path fill="#231F20" d="M8932.04,1018.928c0,35.584-28.704,62.273-64.033,62.273c-35.328,0-64.032-28.912-64.032-62.273
			c0-35.584,28.704-64.497,64.032-64.497C8903.336,954.431,8932.04,983.343,8932.04,1018.928z M8819.431,1018.928
			c0,26.689,22.08,51.152,50.784,51.152c26.497,0,50.785-22.24,50.785-51.152c0-26.689-22.08-51.152-50.785-51.152
			C8841.511,967.775,8819.431,990.015,8819.431,1018.928z"/>
		<path fill="#231F20" d="M8803.975,1018.928c0,35.584,28.704,64.497,64.032,64.497c35.329,0,64.033-28.912,64.033-64.497
			c0-35.584-28.704-64.497-64.033-64.497C8832.679,954.431,8803.975,983.343,8803.975,1018.928z M8806.183,1018.928
			c0-33.361,28.704-62.273,61.824-62.273c33.121,0,61.825,28.912,61.825,62.273c0,33.36-28.704,62.273-61.825,62.273
			C8834.887,1078.976,8806.183,1052.289,8806.183,1018.928z"/>
		<path fill="#231F20" d="M8817.223,1018.928c0,28.912,22.08,51.152,50.784,51.152c28.705,0,50.785-22.24,50.785-51.152
			s-22.08-51.152-50.785-51.152C8841.511,965.551,8817.223,990.015,8817.223,1018.928z M8819.431,1018.928
			c0-26.689,22.08-48.929,48.576-48.929c26.497,0,48.577,22.24,48.577,48.929s-22.08,48.929-48.577,48.929
			C8841.511,1067.856,8819.431,1045.616,8819.431,1018.928z"/>
		<path fill="#231F20" d="M9004.905,1078.976h-13.248V956.654h17.664c22.08,0,44.161,6.672,44.161,33.36
			c0,17.792-11.041,31.137-30.913,33.36l37.536,55.601h-17.664l-37.536-53.377h-4.416L9004.905,1078.976L9004.905,1078.976z
			 M9004.905,1012.255h4.416c15.456,0,30.912-2.223,30.912-22.24s-15.456-22.24-30.912-22.24h-4.416V1012.255L9004.905,1012.255z"/>
		<path fill="#231F20" d="M8991.657,954.431L8991.657,954.431l-2.208,124.545h15.456c0,0,0-51.152,0-53.377h2.208l0,0l35.328,53.377
			h17.664h2.208c0,0-37.536-53.377-39.744-55.601c17.664-2.224,28.704-15.568,28.704-35.584c0-24.464-15.456-35.584-46.368-35.584
			C9009.321,954.431,8991.657,954.431,8991.657,954.431z M9009.321,958.879c28.704,0,44.16,11.12,44.16,33.361
			c0,17.792-11.04,31.137-28.704,33.36h-2.208c0,0,35.328,51.152,37.536,55.601c-4.416,0-13.248,0-13.248,0l0,0l-35.328-53.377
			h-4.416h-2.208c0,0,0,51.152,0,53.377c-2.208,0-8.832,0-11.04,0c0-2.224,0-117.873,0-120.098
			C8993.865,958.879,9009.321,958.879,9009.321,958.879z"/>
		<path fill="#231F20" d="M9004.905,967.775L9004.905,967.775l-2.208,46.704h4.416c15.456,0,30.912-2.224,30.912-22.24
			C9038.025,969.998,9020.361,967.775,9004.905,967.775L9004.905,967.775z M9009.321,969.999c15.456,0,28.704,2.224,28.704,20.017
			c0,17.792-15.456,20.017-28.704,20.017h-2.208c0-2.224,0-40.032,0-42.257C9007.113,969.999,9009.321,969.999,9009.321,969.999z"/>
		<path fill="#231F20" d="M9183.756,956.654h17.664l-57.409,57.824l59.617,64.497h-17.664l-50.785-55.601l-2.208,2.224v53.377
			h-13.248V956.654h13.248v53.377L9183.756,956.654z"/>
		<path fill="#231F20" d="M9201.42,954.431h-17.664c0,0-46.369,46.704-50.785,51.152c0-4.448,0-51.152,0-51.152h-15.456v124.545
			h15.456v-53.377c0,0,2.208,0,2.208-2.224c2.208,2.224,48.577,55.601,48.577,55.601h19.872h2.208c0,0-57.409-64.497-59.617-66.721
			c2.208-2.223,57.409-57.824,57.409-57.824H9201.42z M9199.212,958.879c-4.416,4.448-55.201,55.601-55.201,55.601
			s55.201,60.049,57.409,64.497c-4.416,0-15.456,0-15.456,0l0,0l-48.577-55.601l0,0l-4.415,4.448c0,0,0,48.929,0,53.377
			c-2.208,0-8.833,0-11.041,0c0-2.224,0-117.873,0-120.098c2.208,0,8.833,0,11.041,0c0,2.224,0,53.377,0,53.377l52.992-53.377
			C9185.964,958.879,9194.796,958.879,9199.212,958.879z"/>
	</g>
</g>
<g id="Paypal">
	<g>
		
			<linearGradient id="SVGID_6_" gradientUnits="userSpaceOnUse" x1="6240.2515" y1="244.0426" x2="6240.2515" y2="514.3009" gradientTransform="matrix(6.1235 0 0 6.1235 -27047.207 -1494.1525)">
			<stop  offset="0" style="stop-color:#FFFFFF"/>
			<stop  offset="0.3204" style="stop-color:#FFF7E7"/>
			<stop  offset="0.7453" style="stop-color:#FEEDCE"/>
			<stop  offset="1" style="stop-color:#FEEAC4"/>
		</linearGradient>
		<rect x="9928.57" y="0.25" fill="url(#SVGID_6_)" width="2473.19" height="1654.935"/>
		<path fill="#FBB15F" d="M12401.511,0.5v1654.435H9928.82V0.5H12401.511 M12402.011,0H9928.32v1655.435h2473.69V0L12402.011,0z"/>
	</g>
	<g>
		<path fill="#1C3665" d="M12187.801,591.693v-69.795h-26.174v-8.725h61.071v8.725h-26.173v69.795H12187.801L12187.801,591.693z"/>
		<path fill="#1C3665" d="M12233.604,591.693v-78.519h15.268l19.63,54.528c2.182,4.362,2.182,8.725,4.362,10.906
			c0-2.181,2.181-6.543,4.362-13.086l19.63-54.528h13.087v78.519h-10.906V524.08l-23.992,65.433h-8.724l-21.812-65.433v65.433
			C12244.509,591.693,12233.604,591.693,12233.604,591.693z"/>
	</g>
	<g>
		<path fill="#34679A" d="M11476.762,787.992c-19.63,13.086-45.804,21.811-80.701,21.811h-17.448
			c-13.087,0-21.812-10.906-19.631-23.992l19.631-82.882c2.181-13.086,17.448-23.992,30.535-23.992h21.811
			c23.992,0,43.622,4.362,56.709,13.086c13.087,8.725,19.63,21.811,19.63,39.26
			C11505.116,753.095,11494.21,772.724,11476.762,787.992z M11616.352,659.307c-8.724-15.268-19.63-28.354-34.897-37.079
			c-15.268-10.906-34.897-17.449-56.708-19.63c-21.812-4.362-47.984-6.543-76.339-6.543h-135.229
			c-13.087,0-28.354,10.906-30.535,23.992l-91.606,394.779c-2.181,13.086,6.543,23.992,19.63,23.992h65.434
			c13.086,0,28.354-10.906,30.535-23.992l21.811-95.969c2.182-13.086,17.449-23.992,30.536-23.992h19.63
			c78.52,0,139.59-15.268,185.394-47.984c43.622-32.717,65.433-74.158,65.433-128.686
			C11627.258,694.205,11622.896,674.575,11616.352,659.307"/>
		<path fill="#34679A" d="M11812.651,951.575c-10.906,6.543-21.812,13.086-34.897,19.63c-10.906,4.362-23.992,6.543-32.717,6.543
			c-15.268,0-28.354-2.181-37.079-6.543s-13.086-13.086-13.086-23.992c0-13.086,2.181-23.992,8.724-30.536
			c6.544-8.725,15.269-13.086,28.354-17.449c10.906-4.362,26.174-6.543,41.441-8.725c17.449-2.181,34.897-4.362,54.527-6.543
			L11812.651,951.575z M11793.021,1038.819h80.7c13.087,0,28.354-10.906,30.535-23.992l47.984-202.842
			c2.182-4.362,2.182-10.906,2.182-17.449s0-10.906,0-15.268c0-28.354-13.087-50.165-37.079-63.253
			c-23.992-13.086-63.252-19.63-115.599-19.63c-26.173,0-52.346,2.181-78.52,6.543c-26.173,4.362-45.803,6.543-58.89,10.906
			l-10.905,54.528c-2.181,13.086,0,23.992,4.362,23.992c10.905-4.362,26.173-8.725,47.984-15.268
			c21.811-6.543,41.44-8.725,58.89-8.725c26.173,0,45.803,2.181,58.89,8.725c13.086,6.543,19.63,15.268,19.63,28.354
			c0,4.362,0,6.543,0,8.725c0,2.181-2.182,4.362-2.182,6.543c-37.078,2.181-71.977,6.543-102.512,10.906
			c-32.716,4.362-58.89,13.086-82.882,21.811c-23.992,10.906-43.622,26.174-54.527,43.622c-13.087,17.449-19.63,41.441-19.63,67.614
			c0,23.992,8.725,45.803,26.173,61.071c17.449,15.268,39.26,23.992,67.614,23.992c17.449,0,30.535-2.181,41.441-4.362
			c8.724-2.181,19.63-6.543,30.535-10.906c8.725-4.362,17.449-8.725,26.173-15.268c8.725-6.543,17.449-10.906,23.992-15.268
			L11793.021,1038.819"/>
		<path fill="#34679A" d="M12161.627,598.236l-91.605,416.59c-2.182,13.086-17.449,23.992-30.536,23.992h-56.708
			c-13.087,0-21.812-10.906-19.63-23.992l87.244-392.598c2.181-13.086,17.448-23.992,30.535-23.992H12161.627"/>
		<path fill="#1C3665" d="M10336.045,787.992c-19.63,15.268-45.803,21.811-80.7,21.811h-15.268
			c-13.087,0-21.812-10.906-19.63-23.992l19.63-82.882c2.181-13.086,17.448-23.992,30.535-23.992h21.811
			c23.992,0,43.622,4.362,56.709,13.086c13.087,8.725,19.63,21.811,19.63,39.26
			C10364.399,755.276,10355.676,774.906,10336.045,787.992z M10475.636,659.307c-8.725-15.268-19.63-28.354-34.897-37.079
			c-15.268-8.725-34.897-17.449-56.709-19.63c-21.811-4.362-47.984-6.543-76.338-6.543h-135.229
			c-13.087,0-28.354,10.906-30.535,23.992l-91.606,394.779c-2.182,13.086,6.543,23.992,19.63,23.992h65.433
			c13.087,0,28.354-10.906,30.535-23.992l21.812-95.969c2.181-13.086,17.448-23.992,30.535-23.992h19.63
			c78.52,0,139.591-15.268,185.394-47.984c43.622-32.717,65.434-74.158,65.434-128.686
			C10486.541,694.205,10484.36,674.575,10475.636,659.307"/>
		<path fill="#1C3665" d="M10671.935,951.575c-10.905,6.543-21.811,13.086-32.716,19.63c-13.087,4.362-23.992,6.543-32.717,6.543
			c-15.268,0-28.354-2.181-37.079-6.543c-8.724-4.362-13.086-13.086-13.086-23.992c0-13.086,2.181-23.992,8.725-30.536
			c6.543-8.725,15.268-13.086,28.354-17.449c10.906-4.362,26.174-6.543,41.441-8.725c17.448-2.181,34.897-4.362,54.527-6.543
			L10671.935,951.575z M10652.305,1038.819h80.701c13.087,0,28.354-10.906,30.535-23.992l47.984-202.842
			c2.182-4.362,2.182-10.906,2.182-17.449s2.181-10.906,2.181-15.268c0-28.354-13.087-50.165-37.079-63.253
			c-23.992-13.086-63.252-19.63-115.598-19.63c-26.174,0-52.347,2.181-78.52,6.543c-26.174,4.362-45.804,8.725-58.891,10.906
			l-10.905,54.528c-2.181,13.086,0,23.992,4.362,23.992c10.905-4.362,26.174-8.725,47.984-15.268s41.441-8.725,58.89-8.725
			c26.174,0,45.803,2.181,58.89,8.725c13.087,6.543,19.63,15.268,19.63,28.354c0,4.362,0,6.543,0,8.725
			c0,2.181-2.181,4.362-2.181,6.543c-37.079,2.181-71.977,6.543-102.512,10.906c-32.717,4.362-58.89,13.086-82.882,21.811
			c-23.992,10.906-43.622,26.174-54.527,43.622c-13.087,17.449-19.63,41.441-19.63,67.614c0,23.992,8.724,45.803,26.173,61.071
			c17.449,15.268,39.26,23.992,67.614,23.992c17.448,0,30.535-2.181,41.44-4.362c10.906-2.181,19.63-6.543,30.536-10.906
			c8.724-4.362,17.448-8.725,26.173-15.268c8.725-6.543,17.449-10.906,23.992-15.268L10652.305,1038.819"/>
		<path fill="#1C3665" d="M11145.234,694.205c-13.087,0-32.717,10.905-41.441,23.992l-113.417,196.299l-30.535-196.299
			c-2.182-13.086-17.449-23.992-30.536-23.992h-56.708c-13.087,0-21.812,10.905-19.63,23.992l50.165,322.803
			c0,6.543,2.181,13.086,2.181,17.449l-63.252,104.693c-8.725,13.086-4.362,23.992,10.905,23.992h67.614
			c13.087,0,32.717-10.906,39.26-23.992l279.182-468.937L11145.234,694.205L11145.234,694.205z"/>
	</g>
</g>
</svg>
