<?xml version="1.0" encoding="utf-8"?>
<!-- Generator: Adobe Illustrator 17.1.0, SVG Export Plug-In . SVG Version: 6.00 Build 0)  -->
<!DOCTYPE svg PUBLIC "-//W3C//DTD SVG 1.1//EN" "http://www.w3.org/Graphics/SVG/1.1/DTD/svg11.dtd">
<svg version="1.1" xmlns="http://www.w3.org/2000/svg" xmlns:xlink="http://www.w3.org/1999/xlink" x="0px" y="0px"
	 viewBox="0 0 30 104.5" enable-background="new 0 0 30 104.5" xml:space="preserve">
<g id="Visa">
	<linearGradient id="SVGID_1_" gradientUnits="userSpaceOnUse" x1="15" y1="-6.730261e-10" x2="15" y2="20">
		<stop  offset="0" style="stop-color:#F5FCFF"/>
		<stop  offset="1" style="stop-color:#CED4DB"/>
	</linearGradient>
	<rect fill="url(#SVGID_1_)" width="30" height="20"/>
	<g>
		<path fill="#0058A0" d="M8.4,5.719l-2.264,6.082L5.89,10.573C5.345,9.101,4.281,7.737,2.699,6.837l2.073,7.8h2.455l3.627-8.919
			L8.4,5.719"/>
		<polyline fill="#0058A0" points="10.336,14.637 11.782,5.691 14.1,5.691 12.654,14.637 10.336,14.637 		"/>
		<path fill="#0058A0" d="M21,5.91c-0.464-0.191-1.173-0.382-2.073-0.382c-2.291,0-3.9,1.2-3.9,2.946
			c-0.027,1.282,1.146,1.991,2.018,2.427c0.9,0.436,1.2,0.709,1.2,1.118c0,0.6-0.709,0.873-1.391,0.873
			c-0.927,0-1.418-0.136-2.182-0.464l-0.3-0.136l-0.327,1.991c0.545,0.245,1.527,0.464,2.564,0.491c2.427,0,4.009-1.2,4.009-3.055
			c0-1.009-0.6-1.8-1.936-2.427C17.891,8.882,17.373,8.61,17.4,8.173c0-0.382,0.409-0.764,1.336-0.764
			c0.764-0.027,1.309,0.164,1.718,0.355l0.218,0.109L21,5.91"/>
		<path fill="#0058A0" d="M26.919,5.719h-1.773c-0.545,0-0.955,0.164-1.2,0.736l-3.437,8.182h2.427c0,0,0.409-1.091,0.491-1.336
			c0.273,0,2.618,0,2.946,0c0.082,0.3,0.273,1.336,0.273,1.336h2.155L26.919,5.719 M24.082,11.473
			c0.191-0.518,0.927-2.509,0.927-2.509c-0.027,0.027,0.191-0.518,0.3-0.846l0.164,0.764c0,0,0.436,2.127,0.545,2.591
			C25.637,11.473,24.546,11.473,24.082,11.473z"/>
		<path fill="#FAA61A" d="M4.036,5.691H0.326L0.299,5.855c2.891,0.736,4.8,2.564,5.591,4.718L5.072,6.455
			C4.963,5.882,4.554,5.719,4.036,5.691z"/>
	</g>
</g>
<g id="Mastercard">
	<linearGradient id="SVGID_2_" gradientUnits="userSpaceOnUse" x1="15" y1="20.9375" x2="15" y2="40.9375">
		<stop  offset="0" style="stop-color:#30219E"/>
		<stop  offset="0.1416" style="stop-color:#281C86"/>
		<stop  offset="0.3171" style="stop-color:#21166F"/>
		<stop  offset="0.5068" style="stop-color:#1C135F"/>
		<stop  offset="0.719" style="stop-color:#191155"/>
		<stop  offset="1" style="stop-color:#181052"/>
	</linearGradient>
	<rect y="20.938" fill="url(#SVGID_2_)" width="30" height="20"/>
	<g>
		<g>
			<g>
				<circle fill="#ED1C2E" cx="9.263" cy="31.088" r="8.567"/>
				<g>
					<path fill="#FCB131" d="M20.737,22.521c-2.207,0-4.232,0.831-5.737,2.207c-0.312,0.286-0.597,0.571-0.857,0.909h1.713
						c0.234,0.286,0.441,0.597,0.649,0.909h-3.011c-0.182,0.286-0.337,0.597-0.493,0.909h4.024c0.13,0.286,0.26,0.597,0.363,0.909
						h-4.751c-0.104,0.286-0.182,0.597-0.26,0.909h5.244c0.13,0.597,0.182,1.194,0.182,1.817c0,0.961-0.156,1.869-0.441,2.726
						h-4.725c0.104,0.312,0.234,0.623,0.363,0.909h4.024c-0.156,0.312-0.312,0.623-0.493,0.909h-3.037
						c0.208,0.312,0.415,0.623,0.649,0.909h1.713c-0.26,0.312-0.545,0.623-0.857,0.909c1.506,1.376,3.531,2.207,5.737,2.207
						c4.725,0,8.567-3.842,8.567-8.567C29.304,26.363,25.462,22.521,20.737,22.521z"/>
				</g>
			</g>
			<path fill="#FCB131" d="M28.162,35.865c0-0.156,0.13-0.286,0.286-0.286c0.156,0,0.286,0.13,0.286,0.286
				c0,0.156-0.13,0.286-0.286,0.286C28.292,36.125,28.162,36.021,28.162,35.865z M28.448,36.073c0.13,0,0.208-0.104,0.208-0.208
				c0-0.104-0.104-0.208-0.208-0.208s-0.208,0.104-0.208,0.208C28.24,35.969,28.318,36.073,28.448,36.073z M28.396,35.969h-0.052
				v-0.234h0.104c0.026,0,0.052,0,0.052,0c0.026,0.026,0.026,0.026,0.026,0.052s-0.026,0.052-0.052,0.052l0.052,0.104h-0.052
				l-0.026-0.104h-0.052L28.396,35.969L28.396,35.969z M28.396,35.839h0.026h0.026l0.026-0.026c0,0,0-0.026-0.026-0.026h-0.026
				h-0.026V35.839z"/>
		</g>
		<g>
			<g>
				<path fill="#003473" d="M7.264,32.023c-0.104,0-0.13-0.026-0.208-0.026c-0.519,0-0.805,0.182-0.805,0.545
					c0,0.208,0.13,0.363,0.337,0.363C6.978,32.905,7.238,32.542,7.264,32.023z M7.939,33.606c-0.13,0-0.779,0-0.779,0l0.026-0.363
					c-0.234,0.286-0.545,0.415-0.987,0.415c-0.493,0-0.857-0.389-0.857-0.961c0-0.857,0.597-1.35,1.636-1.35
					c0.104,0,0.234,0,0.389,0.026c0.026-0.104,0.026-0.156,0.026-0.234c0-0.234-0.156-0.312-0.597-0.312s-0.831,0.104-0.987,0.156
					c0-0.052,0.13-0.805,0.13-0.805c0.467-0.13,0.779-0.182,1.116-0.182c0.805,0,1.22,0.363,1.22,1.038
					c0,0.182-0.026,0.415-0.078,0.701C8.12,32.23,7.965,33.321,7.939,33.606z"/>
				<polygon fill="#003473" points="4.979,33.606 4.045,33.606 4.564,30.257 3.396,33.606 2.746,33.606 2.669,30.283 2.123,33.606 
					1.241,33.606 1.968,29.271 3.318,29.271 3.396,31.685 4.2,29.271 5.68,29.271 				"/>
				<path fill="#003473" d="M21.906,32.023c-0.104,0-0.13-0.026-0.208-0.026c-0.519,0-0.805,0.182-0.805,0.545
					c0,0.208,0.13,0.363,0.337,0.363C21.594,32.905,21.88,32.542,21.906,32.023z M22.581,33.606c-0.13,0-0.779,0-0.779,0
					l0.026-0.363c-0.234,0.286-0.545,0.415-0.961,0.415c-0.493,0-0.857-0.389-0.857-0.961c0-0.857,0.597-1.35,1.636-1.35
					c0.104,0,0.234,0,0.389,0.026c0.026-0.104,0.026-0.156,0.026-0.234c0-0.234-0.156-0.312-0.597-0.312
					c-0.467,0-0.831,0.104-0.987,0.156c0-0.052,0.13-0.805,0.13-0.805c0.467-0.13,0.779-0.182,1.116-0.182
					c0.805,0,1.22,0.363,1.22,1.038c0,0.182-0.026,0.415-0.078,0.701C22.762,32.23,22.581,33.321,22.581,33.606z"/>
				<path fill="#003473" d="M12.066,33.554c-0.26,0.078-0.441,0.104-0.675,0.104c-0.467,0-0.727-0.286-0.727-0.779
					c0-0.156,0.078-0.571,0.13-0.935c0.052-0.337,0.389-2.414,0.389-2.414h0.935l-0.104,0.545h0.545l-0.13,0.857h-0.571
					c-0.104,0.675-0.26,1.506-0.26,1.61c0,0.182,0.104,0.26,0.312,0.26c0.104,0,0.182,0,0.26-0.026L12.066,33.554z"/>
				<path fill="#003473" d="M14.896,33.528c-0.312,0.104-0.623,0.156-0.935,0.156c-1.038,0-1.584-0.545-1.584-1.584
					c0-1.194,0.675-2.103,1.61-2.103c0.753,0,1.246,0.493,1.246,1.272c0,0.26-0.026,0.519-0.104,0.857h-1.843
					c-0.052,0.519,0.26,0.727,0.805,0.727c0.337,0,0.623-0.078,0.961-0.234L14.896,33.528z M14.377,31.426
					c0-0.078,0.104-0.623-0.441-0.623c-0.286,0-0.493,0.234-0.597,0.623H14.377z"/>
				<path fill="#003473" d="M8.484,31.192c0,0.441,0.208,0.753,0.701,0.987c0.363,0.182,0.441,0.234,0.441,0.389
					c0,0.234-0.156,0.312-0.545,0.312c-0.286,0-0.545-0.052-0.831-0.13c0,0-0.13,0.779-0.13,0.805
					c0.208,0.052,0.389,0.078,0.961,0.104c0.987,0,1.428-0.363,1.428-1.168c0-0.493-0.182-0.779-0.649-0.987
					c-0.389-0.182-0.441-0.208-0.441-0.389c0-0.182,0.156-0.286,0.467-0.286c0.182,0,0.441,0.026,0.675,0.052l0.13-0.831
					c-0.234-0.026-0.597-0.078-0.805-0.078C8.847,29.998,8.484,30.543,8.484,31.192z"/>
				<path fill="#003473" d="M19.413,30.076c0.26,0,0.493,0.078,0.831,0.234l0.156-0.935c-0.13-0.052-0.623-0.363-1.012-0.363
					c-0.623,0-1.142,0.312-1.506,0.805c-0.545-0.182-0.753,0.182-1.038,0.545l-0.234,0.052c0.026-0.13,0.026-0.234,0.026-0.363
					h-0.857c-0.104,1.09-0.312,2.207-0.493,3.297l-0.052,0.234h0.935c0.156-1.012,0.234-1.661,0.286-2.103l0.337-0.182
					c0.052-0.208,0.208-0.26,0.545-0.26c-0.052,0.234-0.078,0.467-0.078,0.727c0,1.142,0.623,1.869,1.636,1.869
					c0.26,0,0.467-0.026,0.831-0.13l0.156-0.987c-0.312,0.156-0.571,0.234-0.779,0.234c-0.545,0-0.857-0.389-0.857-1.064
					C18.245,30.751,18.712,30.076,19.413,30.076z"/>
				<path fill="#003473" d="M27.279,29.271l-0.208,1.246c-0.26-0.337-0.519-0.571-0.883-0.571c-0.467,0-0.883,0.363-1.168,0.883
					c-0.389-0.078-0.805-0.208-0.805-0.208l0,0c0.026-0.286,0.052-0.467,0.052-0.519h-0.857c-0.104,1.09-0.312,2.207-0.493,3.297
					l-0.052,0.234h0.935c0.13-0.805,0.234-1.48,0.286-2.025c0.312-0.286,0.467-0.545,0.805-0.519
					c-0.156,0.337-0.234,0.727-0.234,1.142c0,0.883,0.441,1.454,1.116,1.454c0.337,0,0.597-0.13,0.857-0.389l-0.052,0.337h0.883
					l0.701-4.335C28.188,29.271,27.279,29.271,27.279,29.271z M26.111,32.776c-0.312,0-0.467-0.234-0.467-0.701
					c0-0.701,0.312-1.194,0.727-1.194c0.312,0,0.493,0.234,0.493,0.701C26.864,32.282,26.553,32.776,26.111,32.776z"/>
			</g>
			<g>
				<polygon fill="#FFFFFF" points="5.239,33.347 4.304,33.347 4.849,29.998 3.655,33.347 3.032,33.347 2.954,30.024 2.383,33.347 
					1.526,33.347 2.227,29.011 3.577,29.011 3.603,31.685 4.512,29.011 5.966,29.011 				"/>
				<path fill="#FFFFFF" d="M7.523,31.763c-0.104,0-0.13-0.026-0.208-0.026c-0.519,0-0.805,0.182-0.805,0.545
					c0,0.208,0.13,0.363,0.337,0.363C7.238,32.646,7.523,32.282,7.523,31.763z M8.198,33.347c-0.13,0-0.779,0-0.779,0l0.026-0.363
					c-0.234,0.286-0.545,0.415-0.987,0.415c-0.493,0-0.857-0.389-0.857-0.961c0-0.857,0.597-1.35,1.636-1.35
					c0.104,0,0.234,0,0.389,0.026c0.026-0.13,0.026-0.156,0.026-0.234c0-0.234-0.156-0.312-0.597-0.312
					c-0.467,0-0.831,0.104-0.987,0.156c0-0.052,0.13-0.805,0.13-0.805c0.467-0.13,0.779-0.182,1.116-0.182
					c0.805,0,1.22,0.363,1.22,1.038c0,0.182-0.026,0.415-0.078,0.701C8.406,31.971,8.224,33.061,8.198,33.347z"/>
				<path fill="#FFFFFF" d="M20.659,29.115l-0.156,0.935c-0.337-0.156-0.571-0.234-0.831-0.234c-0.701,0-1.194,0.675-1.194,1.636
					c0,0.649,0.337,1.064,0.857,1.064c0.234,0,0.493-0.078,0.779-0.234l-0.156,0.987c-0.337,0.104-0.571,0.13-0.831,0.13
					c-1.012,0-1.636-0.727-1.636-1.869c0-1.558,0.857-2.648,2.103-2.648C20.036,28.882,20.53,29.063,20.659,29.115z"/>
				<path fill="#FFFFFF" d="M22.165,31.763c-0.104,0-0.13-0.026-0.208-0.026c-0.519,0-0.805,0.182-0.805,0.545
					c0,0.208,0.13,0.363,0.337,0.363C21.88,32.646,22.139,32.282,22.165,31.763z M22.84,33.347c-0.13,0-0.779,0-0.779,0l0.026-0.363
					c-0.234,0.286-0.545,0.415-0.987,0.415c-0.493,0-0.857-0.389-0.857-0.961c0-0.857,0.597-1.35,1.636-1.35
					c0.104,0,0.234,0,0.389,0.026c0.026-0.13,0.026-0.156,0.026-0.234c0-0.234-0.156-0.312-0.597-0.312
					c-0.467,0-0.831,0.104-0.987,0.156c0-0.052,0.13-0.805,0.13-0.805c0.467-0.13,0.779-0.182,1.116-0.182
					c0.805,0,1.22,0.363,1.22,1.038c0,0.182-0.026,0.415-0.078,0.701C23.022,31.971,22.866,33.061,22.84,33.347z"/>
				<path fill="#FFFFFF" d="M12.326,33.295c-0.26,0.078-0.441,0.104-0.675,0.104c-0.467,0-0.727-0.26-0.727-0.779
					c0-0.156,0.078-0.571,0.13-0.935c0.052-0.337,0.415-2.414,0.415-2.414h0.935L12.3,29.816h0.441l-0.13,0.857h-0.467
					c-0.104,0.675-0.26,1.506-0.26,1.61c0,0.182,0.104,0.26,0.312,0.26c0.104,0,0.182,0,0.26-0.026L12.326,33.295z"/>
				<path fill="#FFFFFF" d="M15.156,33.269c-0.312,0.104-0.623,0.156-0.935,0.13c-1.038,0-1.584-0.545-1.584-1.584
					c0-1.194,0.675-2.103,1.61-2.103c0.753,0,1.246,0.493,1.246,1.272c0,0.26-0.026,0.519-0.104,0.857h-1.843
					c-0.052,0.519,0.26,0.727,0.805,0.727c0.337,0,0.623-0.078,0.961-0.234L15.156,33.269z M14.637,31.166
					c0-0.078,0.104-0.623-0.441-0.623c-0.286,0-0.493,0.234-0.597,0.623H14.637z"/>
				<path fill="#FFFFFF" d="M8.769,30.932c0,0.441,0.208,0.753,0.701,0.987c0.363,0.182,0.441,0.234,0.441,0.389
					c0,0.208-0.156,0.312-0.545,0.312c-0.286,0-0.545-0.052-0.831-0.13c0,0-0.13,0.779-0.13,0.805
					c0.208,0.052,0.389,0.078,0.961,0.104c0.987,0,1.428-0.363,1.428-1.168c0-0.493-0.182-0.779-0.649-0.987
					c-0.389-0.182-0.441-0.208-0.441-0.389c0-0.182,0.156-0.286,0.467-0.286c0.182,0,0.441,0.026,0.675,0.052l0.13-0.805
					c-0.234-0.026-0.597-0.078-0.805-0.078C9.107,29.738,8.743,30.283,8.769,30.932z"/>
				<path fill="#FFFFFF" d="M27.747,33.347h-0.883l0.052-0.337c-0.26,0.26-0.519,0.389-0.857,0.389
					c-0.675,0-1.116-0.571-1.116-1.454c0-1.168,0.701-2.155,1.506-2.155c0.363,0,0.623,0.156,0.883,0.493l0.208-1.246h0.909
					L27.747,33.347z M26.371,32.516c0.441,0,0.727-0.493,0.727-1.194c0-0.441-0.182-0.701-0.493-0.701
					c-0.415,0-0.727,0.493-0.727,1.194C25.904,32.282,26.059,32.516,26.371,32.516z"/>
				<path fill="#FFFFFF" d="M23.671,29.816c-0.104,1.09-0.312,2.207-0.493,3.297l-0.052,0.234h0.935
					c0.337-2.155,0.415-2.57,0.935-2.518c0.078-0.441,0.234-0.831,0.363-1.012c-0.389-0.078-0.597,0.13-0.883,0.545
					c0.026-0.182,0.052-0.363,0.052-0.545C24.528,29.816,23.671,29.816,23.671,29.816z"/>
				<path fill="#FFFFFF" d="M16.038,29.816c-0.13,1.09-0.312,2.207-0.493,3.297l-0.052,0.234h0.935
					c0.337-2.155,0.415-2.57,0.935-2.518c0.078-0.441,0.234-0.831,0.363-1.012c-0.389-0.078-0.597,0.13-0.883,0.545
					c0.026-0.182,0.052-0.363,0.052-0.545C16.869,29.816,16.038,29.816,16.038,29.816z"/>
				<g>
					<path fill="#FFFFFF" d="M28.162,33.061c0-0.156,0.13-0.286,0.286-0.286c0.156,0,0.286,0.13,0.286,0.286
						c0,0.156-0.13,0.286-0.286,0.286C28.292,33.347,28.162,33.217,28.162,33.061z M28.448,33.269c0.13,0,0.208-0.104,0.208-0.208
						c0-0.104-0.104-0.208-0.208-0.208s-0.208,0.104-0.208,0.208C28.24,33.191,28.318,33.269,28.448,33.269z M28.396,33.191h-0.052
						v-0.234h0.104c0.026,0,0.052,0,0.052,0c0.026,0,0.026,0.026,0.026,0.052s-0.026,0.052-0.052,0.052l0.052,0.104h-0.052
						l-0.026-0.104h-0.052L28.396,33.191L28.396,33.191z M28.396,33.035h0.026h0.026l0.026-0.026c0,0,0-0.026-0.026-0.026h-0.026
						h-0.026V33.035L28.396,33.035z"/>
				</g>
			</g>
		</g>
	</g>
</g>
<g id="Amex">
	<g>
		
			<radialGradient id="SVGID_3_" cx="-421.043" cy="629.9882" r="4.1445" gradientTransform="matrix(6.7701 0 0 -4.4563 2855.8599 2852.8921)" gradientUnits="userSpaceOnUse">
			<stop  offset="0" style="stop-color:#9FD4F3"/>
			<stop  offset="0.0711" style="stop-color:#99D2F2"/>
			<stop  offset="0.1575" style="stop-color:#8BCDF1"/>
			<stop  offset="0.2516" style="stop-color:#71C6EF"/>
			<stop  offset="0.3514" style="stop-color:#51BCEA"/>
			<stop  offset="0.4546" style="stop-color:#21ADE4"/>
			<stop  offset="0.5" style="stop-color:#1AA6DF"/>
			<stop  offset="1" style="stop-color:#3078BC"/>
		</radialGradient>
		<path fill="url(#SVGID_3_)" d="M29.971,42.062H0.062v19.763h29.908v-6.52c0.117-0.102,0.194-0.256,0.194-0.435
			c0-0.205-0.039-0.332-0.194-0.435"/>
		<path fill="#FFFFFF" d="M2.771,49.033l-0.58-1.393l-0.58,1.393 M15.387,48.491c-0.116,0.077-0.232,0.077-0.426,0.077h-1.006
			v-0.774H15c0.155,0,0.31,0,0.387,0.077c0.116,0.039,0.193,0.155,0.193,0.31C15.542,48.297,15.504,48.413,15.387,48.491z
			 M22.624,49.033l-0.58-1.393l-0.58,1.393H22.624z M9.118,50.542H8.267v-2.748l-1.2,2.748H6.332l-1.2-2.748v2.748H3.429
			l-0.31-0.774H1.378l-0.31,0.774H0.062l1.509-3.522H2.81l1.432,3.328V47.02h1.354l1.084,2.361l1.006-2.361h1.432V50.542
			L9.118,50.542z M12.524,50.542H9.737V47.02h2.786v0.735H10.55v0.619h1.896v0.735H10.55v0.697h1.974V50.542z M16.471,47.988
			c0,0.542-0.387,0.851-0.58,0.929c0.193,0.077,0.348,0.193,0.426,0.31c0.116,0.155,0.155,0.348,0.155,0.658v0.697H15.62v-0.426
			c0-0.193,0.039-0.503-0.116-0.697c-0.116-0.116-0.31-0.155-0.619-0.155h-0.89v1.277h-0.851v-3.522h1.935
			c0.426,0,0.735,0,1.006,0.155C16.316,47.368,16.471,47.601,16.471,47.988z M17.825,50.542h-0.851V47.02h0.851V50.542z
			 M27.733,50.542h-1.2l-1.587-2.632v2.632h-1.703l-0.31-0.774h-1.741l-0.31,0.774h-0.967c-0.426,0-0.929-0.077-1.2-0.387
			c-0.31-0.31-0.426-0.697-0.426-1.354c0-0.503,0.077-1.006,0.464-1.354c0.271-0.271,0.697-0.426,1.277-0.426h0.813v0.735H20.07
			c-0.31,0-0.464,0.039-0.658,0.193c-0.155,0.155-0.232,0.426-0.232,0.813s0.077,0.658,0.232,0.813
			c0.116,0.155,0.348,0.193,0.58,0.193h0.387l1.2-2.748h1.238l1.432,3.328V47.02h1.277l1.471,2.438V47.02h0.851L27.733,50.542
			L27.733,50.542z M0.062,51.238h1.432l0.31-0.774h0.735l0.31,0.774h2.825v-0.58l0.271,0.58h1.471l0.271-0.619v0.619h7.005v-1.277
			h0.155c0.077,0,0.116,0,0.116,0.155v1.122h3.599v-0.31c0.31,0.155,0.735,0.31,1.354,0.31h1.509l0.31-0.774h0.735l0.31,0.774h2.941
			v-0.735l0.426,0.735h2.322v-4.876h-2.322v0.58l-0.31-0.58h-2.399v0.58l-0.31-0.58h-3.212c-0.542,0-1.006,0.077-1.393,0.271v-0.271
			h-2.206v0.271c-0.232-0.232-0.58-0.271-0.929-0.271H7.261l-0.542,1.277l-0.542-1.277H3.623v0.58l-0.271-0.58H1.185l-1.006,2.322
			L0.062,51.238L0.062,51.238z"/>
		<path fill="#FFFFFF" d="M29.861,53.831h-1.509c-0.155,0-0.271,0-0.348,0.077c-0.077,0.039-0.116,0.155-0.116,0.271
			s0.077,0.232,0.193,0.271c0.077,0.039,0.193,0.039,0.31,0.039h0.464c0.464,0,0.774,0.077,0.967,0.271
			c0.039,0.039,0.039,0.039,0.077,0.077 M29.861,56.115c-0.193,0.31-0.58,0.464-1.122,0.464h-1.625v-0.735h1.625
			c0.155,0,0.271-0.039,0.348-0.077c0.039-0.039,0.116-0.116,0.116-0.232s-0.039-0.193-0.116-0.232
			c-0.077-0.039-0.155-0.077-0.31-0.077c-0.774-0.039-1.78,0.039-1.78-1.084c0-0.503,0.31-1.045,1.2-1.045h1.664v-0.697h-1.548
			c-0.464,0-0.813,0.116-1.045,0.271v-0.271h-2.283c-0.348,0-0.813,0.077-1.006,0.271v-0.271h-4.102v0.271
			c-0.31-0.232-0.89-0.271-1.122-0.271h-2.709v0.271c-0.271-0.232-0.813-0.271-1.2-0.271h-3.019l-0.697,0.735l-0.658-0.735H5.983
			v4.876h4.412l0.697-0.774l0.658,0.774h2.748v-1.161h0.271c0.348,0,0.774,0,1.161-0.155v1.316h2.245v-1.277h0.116
			c0.155,0,0.155,0,0.155,0.155v1.122h6.85c0.426,0,0.89-0.116,1.122-0.31v0.31h2.167c0.464,0,0.89-0.077,1.238-0.232L29.861,56.115
			L29.861,56.115z M26.533,54.721c0.155,0.155,0.232,0.387,0.232,0.735c0,0.735-0.464,1.122-1.316,1.122h-1.625v-0.735h1.625
			c0.155,0,0.271-0.039,0.348-0.077c0.039-0.039,0.116-0.116,0.116-0.232s-0.039-0.193-0.116-0.232
			c-0.077-0.039-0.155-0.077-0.31-0.077c-0.774-0.039-1.78,0.039-1.78-1.084c0-0.503,0.31-1.045,1.2-1.045h1.664v0.735h-1.548
			c-0.155,0-0.271,0-0.348,0.077c-0.077,0.039-0.116,0.155-0.116,0.271c0,0.116,0.077,0.232,0.193,0.271
			c0.077,0.039,0.193,0.039,0.31,0.039h0.464C26.03,54.45,26.339,54.528,26.533,54.721z M18.948,54.528
			c-0.116,0.077-0.232,0.077-0.426,0.077h-1.006v-0.774h1.045c0.155,0,0.31,0,0.387,0.077c0.116,0.039,0.155,0.155,0.155,0.31
			C19.103,54.373,19.064,54.45,18.948,54.528z M19.49,54.954c0.193,0.077,0.348,0.193,0.426,0.31
			c0.116,0.155,0.155,0.348,0.155,0.658v0.697h-0.89v-0.426c0-0.193,0.039-0.542-0.116-0.697c-0.116-0.116-0.31-0.155-0.619-0.155
			h-0.89v1.277h-0.851v-3.522h1.935c0.426,0,0.735,0,1.006,0.155c0.271,0.155,0.426,0.387,0.426,0.774
			C20.07,54.567,19.683,54.876,19.49,54.954z M20.534,53.057h2.786v0.735h-1.974v0.619h1.896v0.697h-1.896v0.697h1.974v0.735h-2.786
			C20.534,56.54,20.534,53.057,20.534,53.057z M14.884,54.683h-1.084v-0.89h1.084c0.31,0,0.503,0.116,0.503,0.426
			C15.387,54.528,15.194,54.683,14.884,54.683z M12.949,56.269l-1.277-1.432l1.277-1.393V56.269z M9.66,55.844H7.57v-0.697h1.858
			V54.45H7.57v-0.619h2.09l0.929,1.006L9.66,55.844z M16.316,54.218c0,0.967-0.735,1.161-1.471,1.161h-1.045v1.161h-1.625
			l-1.045-1.161l-1.084,1.161H6.719v-3.522h3.367l1.045,1.161l1.045-1.161h2.67C15.542,53.057,16.316,53.251,16.316,54.218z"/>
	</g>
</g>
<g id="Discover">
	<rect y="63" fill="#FFFFFF" width="30" height="20"/>
	<g>
		<path fill="#F58220" d="M29.962,74.105c0,0-8.176,5.974-23.183,8.658h23.183V74.105z"/>
		<path fill="#231F20" d="M30.064,63H0v20h30.165V63H30.064z M30,63.237c0,0.211,0,19.316,0,19.553c-0.229,0-29.568,0-29.771,0
			c0-0.211,0-19.316,0-19.553C0.432,63.237,29.771,63.237,30,63.237z"/>
		<path fill="#E83530" d="M28.536,78.848"/>
		
			<radialGradient id="SVGID_4_" cx="-276.5893" cy="-856.4518" r="0.3798" gradientTransform="matrix(6.1235 0 0 6.1235 1709.501 5315.6548)" gradientUnits="userSpaceOnUse">
			<stop  offset="0.0056" style="stop-color:#FFEFE1"/>
			<stop  offset="0.1092" style="stop-color:#FFEAD8"/>
			<stop  offset="0.2782" style="stop-color:#FDDCC0"/>
			<stop  offset="0.4917" style="stop-color:#FBC698"/>
			<stop  offset="0.7412" style="stop-color:#F8A761"/>
			<stop  offset="1" style="stop-color:#F58220"/>
		</radialGradient>
		<path fill="url(#SVGID_4_)" d="M15.811,68.835c-1.29,0-2.365,1.021-2.365,2.284c0,1.343,1.021,2.338,2.365,2.338
			c1.317,0,2.338-1.021,2.338-2.311C18.149,69.829,17.128,68.835,15.811,68.835z"/>
		<path fill="#001722" d="M2.43,68.915H1.167v4.407h1.236c0.672,0,1.155-0.161,1.585-0.511c0.511-0.43,0.806-1.048,0.806-1.693
			C4.795,69.829,3.828,68.915,2.43,68.915z M3.425,72.247c-0.269,0.242-0.618,0.349-1.182,0.349H2v-2.929h0.242
			c0.564,0,0.887,0.107,1.182,0.349c0.296,0.269,0.484,0.672,0.484,1.102C3.908,71.548,3.72,71.978,3.425,72.247z"/>
		<rect x="5.198" y="68.915" fill="#001722" width="0.86" height="4.407"/>
		<path fill="#001722" d="M8.154,70.608c-0.511-0.188-0.672-0.322-0.672-0.564c0-0.269,0.269-0.484,0.645-0.484
			c0.269,0,0.484,0.107,0.699,0.349l0.457-0.591c-0.376-0.322-0.806-0.484-1.29-0.484c-0.779,0-1.37,0.537-1.37,1.263
			c0,0.618,0.269,0.914,1.075,1.209c0.349,0.107,0.511,0.188,0.591,0.242c0.161,0.107,0.269,0.269,0.269,0.457
			c0,0.349-0.296,0.618-0.672,0.618c-0.403,0-0.752-0.215-0.94-0.591L6.38,72.569c0.403,0.591,0.887,0.833,1.532,0.833
			c0.887,0,1.532-0.591,1.532-1.451C9.443,71.28,9.148,70.957,8.154,70.608z"/>
		<path fill="#001722" d="M9.712,71.118c0,1.29,1.021,2.311,2.338,2.311c0.376,0,0.699-0.081,1.075-0.269v-1.021
			c-0.349,0.349-0.645,0.484-1.048,0.484c-0.86,0-1.478-0.618-1.478-1.532c0-0.86,0.645-1.505,1.451-1.505
			c0.403,0,0.725,0.134,1.075,0.511v-1.021c-0.376-0.188-0.699-0.269-1.048-0.269C10.76,68.808,9.712,69.829,9.712,71.118z"/>
		<polygon fill="#001722" points="20.11,71.871 18.928,68.915 17.988,68.915 19.869,73.456 20.325,73.456 22.233,68.915 
			21.293,68.915 		"/>
		<polygon fill="#001722" points="22.609,73.322 25.054,73.322 25.054,72.596 23.469,72.596 23.469,71.387 25.001,71.387 
			25.001,70.635 23.469,70.635 23.469,69.668 25.054,69.668 25.054,68.915 22.609,68.915 		"/>
		<path fill="#001722" d="M28.467,70.232c0-0.833-0.564-1.317-1.558-1.317h-1.29v4.407h0.86v-1.773h0.107l1.182,1.773h1.048
			l-1.397-1.854C28.118,71.333,28.467,70.904,28.467,70.232z M26.747,70.957h-0.242v-1.343h0.269c0.537,0,0.833,0.215,0.833,0.645
			C27.58,70.715,27.311,70.957,26.747,70.957z"/>
		<path fill="#231F20" d="M29.085,69.238c0-0.081-0.054-0.107-0.134-0.107h-0.134v0.376h0.081v-0.161l0.107,0.161h0.107
			l-0.134-0.161C29.058,69.345,29.085,69.291,29.085,69.238z M28.924,69.291L28.924,69.291l-0.027-0.107h0.027
			c0.054,0,0.081,0.027,0.081,0.054C29.004,69.291,28.977,69.291,28.924,69.291z"/>
		<path fill="#231F20" d="M28.951,68.969c-0.188,0-0.349,0.161-0.349,0.349c0,0.188,0.161,0.349,0.349,0.349
			c0.188,0,0.349-0.161,0.349-0.349C29.3,69.13,29.139,68.969,28.951,68.969z M28.951,69.587c-0.161,0-0.269-0.134-0.269-0.269
			c0-0.161,0.107-0.269,0.269-0.269c0.134,0,0.269,0.134,0.269,0.269C29.219,69.479,29.112,69.587,28.951,69.587z"/>
		<path fill="#231F20" d="M8.879,74.504l1.155,1.209v-1.155h0.161v1.532L9.04,74.88v1.129H8.879
			C8.879,76.009,8.879,74.504,8.879,74.504z"/>
		<path fill="#231F20" d="M8.852,74.504v1.558H9.04c0,0,0-1.048,0-1.129c0.054,0.054,1.155,1.209,1.155,1.209v-1.612h-0.188
			c0,0,0,1.048,0,1.129c-0.054-0.054-1.155-1.209-1.155-1.209V74.504L8.852,74.504z M8.906,74.531
			c0.054,0.054,1.155,1.209,1.155,1.209s0-1.129,0-1.182c0.027,0,0.107,0,0.134,0c0,0.027,0,1.424,0,1.505
			c-0.054-0.054-1.155-1.209-1.155-1.209s0,1.129,0,1.155c-0.027,0-0.107,0-0.134,0C8.906,75.982,8.906,74.611,8.906,74.531z"/>
		<path fill="#231F20" d="M11.002,74.558h0.779v0.161H11.19v0.43h0.591v0.161H11.19v0.591h0.591v0.161h-0.779V74.558z"/>
		<path fill="#231F20" d="M11.754,74.531h-0.779v1.505h0.806v-0.161c0,0-0.564,0-0.591,0c0-0.027,0-0.511,0-0.537
			c0.027,0,0.591,0,0.591,0v-0.188c0,0-0.564,0-0.591,0c0-0.027,0-0.376,0-0.403c0.027,0,0.591,0,0.591,0L11.754,74.531
			L11.754,74.531z M11.754,74.585c0,0.027,0,0.107,0,0.134c-0.027,0-0.591,0-0.591,0v0.484c0,0,0.564,0,0.591,0
			c0,0.027,0,0.107,0,0.134c-0.027,0-0.591,0-0.591,0v0.618c0,0,0.564,0,0.591,0c0,0.027,0,0.107,0,0.134c-0.027,0-0.699,0-0.725,0
			c0-0.027,0-1.424,0-1.451C11.029,74.585,11.727,74.585,11.754,74.585z"/>
		<path fill="#231F20" d="M12.936,76.036h-0.161v-1.317h-0.349v-0.161h0.887v0.161h-0.349v1.317H12.936z"/>
		<path fill="#231F20" d="M13.286,74.531h-0.887v0.188c0,0,0.322,0,0.349,0c0,0.027,0,1.317,0,1.317h0.188c0,0,0-1.29,0-1.317
			c0.027,0,0.349,0,0.349,0V74.531L13.286,74.531z M13.259,74.585c0,0.027,0,0.107,0,0.134c-0.027,0-0.349,0-0.349,0s0,1.29,0,1.317
			c-0.027,0-0.107,0-0.134,0c0-0.027,0-1.317,0-1.317s-0.322,0-0.349,0c0-0.027,0-0.107,0-0.134
			C12.453,74.585,13.232,74.585,13.259,74.585z"/>
		<path fill="#231F20" d="M14.387,75.659l0.484-1.182l0.484,1.182l0.376-1.102h0.188l-0.564,1.558l-0.484-1.182l-0.484,1.182
			l-0.564-1.558h0.188L14.387,75.659z"/>
		<path fill="#231F20" d="M14.844,74.477c0,0-0.43,1.075-0.457,1.155c-0.027-0.081-0.376-1.075-0.376-1.075h-0.215l0.591,1.612
			c0,0,0.457-1.129,0.484-1.182c0.027,0.081,0.484,1.182,0.484,1.182l0.591-1.612h-0.215c0,0-0.349,1.021-0.376,1.075
			c-0.027-0.081-0.484-1.182-0.484-1.182L14.844,74.477z M14.414,75.659c0,0,0.43-1.075,0.457-1.155
			c0.027,0.054,0.484,1.182,0.484,1.182l0.403-1.129c0.027,0,0.107,0,0.134,0c-0.027,0.027-0.511,1.424-0.537,1.505
			c-0.027-0.081-0.484-1.182-0.484-1.182s-0.457,1.129-0.484,1.182c-0.027-0.081-0.537-1.451-0.537-1.505c0.027,0,0.134,0,0.134,0
			c0,0.027,0.403,1.129,0.403,1.129L14.414,75.659z"/>
		<path fill="#231F20" d="M18.042,75.31c0,0.43-0.349,0.752-0.779,0.752c-0.43,0-0.779-0.349-0.779-0.752
			c0-0.43,0.349-0.779,0.779-0.779S18.042,74.88,18.042,75.31z M16.671,75.31c0,0.322,0.269,0.618,0.618,0.618
			c0.322,0,0.618-0.269,0.618-0.618c0-0.322-0.269-0.618-0.618-0.618C16.94,74.692,16.671,74.961,16.671,75.31z"/>
		<path fill="#231F20" d="M16.483,75.31c0,0.43,0.349,0.779,0.779,0.779s0.779-0.349,0.779-0.779c0-0.43-0.349-0.779-0.779-0.779
			C16.832,74.531,16.483,74.88,16.483,75.31z M16.51,75.31c0-0.403,0.349-0.752,0.752-0.752s0.752,0.349,0.752,0.752
			c0,0.403-0.349,0.752-0.752,0.752C16.859,76.036,16.51,75.713,16.51,75.31z"/>
		<path fill="#231F20" d="M16.644,75.31c0,0.349,0.269,0.618,0.618,0.618c0.349,0,0.618-0.269,0.618-0.618
			c0-0.349-0.269-0.618-0.618-0.618C16.94,74.665,16.644,74.961,16.644,75.31z M16.671,75.31c0-0.322,0.269-0.591,0.591-0.591
			c0.322,0,0.591,0.269,0.591,0.591c0,0.322-0.269,0.591-0.591,0.591C16.94,75.901,16.671,75.633,16.671,75.31z"/>
		<path fill="#231F20" d="M18.928,76.036h-0.161v-1.478h0.215c0.269,0,0.537,0.081,0.537,0.403c0,0.215-0.134,0.376-0.376,0.403
			l0.457,0.672h-0.215l-0.457-0.645h-0.054L18.928,76.036L18.928,76.036z M18.928,75.229h0.054c0.188,0,0.376-0.027,0.376-0.269
			c0-0.242-0.188-0.269-0.376-0.269h-0.054V75.229L18.928,75.229z"/>
		<path fill="#231F20" d="M18.767,74.531L18.767,74.531l-0.027,1.505h0.188c0,0,0-0.618,0-0.645h0.027l0,0l0.43,0.645H19.6h0.027
			c0,0-0.457-0.645-0.484-0.672c0.215-0.027,0.349-0.188,0.349-0.43c0-0.296-0.188-0.43-0.564-0.43
			C18.982,74.531,18.767,74.531,18.767,74.531z M18.982,74.585c0.349,0,0.537,0.134,0.537,0.403c0,0.215-0.134,0.376-0.349,0.403
			h-0.027c0,0,0.43,0.618,0.457,0.672c-0.054,0-0.161,0-0.161,0l0,0l-0.43-0.645h-0.054h-0.027c0,0,0,0.618,0,0.645
			c-0.027,0-0.107,0-0.134,0c0-0.027,0-1.424,0-1.451C18.794,74.585,18.982,74.585,18.982,74.585z"/>
		<path fill="#231F20" d="M18.928,74.692L18.928,74.692l-0.027,0.564h0.054c0.188,0,0.376-0.027,0.376-0.269
			C19.331,74.719,19.116,74.692,18.928,74.692L18.928,74.692z M18.982,74.719c0.188,0,0.349,0.027,0.349,0.242
			c0,0.215-0.188,0.242-0.349,0.242h-0.027c0-0.027,0-0.484,0-0.511C18.955,74.719,18.982,74.719,18.982,74.719z"/>
		<path fill="#231F20" d="M21.105,74.558h0.215l-0.699,0.699l0.725,0.779h-0.215l-0.618-0.672l-0.027,0.027v0.645h-0.161v-1.478
			h0.161v0.645L21.105,74.558z"/>
		<path fill="#231F20" d="M21.32,74.531h-0.215c0,0-0.564,0.564-0.618,0.618c0-0.054,0-0.618,0-0.618h-0.188v1.505h0.188v-0.645
			c0,0,0.027,0,0.027-0.027c0.027,0.027,0.591,0.672,0.591,0.672h0.242h0.027c0,0-0.699-0.779-0.725-0.806
			c0.027-0.027,0.699-0.699,0.699-0.699H21.32z M21.293,74.585c-0.054,0.054-0.672,0.672-0.672,0.672s0.672,0.725,0.699,0.779
			c-0.054,0-0.188,0-0.188,0l0,0l-0.591-0.672l0,0l-0.054,0.054c0,0,0,0.591,0,0.645c-0.027,0-0.107,0-0.134,0
			c0-0.027,0-1.424,0-1.451c0.027,0,0.107,0,0.134,0c0,0.027,0,0.645,0,0.645l0.645-0.645
			C21.131,74.585,21.239,74.585,21.293,74.585z"/>
	</g>
</g>
<g id="Paypal">
	<g>
		
			<linearGradient id="SVGID_5_" gradientUnits="userSpaceOnUse" x1="-270.3035" y1="-368.2038" x2="-270.3035" y2="-365.0193" gradientTransform="matrix(6.1235 0 0 6.1235 1670.212 2339.0823)">
			<stop  offset="0" style="stop-color:#FFFFFF"/>
			<stop  offset="0.3204" style="stop-color:#FFF7E7"/>
			<stop  offset="0.7453" style="stop-color:#FEEDCE"/>
			<stop  offset="1" style="stop-color:#FEEAC4"/>
		</linearGradient>
		<rect x="0.307" y="84.375" fill="url(#SVGID_5_)" width="29.386" height="19.5"/>
		<path fill="#FBB15F" d="M29.443,84.625v19H0.557v-19H29.443 M29.943,84.125H0.057v20h29.886V84.125L29.943,84.125z"/>
	</g>
	<g>
		<path fill="#1C3665" d="M27.355,91.273V90.43h-0.316v-0.105h0.738v0.105H27.46v0.843H27.355L27.355,91.273z"/>
		<path fill="#1C3665" d="M27.908,91.273v-0.949h0.184l0.237,0.659c0.026,0.053,0.026,0.105,0.053,0.132
			c0-0.026,0.026-0.079,0.053-0.158l0.237-0.659h0.158v0.949h-0.132v-0.791l-0.29,0.791h-0.105l-0.264-0.791v0.791
			C28.04,91.273,27.908,91.273,27.908,91.273z"/>
	</g>
	<g>
		<path fill="#34679A" d="M18.765,93.645c-0.237,0.158-0.553,0.264-0.975,0.264h-0.211c-0.158,0-0.264-0.132-0.237-0.29l0.237-1.001
			c0.026-0.158,0.211-0.29,0.369-0.29h0.264c0.29,0,0.527,0.053,0.685,0.158c0.158,0.105,0.237,0.264,0.237,0.474
			C19.107,93.223,18.975,93.461,18.765,93.645z M20.451,92.09c-0.105-0.184-0.237-0.343-0.422-0.448
			c-0.184-0.132-0.422-0.211-0.685-0.237c-0.264-0.053-0.58-0.079-0.922-0.079h-1.634c-0.158,0-0.343,0.132-0.369,0.29l-1.107,4.769
			c-0.026,0.158,0.079,0.29,0.237,0.29h0.791c0.158,0,0.343-0.132,0.369-0.29l0.264-1.159c0.026-0.158,0.211-0.29,0.369-0.29h0.237
			c0.949,0,1.686-0.184,2.24-0.58c0.527-0.395,0.791-0.896,0.791-1.555C20.583,92.512,20.53,92.275,20.451,92.09"/>
		<path fill="#34679A" d="M22.823,95.621c-0.132,0.079-0.264,0.158-0.422,0.237c-0.132,0.053-0.29,0.079-0.395,0.079
			c-0.184,0-0.343-0.026-0.448-0.079c-0.105-0.053-0.158-0.158-0.158-0.29c0-0.158,0.026-0.29,0.105-0.369
			c0.079-0.105,0.184-0.158,0.343-0.211c0.132-0.053,0.316-0.079,0.501-0.105c0.211-0.026,0.422-0.053,0.659-0.079L22.823,95.621z
			 M22.585,96.675h0.975c0.158,0,0.343-0.132,0.369-0.29l0.58-2.451c0.026-0.053,0.026-0.132,0.026-0.211s0-0.132,0-0.184
			c0-0.343-0.158-0.606-0.448-0.764c-0.29-0.158-0.764-0.237-1.397-0.237c-0.316,0-0.632,0.026-0.949,0.079
			c-0.316,0.053-0.553,0.079-0.711,0.132l-0.132,0.659c-0.026,0.158,0,0.29,0.053,0.29c0.132-0.053,0.316-0.105,0.58-0.184
			c0.264-0.079,0.501-0.105,0.711-0.105c0.316,0,0.553,0.026,0.711,0.105c0.158,0.079,0.237,0.184,0.237,0.343
			c0,0.053,0,0.079,0,0.105c0,0.026-0.026,0.053-0.026,0.079c-0.448,0.026-0.87,0.079-1.238,0.132
			c-0.395,0.053-0.711,0.158-1.001,0.264c-0.29,0.132-0.527,0.316-0.659,0.527c-0.158,0.211-0.237,0.501-0.237,0.817
			c0,0.29,0.105,0.553,0.316,0.738c0.211,0.184,0.474,0.29,0.817,0.29c0.211,0,0.369-0.026,0.501-0.053
			c0.105-0.026,0.237-0.079,0.369-0.132c0.105-0.053,0.211-0.105,0.316-0.184c0.105-0.079,0.211-0.132,0.29-0.184L22.585,96.675"/>
		<path fill="#34679A" d="M27.039,91.353l-1.107,5.033c-0.026,0.158-0.211,0.29-0.369,0.29h-0.685c-0.158,0-0.264-0.132-0.237-0.29
			l1.054-4.743c0.026-0.158,0.211-0.29,0.369-0.29H27.039"/>
		<path fill="#1C3665" d="M4.983,93.645c-0.237,0.184-0.553,0.264-0.975,0.264H3.824c-0.158,0-0.264-0.132-0.237-0.29l0.237-1.001
			c0.026-0.158,0.211-0.29,0.369-0.29h0.264c0.29,0,0.527,0.053,0.685,0.158c0.158,0.105,0.237,0.264,0.237,0.474
			C5.326,93.25,5.22,93.487,4.983,93.645z M6.67,92.09c-0.105-0.184-0.237-0.343-0.422-0.448c-0.184-0.105-0.422-0.211-0.685-0.237
			c-0.264-0.053-0.58-0.079-0.922-0.079H3.007c-0.158,0-0.343,0.132-0.369,0.29l-1.107,4.769c-0.026,0.158,0.079,0.29,0.237,0.29
			h0.791c0.158,0,0.343-0.132,0.369-0.29l0.264-1.159c0.026-0.158,0.211-0.29,0.369-0.29h0.237c0.949,0,1.686-0.184,2.24-0.58
			c0.527-0.395,0.791-0.896,0.791-1.555C6.801,92.512,6.775,92.275,6.67,92.09"/>
		<path fill="#1C3665" d="M9.041,95.621c-0.132,0.079-0.264,0.158-0.395,0.237c-0.158,0.053-0.29,0.079-0.395,0.079
			c-0.184,0-0.343-0.026-0.448-0.079s-0.158-0.158-0.158-0.29c0-0.158,0.026-0.29,0.105-0.369c0.079-0.105,0.184-0.158,0.343-0.211
			c0.132-0.053,0.316-0.079,0.501-0.105c0.211-0.026,0.422-0.053,0.659-0.079L9.041,95.621z M8.804,96.675h0.975
			c0.158,0,0.343-0.132,0.369-0.29l0.58-2.451c0.026-0.053,0.026-0.132,0.026-0.211s0.026-0.132,0.026-0.184
			c0-0.343-0.158-0.606-0.448-0.764c-0.29-0.158-0.764-0.237-1.397-0.237c-0.316,0-0.632,0.026-0.949,0.079
			c-0.316,0.053-0.553,0.105-0.711,0.132l-0.132,0.659c-0.026,0.158,0,0.29,0.053,0.29c0.132-0.053,0.316-0.105,0.58-0.184
			c0.264-0.079,0.501-0.105,0.711-0.105c0.316,0,0.553,0.026,0.711,0.105c0.158,0.079,0.237,0.184,0.237,0.343
			c0,0.053,0,0.079,0,0.105c0,0.026-0.026,0.053-0.026,0.079c-0.448,0.026-0.87,0.079-1.238,0.132
			C7.776,94.225,7.46,94.33,7.17,94.436c-0.29,0.132-0.527,0.316-0.659,0.527c-0.158,0.211-0.237,0.501-0.237,0.817
			c0,0.29,0.105,0.553,0.316,0.738c0.211,0.184,0.474,0.29,0.817,0.29c0.211,0,0.369-0.026,0.501-0.053
			c0.132-0.026,0.237-0.079,0.369-0.132c0.105-0.053,0.211-0.105,0.316-0.184s0.211-0.132,0.29-0.184L8.804,96.675"/>
		<path fill="#1C3665" d="M14.759,92.512c-0.158,0-0.395,0.132-0.501,0.29l-1.37,2.372l-0.369-2.372
			c-0.026-0.158-0.211-0.29-0.369-0.29h-0.685c-0.158,0-0.264,0.132-0.237,0.29l0.606,3.9c0,0.079,0.026,0.158,0.026,0.211
			l-0.764,1.265c-0.105,0.158-0.053,0.29,0.132,0.29h0.817c0.158,0,0.395-0.132,0.474-0.29l3.373-5.665L14.759,92.512L14.759,92.512
			z"/>
	</g>
</g>
</svg>
