<?xml version="1.0" encoding="utf-8"?>
<!-- Generator: Adobe Illustrator 17.1.0, SVG Export Plug-In . SVG Version: 6.00 Build 0)  -->
<!DOCTYPE svg PUBLIC "-//W3C//DTD SVG 1.1//EN" "http://www.w3.org/Graphics/SVG/1.1/DTD/svg11.dtd">
<svg version="1.1" id="Layer_1" xmlns="http://www.w3.org/2000/svg" xmlns:xlink="http://www.w3.org/1999/xlink" x="0px" y="0px"
	 viewBox="1.1 0 24.1 3" enable-background="new 1.1 0 24.1 3" xml:space="preserve">
<g id="Visa">
	
		<linearGradient id="SVGID_1_" gradientUnits="userSpaceOnUse" x1="-60.7217" y1="16" x2="-60.7217" y2="-4" gradientTransform="matrix(0.1531 0 0 -0.1531 12.7033 2.4498)">
		<stop  offset="0" style="stop-color:#F5FCFF"/>
		<stop  offset="1" style="stop-color:#CED4DB"/>
	</linearGradient>
	<rect x="1.1" y="0" fill="url(#SVGID_1_)" width="4.6" height="3.1"/>
	<g>
		<path fill="#0058A0" d="M2.4,0.9L2,1.8l0-0.2C1.9,1.4,1.8,1.2,1.5,1l0.3,1.2h0.4l0.6-1.4L2.4,0.9"/>
		<polyline fill="#0058A0" points="2.7,2.2 2.9,0.9 3.3,0.9 3,2.2 2.7,2.2 		"/>
		<path fill="#0058A0" d="M4.3,0.9C4.3,0.9,4.1,0.8,4,0.8C3.7,0.8,3.4,1,3.4,1.3c0,0.2,0.2,0.3,0.3,0.4c0.1,0.1,0.2,0.1,0.2,0.2
			C3.9,1.9,3.8,2,3.7,2C3.5,2,3.5,2,3.4,1.9l0,0L3.3,2.2c0.1,0,0.2,0.1,0.4,0.1c0.4,0,0.6-0.2,0.6-0.5c0-0.2-0.1-0.3-0.3-0.4
			C3.8,1.4,3.8,1.3,3.8,1.3c0-0.1,0.1-0.1,0.2-0.1c0.1,0,0.2,0,0.3,0.1l0,0L4.3,0.9"/>
		<path fill="#0058A0" d="M5.2,0.9H5c-0.1,0-0.1,0-0.2,0.1L4.2,2.2h0.4c0,0,0.1-0.2,0.1-0.2c0,0,0.4,0,0.5,0c0,0,0,0.2,0,0.2h0.3
			L5.2,0.9 M4.8,1.8c0-0.1,0.1-0.4,0.1-0.4c0,0,0-0.1,0-0.1l0,0.1c0,0,0.1,0.3,0.1,0.4C5,1.8,4.9,1.8,4.8,1.8z"/>
		<path fill="#FAA61A" d="M1.7,0.9H1.2l0,0C1.6,1,1.9,1.3,2,1.6L1.9,1C1.9,0.9,1.8,0.9,1.7,0.9z"/>
	</g>
</g>
<g id="Mastercard">
	
		<linearGradient id="SVGID_2_" gradientUnits="userSpaceOnUse" x1="-28.6097" y1="16" x2="-28.6097" y2="-4" gradientTransform="matrix(0.1531 0 0 -0.1531 12.7033 2.4498)">
		<stop  offset="0" style="stop-color:#30219E"/>
		<stop  offset="0.1416" style="stop-color:#281C86"/>
		<stop  offset="0.3171" style="stop-color:#21166F"/>
		<stop  offset="0.5068" style="stop-color:#1C135F"/>
		<stop  offset="0.719" style="stop-color:#191155"/>
		<stop  offset="1" style="stop-color:#181052"/>
	</linearGradient>
	<rect x="6" y="0" fill="url(#SVGID_2_)" width="4.6" height="3.1"/>
	<g>
		<g>
			<g>
				<circle fill="#ED1C2E" cx="7.4" cy="1.6" r="1.3"/>
				<g>
					<path fill="#FCB131" d="M9.2,0.2c-0.3,0-0.6,0.1-0.9,0.3c0,0-0.1,0.1-0.1,0.1h0.3c0,0,0.1,0.1,0.1,0.1H8.1C8.1,0.9,8,1,8,1h0.6
						c0,0,0,0.1,0.1,0.1H8c0,0,0,0.1,0,0.1h0.8c0,0.1,0,0.2,0,0.3c0,0.1,0,0.3-0.1,0.4H8C8,2,8,2.1,8,2.1h0.6c0,0,0,0.1-0.1,0.1H8.1
						c0,0,0.1,0.1,0.1,0.1h0.3c0,0-0.1,0.1-0.1,0.1c0.2,0.2,0.5,0.3,0.9,0.3c0.7,0,1.3-0.6,1.3-1.3C10.5,0.8,9.9,0.2,9.2,0.2z"/>
				</g>
			</g>
			<path fill="#FCB131" d="M10.3,2.3C10.3,2.3,10.4,2.2,10.3,2.3C10.4,2.2,10.4,2.3,10.3,2.3C10.4,2.3,10.4,2.3,10.3,2.3
				C10.4,2.3,10.3,2.3,10.3,2.3z M10.4,2.3C10.4,2.3,10.4,2.3,10.4,2.3C10.4,2.3,10.4,2.3,10.4,2.3C10.4,2.3,10.4,2.3,10.4,2.3
				C10.4,2.3,10.4,2.3,10.4,2.3z M10.4,2.3L10.4,2.3L10.4,2.3L10.4,2.3C10.4,2.3,10.4,2.3,10.4,2.3C10.4,2.3,10.4,2.3,10.4,2.3
				C10.4,2.3,10.4,2.3,10.4,2.3L10.4,2.3L10.4,2.3L10.4,2.3L10.4,2.3L10.4,2.3L10.4,2.3z M10.4,2.3L10.4,2.3L10.4,2.3L10.4,2.3
				C10.4,2.3,10.4,2.3,10.4,2.3L10.4,2.3L10.4,2.3L10.4,2.3z"/>
		</g>
		<g>
			<g>
				<path fill="#003473" d="M7.1,1.7C7.1,1.7,7.1,1.7,7.1,1.7C7,1.7,7,1.7,7,1.8c0,0,0,0.1,0.1,0.1C7.1,1.8,7.1,1.8,7.1,1.7z
					 M7.2,1.9c0,0-0.1,0-0.1,0l0-0.1c0,0-0.1,0.1-0.2,0.1c-0.1,0-0.1-0.1-0.1-0.1c0-0.1,0.1-0.2,0.3-0.2c0,0,0,0,0.1,0c0,0,0,0,0,0
					c0,0,0,0-0.1,0s-0.1,0-0.2,0c0,0,0-0.1,0-0.1c0.1,0,0.1,0,0.2,0c0.1,0,0.2,0.1,0.2,0.2c0,0,0,0.1,0,0.1C7.3,1.7,7.2,1.9,7.2,1.9
					z"/>
				<polygon fill="#003473" points="6.8,1.9 6.6,1.9 6.7,1.4 6.5,1.9 6.4,1.9 6.4,1.4 6.4,1.9 6.2,1.9 6.3,1.3 6.5,1.3 6.5,1.6 
					6.7,1.3 6.9,1.3 				"/>
				<path fill="#003473" d="M9.4,1.7C9.4,1.7,9.4,1.7,9.4,1.7c-0.1,0-0.2,0-0.2,0.1c0,0,0,0.1,0.1,0.1C9.3,1.8,9.4,1.8,9.4,1.7z
					 M9.5,1.9c0,0-0.1,0-0.1,0l0-0.1c0,0-0.1,0.1-0.1,0.1c-0.1,0-0.1-0.1-0.1-0.1c0-0.1,0.1-0.2,0.3-0.2c0,0,0,0,0.1,0c0,0,0,0,0,0
					c0,0,0,0-0.1,0c-0.1,0-0.1,0-0.2,0c0,0,0-0.1,0-0.1c0.1,0,0.1,0,0.2,0c0.1,0,0.2,0.1,0.2,0.2c0,0,0,0.1,0,0.1
					C9.5,1.7,9.5,1.9,9.5,1.9z"/>
				<path fill="#003473" d="M7.9,1.9c0,0-0.1,0-0.1,0c-0.1,0-0.1,0-0.1-0.1c0,0,0-0.1,0-0.1c0-0.1,0.1-0.4,0.1-0.4h0.1l0,0.1h0.1
					l0,0.1H7.8c0,0.1,0,0.2,0,0.2c0,0,0,0,0,0c0,0,0,0,0,0L7.9,1.9z"/>
				<path fill="#003473" d="M8.3,1.9c0,0-0.1,0-0.1,0C8,2,7.9,1.9,7.9,1.7c0-0.2,0.1-0.3,0.2-0.3c0.1,0,0.2,0.1,0.2,0.2
					c0,0,0,0.1,0,0.1H8.1c0,0.1,0,0.1,0.1,0.1c0.1,0,0.1,0,0.1,0L8.3,1.9z M8.2,1.6C8.2,1.6,8.2,1.5,8.2,1.6c-0.1-0.1-0.1-0.1-0.2,0
					H8.2z"/>
				<path fill="#003473" d="M7.3,1.6c0,0.1,0,0.1,0.1,0.2c0.1,0,0.1,0,0.1,0.1c0,0,0,0-0.1,0c0,0-0.1,0-0.1,0c0,0,0,0.1,0,0.1
					c0,0,0.1,0,0.1,0c0.2,0,0.2-0.1,0.2-0.2c0-0.1,0-0.1-0.1-0.2c-0.1,0-0.1,0-0.1-0.1c0,0,0,0,0.1,0c0,0,0.1,0,0.1,0l0-0.1
					c0,0-0.1,0-0.1,0C7.4,1.4,7.3,1.5,7.3,1.6z"/>
				<path fill="#003473" d="M9,1.4c0,0,0.1,0,0.1,0l0-0.1c0,0-0.1-0.1-0.2-0.1c-0.1,0-0.2,0-0.2,0.1c-0.1,0-0.1,0-0.2,0.1l0,0
					c0,0,0,0,0-0.1H8.4c0,0.2,0,0.3-0.1,0.5l0,0h0.1c0-0.2,0-0.3,0-0.3l0.1,0c0,0,0,0,0.1,0c0,0,0,0.1,0,0.1c0,0.2,0.1,0.3,0.3,0.3
					c0,0,0.1,0,0.1,0l0-0.2c0,0-0.1,0-0.1,0c-0.1,0-0.1-0.1-0.1-0.2C8.8,1.5,8.9,1.4,9,1.4z"/>
				<path fill="#003473" d="M10.2,1.3l0,0.2c0-0.1-0.1-0.1-0.1-0.1c-0.1,0-0.1,0.1-0.2,0.1c-0.1,0-0.1,0-0.1,0l0,0c0,0,0-0.1,0-0.1
					H9.6c0,0.2,0,0.3-0.1,0.5l0,0h0.1c0-0.1,0-0.2,0-0.3c0,0,0.1-0.1,0.1-0.1c0,0.1,0,0.1,0,0.2C9.8,1.9,9.9,2,10,2
					c0.1,0,0.1,0,0.1-0.1l0,0.1h0.1l0.1-0.7C10.3,1.3,10.2,1.3,10.2,1.3z M10,1.8c0,0-0.1,0-0.1-0.1c0-0.1,0-0.2,0.1-0.2
					c0,0,0.1,0,0.1,0.1C10.1,1.7,10.1,1.8,10,1.8z"/>
			</g>
			<g>
				<polygon fill="#FFFFFF" points="6.8,1.9 6.7,1.9 6.8,1.4 6.6,1.9 6.5,1.9 6.5,1.4 6.4,1.9 6.3,1.9 6.4,1.2 6.6,1.2 6.6,1.6 
					6.7,1.2 6.9,1.2 				"/>
				<path fill="#FFFFFF" d="M7.2,1.7C7.2,1.7,7.2,1.7,7.2,1.7C7.1,1.7,7,1.7,7,1.7c0,0,0,0.1,0.1,0.1C7.1,1.8,7.2,1.7,7.2,1.7z
					 M7.3,1.9c0,0-0.1,0-0.1,0l0-0.1c0,0-0.1,0.1-0.2,0.1c-0.1,0-0.1-0.1-0.1-0.1c0-0.1,0.1-0.2,0.3-0.2c0,0,0,0,0.1,0c0,0,0,0,0,0
					c0,0,0,0-0.1,0C7,1.5,7,1.5,7,1.5c0,0,0-0.1,0-0.1c0.1,0,0.1,0,0.2,0c0.1,0,0.2,0.1,0.2,0.2c0,0,0,0.1,0,0.1
					C7.3,1.7,7.3,1.9,7.3,1.9z"/>
				<path fill="#FFFFFF" d="M9.2,1.3l0,0.1c-0.1,0-0.1,0-0.1,0c-0.1,0-0.2,0.1-0.2,0.3c0,0.1,0.1,0.2,0.1,0.2c0,0,0.1,0,0.1,0l0,0.2
					C9,1.9,9,1.9,9,1.9c-0.2,0-0.3-0.1-0.3-0.3c0-0.2,0.1-0.4,0.3-0.4C9.1,1.2,9.2,1.2,9.2,1.3z"/>
				<path fill="#FFFFFF" d="M9.4,1.7C9.4,1.7,9.4,1.7,9.4,1.7c-0.1,0-0.2,0-0.2,0.1c0,0,0,0.1,0.1,0.1C9.4,1.8,9.4,1.7,9.4,1.7z
					 M9.5,1.9c0,0-0.1,0-0.1,0l0-0.1c0,0-0.1,0.1-0.2,0.1c-0.1,0-0.1-0.1-0.1-0.1c0-0.1,0.1-0.2,0.3-0.2c0,0,0,0,0.1,0c0,0,0,0,0,0
					c0,0,0,0-0.1,0c-0.1,0-0.1,0-0.2,0c0,0,0-0.1,0-0.1c0.1,0,0.1,0,0.2,0c0.1,0,0.2,0.1,0.2,0.2c0,0,0,0.1,0,0.1
					C9.6,1.7,9.5,1.9,9.5,1.9z"/>
				<path fill="#FFFFFF" d="M7.9,1.9c0,0-0.1,0-0.1,0c-0.1,0-0.1,0-0.1-0.1c0,0,0-0.1,0-0.1c0-0.1,0.1-0.4,0.1-0.4h0.1l0,0.1H8
					l0,0.1H7.9c0,0.1,0,0.2,0,0.2c0,0,0,0,0,0c0,0,0,0,0,0L7.9,1.9z"/>
				<path fill="#FFFFFF" d="M8.3,1.9c0,0-0.1,0-0.1,0C8,1.9,8,1.8,8,1.7c0-0.2,0.1-0.3,0.2-0.3c0.1,0,0.2,0.1,0.2,0.2
					c0,0,0,0.1,0,0.1H8.1c0,0.1,0,0.1,0.1,0.1c0.1,0,0.1,0,0.1,0L8.3,1.9z M8.3,1.6C8.3,1.6,8.3,1.5,8.3,1.6c-0.1-0.1-0.1-0.1-0.2,0
					H8.3z"/>
				<path fill="#FFFFFF" d="M7.4,1.5c0,0.1,0,0.1,0.1,0.2c0.1,0,0.1,0,0.1,0.1c0,0,0,0-0.1,0c0,0-0.1,0-0.1,0c0,0,0,0.1,0,0.1
					c0,0,0.1,0,0.1,0c0.2,0,0.2-0.1,0.2-0.2c0-0.1,0-0.1-0.1-0.2c-0.1,0-0.1,0-0.1-0.1c0,0,0,0,0.1,0c0,0,0.1,0,0.1,0l0-0.1
					c0,0-0.1,0-0.1,0C7.4,1.3,7.4,1.4,7.4,1.5z"/>
				<path fill="#FFFFFF" d="M10.3,1.9h-0.1l0-0.1c0,0-0.1,0.1-0.1,0.1c-0.1,0-0.2-0.1-0.2-0.2c0-0.2,0.1-0.3,0.2-0.3
					c0.1,0,0.1,0,0.1,0.1l0-0.2h0.1L10.3,1.9z M10.1,1.8c0.1,0,0.1-0.1,0.1-0.2c0-0.1,0-0.1-0.1-0.1C10,1.5,10,1.6,10,1.7
					C10,1.7,10,1.8,10.1,1.8z"/>
				<path fill="#FFFFFF" d="M9.7,1.4c0,0.2,0,0.3-0.1,0.5l0,0h0.1c0.1-0.3,0.1-0.4,0.1-0.4c0-0.1,0-0.1,0.1-0.2
					c-0.1,0-0.1,0-0.1,0.1c0,0,0-0.1,0-0.1C9.8,1.4,9.7,1.4,9.7,1.4z"/>
				<path fill="#FFFFFF" d="M8.5,1.4c0,0.2,0,0.3-0.1,0.5l0,0h0.1c0.1-0.3,0.1-0.4,0.1-0.4c0-0.1,0-0.1,0.1-0.2
					c-0.1,0-0.1,0-0.1,0.1c0,0,0-0.1,0-0.1C8.6,1.4,8.5,1.4,8.5,1.4z"/>
				<g>
					<path fill="#FFFFFF" d="M10.3,1.9C10.3,1.8,10.4,1.8,10.3,1.9C10.4,1.8,10.4,1.8,10.3,1.9C10.4,1.9,10.4,1.9,10.3,1.9
						C10.4,1.9,10.3,1.9,10.3,1.9z M10.4,1.9C10.4,1.9,10.4,1.9,10.4,1.9C10.4,1.8,10.4,1.8,10.4,1.9C10.4,1.8,10.4,1.8,10.4,1.9
						C10.4,1.9,10.4,1.9,10.4,1.9z M10.4,1.9L10.4,1.9L10.4,1.9L10.4,1.9C10.4,1.8,10.4,1.8,10.4,1.9C10.4,1.8,10.4,1.8,10.4,1.9
						C10.4,1.9,10.4,1.9,10.4,1.9L10.4,1.9L10.4,1.9L10.4,1.9L10.4,1.9L10.4,1.9L10.4,1.9z M10.4,1.9L10.4,1.9L10.4,1.9L10.4,1.9
						C10.4,1.8,10.4,1.8,10.4,1.9L10.4,1.9L10.4,1.9L10.4,1.9L10.4,1.9z"/>
				</g>
			</g>
		</g>
	</g>
</g>
<g id="Amex">
	<g>
		
			<radialGradient id="SVGID_3_" cx="-422.7966" cy="-623.427" r="4.1445" gradientTransform="matrix(1.0366 0 0 0.6823 449.9642 425.8896)" gradientUnits="userSpaceOnUse">
			<stop  offset="0" style="stop-color:#9FD4F3"/>
			<stop  offset="7.110000e-02" style="stop-color:#99D2F2"/>
			<stop  offset="0.1575" style="stop-color:#8BCDF1"/>
			<stop  offset="0.2516" style="stop-color:#71C6EF"/>
			<stop  offset="0.3514" style="stop-color:#51BCEA"/>
			<stop  offset="0.4546" style="stop-color:#21ADE4"/>
			<stop  offset="0.5" style="stop-color:#1AA6DF"/>
			<stop  offset="1" style="stop-color:#3078BC"/>
		</radialGradient>
		<path fill="url(#SVGID_3_)" d="M15.5,0h-4.6v3h4.6V2c0,0,0,0,0-0.1c0,0,0-0.1,0-0.1"/>
		<path fill="#FFFFFF" d="M11.3,1.1l-0.1-0.2l-0.1,0.2 M13.2,1C13.2,1,13.2,1,13.2,1L13,1V0.9h0.2C13.2,0.9,13.2,0.9,13.2,1
			C13.3,0.9,13.3,0.9,13.2,1C13.3,1,13.3,1,13.2,1z M14.3,1.1l-0.1-0.2l-0.1,0.2H14.3z M12.3,1.3h-0.1V0.9L12,1.3h-0.1l-0.2-0.4v0.4
			h-0.3l0-0.1h-0.3l0,0.1h-0.2l0.2-0.5h0.2l0.2,0.5V0.8h0.2l0.2,0.4l0.2-0.4h0.2V1.3L12.3,1.3z M12.8,1.3h-0.4V0.8h0.4v0.1h-0.3V1
			h0.3v0.1h-0.3v0.1h0.3V1.3z M13.4,0.9C13.4,1,13.3,1,13.3,1c0,0,0.1,0,0.1,0c0,0,0,0.1,0,0.1v0.1h-0.1V1.2c0,0,0-0.1,0-0.1
			c0,0,0,0-0.1,0H13v0.2h-0.1V0.8h0.3c0.1,0,0.1,0,0.2,0C13.4,0.8,13.4,0.8,13.4,0.9z M13.6,1.3h-0.1V0.8h0.1V1.3z M15.1,1.3h-0.2
			l-0.2-0.4v0.4h-0.3l0-0.1h-0.3l0,0.1h-0.1c-0.1,0-0.1,0-0.2-0.1c0,0-0.1-0.1-0.1-0.2c0-0.1,0-0.2,0.1-0.2c0,0,0.1-0.1,0.2-0.1h0.1
			v0.1H14c0,0-0.1,0-0.1,0c0,0,0,0.1,0,0.1c0,0.1,0,0.1,0,0.1c0,0,0.1,0,0.1,0H14l0.2-0.4h0.2l0.2,0.5V0.8h0.2L15,1.1V0.8h0.1
			L15.1,1.3L15.1,1.3z M10.9,1.4h0.2l0-0.1h0.1l0,0.1h0.4V1.3l0,0.1H12l0-0.1v0.1h1.1V1.2h0c0,0,0,0,0,0v0.2h0.6v0c0,0,0.1,0,0.2,0
			h0.2l0-0.1h0.1l0,0.1h0.5V1.3l0.1,0.1h0.4V0.7h-0.4v0.1l0-0.1h-0.4v0.1l0-0.1h-0.5c-0.1,0-0.2,0-0.2,0v0h-0.3v0c0,0-0.1,0-0.1,0
			H12l-0.1,0.2l-0.1-0.2h-0.4v0.1l0-0.1h-0.3L10.9,1L10.9,1.4L10.9,1.4z"/>
		<path fill="#FFFFFF" d="M15.5,1.8h-0.2c0,0,0,0-0.1,0c0,0,0,0,0,0c0,0,0,0,0,0c0,0,0,0,0,0h0.1c0.1,0,0.1,0,0.1,0c0,0,0,0,0,0
			 M15.5,2.2c0,0-0.1,0.1-0.2,0.1H15V2.1h0.2c0,0,0,0,0.1,0c0,0,0,0,0,0s0,0,0,0c0,0,0,0,0,0C15.2,2,15,2,15,1.8
			c0-0.1,0-0.2,0.2-0.2h0.3V1.6h-0.2c-0.1,0-0.1,0-0.2,0v0h-0.3c-0.1,0-0.1,0-0.2,0v0h-0.6v0c0,0-0.1,0-0.2,0h-0.4v0
			c0,0-0.1,0-0.2,0h-0.5l-0.1,0.1l-0.1-0.1h-0.7v0.7h0.7l0.1-0.1l0.1,0.1h0.4V2.2h0c0.1,0,0.1,0,0.2,0v0.2h0.3V2.1h0c0,0,0,0,0,0
			v0.2h1c0.1,0,0.1,0,0.2,0v0h0.3c0.1,0,0.1,0,0.2,0L15.5,2.2L15.5,2.2z M14.9,1.9c0,0,0,0.1,0,0.1c0,0.1-0.1,0.2-0.2,0.2h-0.2V2.1
			h0.2c0,0,0,0,0.1,0c0,0,0,0,0,0s0,0,0,0c0,0,0,0,0,0c-0.1,0-0.3,0-0.3-0.2c0-0.1,0-0.2,0.2-0.2H15v0.1h-0.2c0,0,0,0-0.1,0
			c0,0,0,0,0,0c0,0,0,0,0,0c0,0,0,0,0,0h0.1C14.9,1.9,14.9,1.9,14.9,1.9z M13.8,1.9C13.8,1.9,13.8,1.9,13.8,1.9l-0.2,0V1.8h0.2
			C13.8,1.8,13.8,1.8,13.8,1.9C13.8,1.8,13.8,1.8,13.8,1.9C13.8,1.9,13.8,1.9,13.8,1.9z M13.9,2C13.9,2,13.9,2,13.9,2
			C14,2,14,2.1,14,2.1v0.1h-0.1V2.2C13.8,2.1,13.8,2.1,13.9,2C13.8,2,13.8,2,13.7,2h-0.1v0.2h-0.1V1.7h0.3c0.1,0,0.1,0,0.2,0
			c0,0,0.1,0.1,0.1,0.1C14,1.9,13.9,2,13.9,2z M14,1.7h0.4v0.1h-0.3v0.1h0.3V2h-0.3v0.1h0.3v0.1H14C14,2.2,14,1.7,14,1.7z M13.2,1.9
			H13V1.8h0.2C13.2,1.8,13.2,1.8,13.2,1.9C13.2,1.9,13.2,1.9,13.2,1.9z M12.9,2.2L12.7,2l0.2-0.2C12.9,1.7,12.9,2.2,12.9,2.2z
			 M12.4,2.1H12V2h0.3V1.9H12V1.8h0.3L12.5,2L12.4,2.1z M13.4,1.9C13.4,2,13.3,2,13.2,2H13v0.2h-0.2L12.6,2l-0.2,0.2h-0.5V1.7h0.5
			l0.2,0.2l0.2-0.2h0.4C13.3,1.7,13.4,1.7,13.4,1.9z"/>
	</g>
</g>
<g id="Discover">
	<rect x="15.7" y="0" fill="#FFFFFF" width="4.6" height="3.1"/>
	<g>
		<path fill="#F58220" d="M20.3,1.7c0,0-1.3,0.9-3.5,1.3h3.5V1.7z"/>
		<path fill="#231F20" d="M20.3,0h-4.6V3h4.6L20.3,0L20.3,0z M20.3,0c0,0,0,3,0,3c0,0-4.5,0-4.6,0c0,0,0-3,0-3C15.8,0,20.3,0,20.3,0
			z"/>
		<path fill="#E83530" d="M20.1,2.4"/>
		
			<radialGradient id="SVGID_4_" cx="-273.3827" cy="882.7593" r="0.3798" gradientTransform="matrix(0.9376 0 0 -0.9376 274.4451 828.8812)" gradientUnits="userSpaceOnUse">
			<stop  offset="5.600000e-03" style="stop-color:#FFEFE1"/>
			<stop  offset="0.1092" style="stop-color:#FFEAD8"/>
			<stop  offset="0.2782" style="stop-color:#FDDCC0"/>
			<stop  offset="0.4917" style="stop-color:#FBC698"/>
			<stop  offset="0.7412" style="stop-color:#F8A761"/>
			<stop  offset="1" style="stop-color:#F58220"/>
		</radialGradient>
		<path fill="url(#SVGID_4_)" d="M18.1,0.9c-0.2,0-0.4,0.2-0.4,0.3c0,0.2,0.2,0.4,0.4,0.4c0.2,0,0.4-0.2,0.4-0.4
			C18.5,1,18.3,0.9,18.1,0.9z"/>
		<path fill="#001722" d="M16.1,0.9h-0.2v0.7h0.2c0.1,0,0.2,0,0.2-0.1c0.1-0.1,0.1-0.2,0.1-0.3C16.4,1,16.3,0.9,16.1,0.9z M16.2,1.4
			c0,0-0.1,0.1-0.2,0.1h0V1h0c0.1,0,0.1,0,0.2,0.1c0,0,0.1,0.1,0.1,0.2S16.3,1.4,16.2,1.4z"/>
		<rect x="16.5" y="0.9" fill="#001722" width="0.1" height="0.7"/>
		<path fill="#001722" d="M17,1.1c-0.1,0-0.1,0-0.1-0.1c0,0,0-0.1,0.1-0.1C17,1,17,1,17.1,1l0.1-0.1c-0.1,0-0.1-0.1-0.2-0.1
			c-0.1,0-0.2,0.1-0.2,0.2c0,0.1,0,0.1,0.2,0.2c0.1,0,0.1,0,0.1,0c0,0,0,0,0,0.1c0,0.1,0,0.1-0.1,0.1c-0.1,0-0.1,0-0.1-0.1l-0.1,0.1
			c0.1,0.1,0.1,0.1,0.2,0.1c0.1,0,0.2-0.1,0.2-0.2C17.2,1.2,17.1,1.2,17,1.1z"/>
		<path fill="#001722" d="M17.2,1.2c0,0.2,0.2,0.4,0.4,0.4c0.1,0,0.1,0,0.2,0V1.4c-0.1,0.1-0.1,0.1-0.2,0.1c-0.1,0-0.2-0.1-0.2-0.2
			c0-0.1,0.1-0.2,0.2-0.2c0.1,0,0.1,0,0.2,0.1V0.9c-0.1,0-0.1,0-0.2,0C17.4,0.9,17.2,1,17.2,1.2z"/>
		<polygon fill="#001722" points="18.8,1.3 18.6,0.9 18.5,0.9 18.8,1.6 18.8,1.6 19.1,0.9 19,0.9 		"/>
		<polygon fill="#001722" points="19.2,1.6 19.5,1.6 19.5,1.5 19.3,1.5 19.3,1.3 19.5,1.3 19.5,1.2 19.3,1.2 19.3,1 19.5,1 
			19.5,0.9 19.2,0.9 		"/>
		<path fill="#001722" d="M20.1,1.1c0-0.1-0.1-0.2-0.2-0.2h-0.2v0.7h0.1V1.3h0L20,1.6h0.2l-0.2-0.3C20,1.3,20.1,1.2,20.1,1.1z
			 M19.8,1.2L19.8,1.2l0-0.2h0c0.1,0,0.1,0,0.1,0.1C19.9,1.2,19.9,1.2,19.8,1.2z"/>
		<path fill="#231F20" d="M20.2,0.9C20.2,0.9,20.2,0.9,20.2,0.9L20.2,0.9L20.2,0.9L20.2,0.9L20.2,0.9L20.2,0.9L20.2,0.9L20.2,0.9
			C20.2,1,20.2,0.9,20.2,0.9z M20.1,0.9L20.1,0.9L20.1,0.9L20.1,0.9C20.1,0.9,20.2,0.9,20.1,0.9C20.2,0.9,20.1,0.9,20.1,0.9z"/>
		<path fill="#231F20" d="M20.1,0.9C20.1,0.9,20.1,0.9,20.1,0.9c-0.1,0.1,0,0.1,0,0.1C20.2,1,20.2,1,20.1,0.9
			C20.2,0.9,20.2,0.9,20.1,0.9z M20.1,1C20.1,1,20.1,1,20.1,1C20.1,0.9,20.1,0.9,20.1,1C20.2,0.9,20.2,0.9,20.1,1
			C20.2,1,20.2,1,20.1,1z"/>
		<path fill="#231F20" d="M17.1,1.7l0.2,0.2V1.8h0V2L17.1,1.7l0,0.2h0C17.1,2,17.1,1.7,17.1,1.7z"/>
		<path fill="#231F20" d="M17.1,1.7V2h0C17.1,2,17.1,1.8,17.1,1.7c0,0.1,0.2,0.3,0.2,0.3V1.7h0c0,0,0,0.2,0,0.2
			C17.2,1.9,17.1,1.7,17.1,1.7L17.1,1.7L17.1,1.7z M17.1,1.7c0,0,0.2,0.2,0.2,0.2s0-0.2,0-0.2c0,0,0,0,0,0c0,0,0,0.2,0,0.2
			C17.3,2,17.1,1.8,17.1,1.7c0,0,0,0.2,0,0.2c0,0,0,0,0,0C17.1,2,17.1,1.8,17.1,1.7z"/>
		<path fill="#231F20" d="M17.4,1.8h0.1v0L17.4,1.8L17.4,1.8l0.1,0.1v0h-0.1V2h0.1v0h-0.1C17.4,2,17.4,1.8,17.4,1.8z"/>
		<path fill="#231F20" d="M17.5,1.7h-0.1V2h0.1v0c0,0-0.1,0-0.1,0c0,0,0-0.1,0-0.1c0,0,0.1,0,0.1,0L17.5,1.7
			C17.5,1.8,17.4,1.8,17.5,1.7C17.4,1.8,17.4,1.8,17.5,1.7C17.4,1.8,17.5,1.8,17.5,1.7L17.5,1.7L17.5,1.7z M17.5,1.8
			C17.5,1.8,17.5,1.8,17.5,1.8C17.5,1.8,17.4,1.8,17.5,1.8L17.5,1.8C17.4,1.9,17.5,1.9,17.5,1.8c0,0.1,0,0.1,0,0.1c0,0-0.1,0-0.1,0
			V2c0,0,0.1,0,0.1,0c0,0,0,0,0,0c0,0-0.1,0-0.1,0c0,0,0-0.2,0-0.2C17.4,1.8,17.5,1.8,17.5,1.8z"/>
		<path fill="#231F20" d="M17.7,2L17.7,2l0-0.2h-0.1v0h0.1v0h-0.1L17.7,2L17.7,2z"/>
		<path fill="#231F20" d="M17.7,1.7h-0.1v0C17.6,1.8,17.7,1.8,17.7,1.7c-0.1,0-0.1,0.2-0.1,0.2h0C17.7,2,17.7,1.8,17.7,1.7
			C17.7,1.8,17.7,1.8,17.7,1.7L17.7,1.7L17.7,1.7z M17.7,1.8C17.7,1.8,17.7,1.8,17.7,1.8C17.7,1.8,17.7,1.8,17.7,1.8
			c-0.1,0-0.1,0.2-0.1,0.2c0,0,0,0,0,0C17.7,2,17.7,1.8,17.7,1.8c-0.1,0-0.1,0-0.1,0c0,0,0,0,0,0C17.6,1.8,17.7,1.8,17.7,1.8z"/>
		<path fill="#231F20" d="M17.9,1.9L18,1.7l0.1,0.2l0.1-0.2h0L18.1,2L18,1.8L17.9,1.9l-0.1-0.2h0L17.9,1.9z"/>
		<path fill="#231F20" d="M18,1.7c0,0-0.1,0.2-0.1,0.2c0,0-0.1-0.2-0.1-0.2h0L17.9,2C17.9,2,18,1.8,18,1.7C18,1.8,18.1,2,18.1,2
			l0.1-0.2h0c0,0-0.1,0.2-0.1,0.2C18.1,1.9,18,1.7,18,1.7L18,1.7z M17.9,1.9c0,0,0.1-0.2,0.1-0.2c0,0,0.1,0.2,0.1,0.2l0.1-0.2
			c0,0,0,0,0,0c0,0-0.1,0.2-0.1,0.2c0,0-0.1-0.2-0.1-0.2S17.9,2,17.9,1.9c0,0-0.1-0.2-0.1-0.2c0,0,0,0,0,0
			C17.9,1.8,17.9,1.9,17.9,1.9L17.9,1.9z"/>
		<path fill="#231F20" d="M18.5,1.9c0,0.1-0.1,0.1-0.1,0.1c-0.1,0-0.1-0.1-0.1-0.1c0-0.1,0.1-0.1,0.1-0.1
			C18.4,1.7,18.5,1.8,18.5,1.9z M18.3,1.9C18.3,1.9,18.3,2,18.3,1.9c0.1,0.1,0.2,0.1,0.2,0C18.5,1.8,18.4,1.8,18.3,1.9
			C18.3,1.8,18.3,1.8,18.3,1.9z"/>
		<path fill="#231F20" d="M18.2,1.9c0,0.1,0.1,0.1,0.1,0.1c0.1,0,0.1-0.1,0.1-0.1s-0.1-0.1-0.1-0.1C18.3,1.7,18.2,1.8,18.2,1.9z
			 M18.2,1.9c0-0.1,0.1-0.1,0.1-0.1c0.1,0,0.1,0.1,0.1,0.1S18.4,2,18.4,2C18.3,2,18.2,1.9,18.2,1.9z"/>
		<path fill="#231F20" d="M18.3,1.9C18.3,1.9,18.3,2,18.3,1.9c0.1,0.1,0.2,0.1,0.2,0S18.4,1.8,18.3,1.9C18.3,1.8,18.3,1.8,18.3,1.9z
			 M18.3,1.9C18.3,1.8,18.3,1.8,18.3,1.9c0.1-0.1,0.2,0,0.2,0C18.4,1.9,18.4,2,18.3,1.9C18.3,2,18.3,1.9,18.3,1.9z"/>
		<path fill="#231F20" d="M18.6,2L18.6,2l0-0.2h0c0,0,0.1,0,0.1,0.1c0,0,0,0.1-0.1,0.1L18.7,2H18.6L18.6,2L18.6,2L18.6,2L18.6,2z
			 M18.6,1.9L18.6,1.9C18.6,1.9,18.7,1.9,18.6,1.9C18.7,1.8,18.6,1.8,18.6,1.9L18.6,1.9L18.6,1.9L18.6,1.9z"/>
		<path fill="#231F20" d="M18.6,1.7L18.6,1.7l0,0.2h0c0,0,0-0.1,0-0.1h0l0,0L18.7,2h0h0c0,0-0.1-0.1-0.1-0.1c0,0,0.1,0,0.1-0.1
			C18.7,1.8,18.7,1.7,18.6,1.7C18.6,1.7,18.6,1.7,18.6,1.7z M18.6,1.8C18.7,1.8,18.7,1.8,18.6,1.8c0.1,0.1,0.1,0.1,0,0.1h0
			c0,0,0.1,0.1,0.1,0.1c0,0,0,0,0,0l0,0l-0.1-0.1h0h0c0,0,0,0.1,0,0.1c0,0,0,0,0,0C18.6,2,18.6,1.8,18.6,1.8
			C18.6,1.8,18.6,1.8,18.6,1.8z"/>
		<path fill="#231F20" d="M18.6,1.8L18.6,1.8L18.6,1.8L18.6,1.8C18.6,1.9,18.7,1.9,18.6,1.8C18.7,1.8,18.6,1.8,18.6,1.8L18.6,1.8z
			 M18.6,1.8C18.6,1.8,18.7,1.8,18.6,1.8C18.7,1.8,18.6,1.9,18.6,1.8L18.6,1.8C18.6,1.8,18.6,1.8,18.6,1.8
			C18.6,1.8,18.6,1.8,18.6,1.8z"/>
		<path fill="#231F20" d="M18.9,1.8L18.9,1.8l-0.1,0.1L19,2h0l-0.1-0.1l0,0V2h0V1.8H18.9L18.9,1.8L18.9,1.8z"/>
		<path fill="#231F20" d="M19,1.7L19,1.7c0,0-0.1,0.1-0.1,0.1c0,0,0-0.1,0-0.1h0V2h0V1.9c0,0,0,0,0,0c0,0,0.1,0.1,0.1,0.1h0h0
			c0,0-0.1-0.1-0.1-0.1C18.9,1.9,19,1.7,19,1.7L19,1.7z M19,1.8c0,0-0.1,0.1-0.1,0.1S19,2,19,2c0,0,0,0,0,0l0,0l-0.1-0.1l0,0l0,0
			c0,0,0,0.1,0,0.1c0,0,0,0,0,0c0,0,0-0.2,0-0.2c0,0,0,0,0,0c0,0,0,0.1,0,0.1L19,1.8C18.9,1.8,19,1.8,19,1.8z"/>
	</g>
</g>
<g id="Paypal">
	<g>
		
			<linearGradient id="SVGID_5_" gradientUnits="userSpaceOnUse" x1="-261.8777" y1="397.9631" x2="-261.8777" y2="394.7786" gradientTransform="matrix(0.9376 0 0 -0.9376 268.4296 373.1381)">
			<stop  offset="0" style="stop-color:#FFFFFF"/>
			<stop  offset="0.3204" style="stop-color:#FFF7E7"/>
			<stop  offset="0.7453" style="stop-color:#FEEDCE"/>
			<stop  offset="1" style="stop-color:#FEEAC4"/>
		</linearGradient>
		<rect x="20.7" y="0" fill="url(#SVGID_5_)" width="4.5" height="3"/>
		<path fill="#FBB15F" d="M25.1,0.1V3h-4.4V0.1H25.1 M25.2,0h-4.6V3h4.6V0L25.2,0z"/>
	</g>
	<g>
		<path fill="#1C3665" d="M24.8,1.1V0.9h0v0h0.1v0h0L24.8,1.1L24.8,1.1L24.8,1.1z"/>
		<path fill="#1C3665" d="M24.9,1.1V0.9h0L24.9,1.1C24.9,1,24.9,1,24.9,1.1C24.9,1,25,1,24.9,1.1L25,0.9h0v0.1h0V1L24.9,1.1
			L24.9,1.1l0-0.1L24.9,1.1C24.9,1.1,24.9,1.1,24.9,1.1z"/>
	</g>
	<g>
		<path fill="#34679A" d="M23.5,1.4c0,0-0.1,0-0.1,0h0c0,0,0,0,0,0l0-0.2c0,0,0,0,0.1,0h0c0,0,0.1,0,0.1,0c0,0,0,0,0,0.1
			C23.5,1.4,23.5,1.4,23.5,1.4z M23.7,1.2C23.7,1.2,23.7,1.1,23.7,1.2c-0.1-0.1-0.1-0.1-0.2-0.1c0,0-0.1,0-0.1,0h-0.3
			c0,0-0.1,0-0.1,0l-0.2,0.7c0,0,0,0,0,0h0.1c0,0,0.1,0,0.1,0l0-0.2c0,0,0,0,0.1,0h0c0.1,0,0.3,0,0.3-0.1c0.1-0.1,0.1-0.1,0.1-0.2
			C23.8,1.3,23.7,1.2,23.7,1.2"/>
		<path fill="#34679A" d="M24.1,1.7C24.1,1.8,24.1,1.8,24.1,1.7c-0.1,0-0.1,0-0.1,0c0,0-0.1,0-0.1,0c0,0,0,0,0,0c0,0,0,0,0-0.1
			c0,0,0,0,0.1,0c0,0,0,0,0.1,0c0,0,0.1,0,0.1,0L24.1,1.7z M24.1,1.9h0.1c0,0,0.1,0,0.1,0l0.1-0.4c0,0,0,0,0,0c0,0,0,0,0,0
			c0-0.1,0-0.1-0.1-0.1c0,0-0.1,0-0.2,0c0,0-0.1,0-0.1,0c0,0-0.1,0-0.1,0l0,0.1c0,0,0,0,0,0c0,0,0,0,0.1,0c0,0,0.1,0,0.1,0
			c0,0,0.1,0,0.1,0c0,0,0,0,0,0.1c0,0,0,0,0,0s0,0,0,0c-0.1,0-0.1,0-0.2,0c-0.1,0-0.1,0-0.2,0c0,0-0.1,0-0.1,0.1c0,0,0,0.1,0,0.1
			c0,0,0,0.1,0,0.1c0,0,0.1,0,0.1,0c0,0,0.1,0,0.1,0C23.9,1.9,24,1.9,24.1,1.9C24,1.9,24,1.9,24.1,1.9C24,1.9,24.1,1.8,24.1,1.9
			L24.1,1.9"/>
		<path fill="#34679A" d="M24.7,1.1l-0.2,0.8c0,0,0,0-0.1,0h-0.1c0,0,0,0,0,0l0.2-0.7c0,0,0,0,0.1,0L24.7,1.1"/>
		<path fill="#1C3665" d="M21.4,1.4c0,0-0.1,0-0.1,0h0c0,0,0,0,0,0l0-0.2c0,0,0,0,0.1,0h0c0,0,0.1,0,0.1,0c0,0,0,0,0,0.1
			C21.4,1.4,21.4,1.4,21.4,1.4z M21.6,1.2C21.6,1.2,21.6,1.1,21.6,1.2c-0.1-0.1-0.1-0.1-0.2-0.1c0,0-0.1,0-0.1,0h-0.3
			c0,0-0.1,0-0.1,0l-0.2,0.7c0,0,0,0,0,0H21c0,0,0.1,0,0.1,0l0-0.2c0,0,0,0,0.1,0h0c0.1,0,0.3,0,0.3-0.1c0.1-0.1,0.1-0.1,0.1-0.2
			C21.6,1.3,21.6,1.2,21.6,1.2"/>
		<path fill="#1C3665" d="M22,1.7C22,1.8,21.9,1.8,22,1.7c-0.1,0-0.1,0-0.1,0c0,0-0.1,0-0.1,0s0,0,0,0c0,0,0,0,0-0.1c0,0,0,0,0.1,0
			c0,0,0,0,0.1,0c0,0,0.1,0,0.1,0L22,1.7z M22,1.9h0.1c0,0,0.1,0,0.1,0l0.1-0.4c0,0,0,0,0,0c0,0,0,0,0,0c0-0.1,0-0.1-0.1-0.1
			c0,0-0.1,0-0.2,0c0,0-0.1,0-0.1,0c0,0-0.1,0-0.1,0l0,0.1c0,0,0,0,0,0c0,0,0,0,0.1,0c0,0,0.1,0,0.1,0c0,0,0.1,0,0.1,0
			c0,0,0,0,0,0.1c0,0,0,0,0,0s0,0,0,0c-0.1,0-0.1,0-0.2,0c-0.1,0-0.1,0-0.2,0c0,0-0.1,0-0.1,0.1c0,0,0,0.1,0,0.1c0,0,0,0.1,0,0.1
			c0,0,0.1,0,0.1,0c0,0,0.1,0,0.1,0C21.8,1.9,21.9,1.9,22,1.9C21.9,1.9,21.9,1.9,22,1.9C21.9,1.9,22,1.8,22,1.9L22,1.9"/>
		<path fill="#1C3665" d="M22.9,1.3C22.8,1.3,22.8,1.3,22.9,1.3l-0.3,0.4l-0.1-0.4c0,0,0,0-0.1,0h-0.1c0,0,0,0,0,0l0.1,0.6
			c0,0,0,0,0,0l-0.1,0.2c0,0,0,0,0,0h0.1c0,0,0.1,0,0.1,0L23,1.3L22.9,1.3L22.9,1.3z"/>
	</g>
</g>
</svg>
