<svg xmlns="http://www.w3.org/2000/svg" viewBox="0 0 431.121 274.165" enable-background="new 0 0 431.121 274.165"><path fill="#3E6D9D" d="M312.161 0h-103.894c18.171 10.811 30.155 26.344 37.839 43.277 21.216 46.741-3.353 107.36-80.983 175.987h160.87099999999998c74.579 0 105.129-56.911 105.129-106.736-.002-50.805-34.062-112.528-118.962-112.528zm-12.855 167.181h-20.255v-115.092h20.573c41.476 0 54.649 28.611 54.649 57.544 0 39.221-17.682 57.548-54.967 57.548z"/><path fill="#29355C" d="M161.597 180.385c78.257-53.115 91.281-97.255 79.282-132.232-8.012-23.364-24.738-37.919-44.498-48.511h-34.784v79.739h-84.551v-79.739h-76.849v219.264h76.849v-77.338h84.551v38.817z"/><g fill="#29355C"><path d="M0 224.967h12.867v17.987h16.949v-17.987h12.867v49.395h-12.867v-20.34h-16.949v20.34h-12.867v-49.395zM63.09 224.967h13.075l18.471 49.395h-13.42l-3.044-8.855h-17.227l-3.113 8.855h-13.212l18.47-49.395zm.83 30.994h11.207l-5.465-17.296h-.138l-5.604 17.296zM96.64 224.967h12.867v49.395h-12.867v-49.395zM116.701 224.967h25.181c8.717 0 17.295 3.944 17.295 13.905 0 5.327-2.56 10.378-7.748 12.383v.139c5.257 1.245 6.779 7.126 7.195 11.83.138 2.075.345 9.339 2.075 11.138h-12.728c-1.107-1.661-1.315-6.503-1.453-7.887-.346-4.982-1.176-10.1-7.195-10.1h-9.754v17.986h-12.867v-49.394zm12.867 21.446h10.792c3.874 0 5.949-2.075 5.949-5.811 0-3.667-2.905-5.328-6.503-5.328h-10.239v11.139z"/></g><g fill="#3E6D9D"><path d="M166.254 224.77h16.948c15.22 0 23.73 7.61 23.73 23.521 0 16.534-7.265 25.874-23.73 25.874h-16.948v-49.395zm6.572 43.861h10.929c4.498 0 16.603-1.245 16.603-19.44 0-11.759-4.357-18.886-16.463-18.886h-11.068v38.326zM213.501 224.77h6.572v49.394h-6.572v-49.394zM229.412 224.77h23.244c9.269 0 15.011 5.051 15.011 12.938 0 5.948-2.628 10.861-8.579 12.521v.139c5.743 1.106 6.919 5.326 7.404 10.169.415 4.843.137 10.239 2.904 13.629h-7.333c-1.868-2.007-.83-7.333-1.798-12.176-.692-4.843-1.868-8.924-8.233-8.924h-16.048v21.1h-6.572v-49.396zm20.269 22.761c6.157 0 11.414-1.592 11.414-8.786 0-4.843-2.628-8.44-8.786-8.44h-16.324v17.227h13.696zM275.068 224.77h34.105v5.534h-27.533v15.704h25.665v5.534h-25.665v17.088h27.742v5.534h-34.314v-49.394zM350.334 239.645c-1.384-6.987-6.987-10.516-13.836-10.516-11.761 0-16.742 9.686-16.742 19.993 0 11.275 4.981 20.685 16.811 20.685 8.647 0 13.628-6.089 14.25-14.251h6.572c-1.244 12.313-8.923 19.785-21.376 19.785-15.358 0-22.828-11.345-22.828-25.734 0-14.32 8.162-26.012 23.382-26.012 10.308 0 18.817 5.534 20.338 16.05h-6.571zM375.028 230.305h-16.464v-5.534h39.501v5.534h-16.465v43.86h-6.572v-43.86z"/></g></svg>