<?xml version="1.0" encoding="utf-8"?>
<!-- Generator: Adobe Illustrator 16.0.0, SVG Export Plug-In . SVG Version: 6.00 Build 0)  -->
<!DOCTYPE svg PUBLIC "-//W3C//DTD SVG 1.1//EN" "http://www.w3.org/Graphics/SVG/1.1/DTD/svg11.dtd">
<svg version="1.1" id="Layer_1" xmlns="http://www.w3.org/2000/svg" xmlns:xlink="http://www.w3.org/1999/xlink" x="0px" y="0px"
	 width="235.5px" height="282.377px" viewBox="9 12.434 235.5 282.377" enable-background="new 9 12.434 235.5 282.377"
	 xml:space="preserve">
<g>
	<g>
		<g>
			<g>
				<defs>
					<path id="SVGID_1_" d="M239.938,40.271c-23.854-13.176-50.916-19.393-72.65-22.319c-23.732-3.188-41.1-2.46-41.014-2.584
						c0.051,0.066-4.582-0.098-12.35,0.167C106,15.811,94.81,16.531,81.986,18.411C71.873,19.897,60.75,22.1,49.41,25.362
						c-12.352,3.559-24.952,8.381-36.775,14.909c0,9.165,0,18.331,0,27.496c0,2.659,0,7.823,0,10.478c0,7.525,0,12.553,0,20.082
						c0,25.544,0,51.092,0,76.636c0.007,27.27,9.397,51.235,29.949,68.317c4.658,3.939,11.807,8.437,20.016,13.004
						c6.962,3.866,14.69,7.783,22.284,11.466c8.957,4.333,17.735,8.316,24.884,11.476c9.811,4.333,16.56,7.106,16.505,7.053
						c-0.082,0.072,14.932-6.104,32.683-14.39c18.897-8.828,40.882-20.027,51.021-28.607c20.562-17.081,29.963-41.049,29.963-68.326
						c0-25.535,0-51.083,0-76.627c0-7.529,0-13.387,0-20.915c0-2.659,0-6.985,0-9.645C239.938,58.602,239.938,49.435,239.938,40.271
						"/>
				</defs>
				<clipPath id="SVGID_2_">
					<use xlink:href="#SVGID_1_"  overflow="visible"/>
				</clipPath>
				
					<linearGradient id="SVGID_3_" gradientUnits="userSpaceOnUse" x1="65.7402" y1="109.9456" x2="301.2402" y2="109.9456" gradientTransform="matrix(1 0 0 -1 -56.7402 259.4458)">
					<stop  offset="0" style="stop-color:#FFD66B"/>
					<stop  offset="0.2821" style="stop-color:#FDE2D2"/>
					<stop  offset="0.4908" style="stop-color:#E9AA70"/>
					<stop  offset="1" style="stop-color:#DC931D"/>
				</linearGradient>
				<rect x="9" y="13" clip-path="url(#SVGID_2_)" fill="url(#SVGID_3_)" width="235.5" height="273"/>
			</g>
		</g>
		<g>
			<g>
				<defs>
					<path id="SVGID_4_" d="M231.023,42.028c-33.25-3.497-69.891-4.414-106.362,2.855c-10.585,2.128-21.157,4.938-31.589,8.591
						c-11.147,3.908-22.126,8.768-32.784,14.768C46.661,75.917,33.575,85.456,21.363,97.22c-0.002,2.517-0.009,5.033-0.016,7.547
						c-0.018,12.074-0.029,24.159-0.034,36.245c-0.009,11.342,0,22.69,0.009,34.039c0.018,25.301,9.11,46.589,26.897,61.366
						c10.938,5.661,21.878,11.326,32.822,16.991c8.355,4.333,16.716,8.655,25.074,12.988c6.721,3.476,13.441,6.953,20.162,10.44
						c13.396-5.584,62.211-27.025,78.068-40.421c17.791-14.777,26.872-36.065,26.891-61.366c0.027-24.387,0.015-48.788-0.026-73.15
						c-0.036-16.551-0.081-33.086-0.146-49.569C231.047,48.897,231.038,45.461,231.023,42.028"/>
				</defs>
				<clipPath id="SVGID_5_">
					<use xlink:href="#SVGID_4_"  overflow="visible"/>
				</clipPath>
				
					<linearGradient id="SVGID_6_" gradientUnits="userSpaceOnUse" x1="72.7324" y1="127.0876" x2="173.7326" y2="104.0876" gradientTransform="matrix(1 0 0 -1 -56.7402 259.4458)">
					<stop  offset="0" style="stop-color:#DBC9B8"/>
					<stop  offset="0.3114" style="stop-color:#775024"/>
					<stop  offset="1" style="stop-color:#4E2700"/>
				</linearGradient>
				<rect x="20" y="36.5" clip-path="url(#SVGID_5_)" fill="url(#SVGID_6_)" width="215" height="242.5"/>
			</g>
		</g>
		<path fill="#3F1800" d="M126.277,276.838l-78.058-40.421C64.07,249.813,112.885,271.254,126.277,276.838"/>
		<path fill="#3F1800" d="M241.396,174.952c0,14.096-2.492,27.069-7.381,38.572c-5.138,12.009-12.898,22.403-23.104,30.87
			c-10.269,8.697-32.569,19.996-49.466,27.938c-9.668,4.55-18.491,8.447-24.207,10.915c-3.415,1.48-9.393,3.971-10.965,4.616v0.806
			c1.576-0.66,7.83-3.276,11.264-4.758c5.711-2.468,14.552-6.37,24.216-10.915c24.64-11.594,41.347-21.018,49.642-28.038
			c10.271-8.543,18.117-19.038,23.276-31.154c4.946-11.593,7.459-24.649,7.459-38.854V38.976l-0.731,0.425v135.552"/>
		<path fill="#3F1800" d="M11.925,38.99c41.56-22.976,92.959-25.195,113.111-25.085h1.237h1.261
			c20.149-0.109,71.545,2.11,113.104,25.085l0.758,0.411l0.732-0.425l-1.145-0.624c-41.709-23.061-93.238-25.284-113.465-25.175
			h-1.246h-1.238c-20.213-0.108-71.757,2.114-113.463,25.168l-1.141,0.624l0.736,0.432L11.925,38.99"/>
		<path fill="#3F1800" d="M17.894,213.806c5.175,12.116,13.011,22.611,23.296,31.164c8.281,7.012,24.973,16.436,49.62,28.028
			c9.661,4.545,18.51,8.447,24.22,10.915c3.42,1.48,9.69,4.098,11.246,4.758v-0.805c-1.555-0.646-7.534-3.137-10.957-4.617
			c-5.71-2.468-14.547-6.365-24.209-10.915c-16.895-7.942-39.183-19.241-49.445-27.925c-10.206-8.48-17.972-18.876-23.098-30.885
			c-4.895-11.503-7.38-24.478-7.38-38.572L11.168,39.401l-0.736-0.432l0.021,135.983C10.459,189.156,12.962,202.213,17.894,213.806"
			/>
		<path fill="#3F1800" d="M221.32,106.931l0.541,0.438l0.736-0.357l-0.822-0.66c-3.551-2.818-11.268-7.504-23.176-7.275l0.026,0.727
			C210.297,99.581,217.855,104.168,221.32,106.931"/>
		<path fill="#3F1800" d="M219.387,126.62c-3.572-3.786-9.826-7.887-16.676-8.003l-0.004,0.733
			c6.618,0.118,12.682,4.086,16.143,7.775l3.799,4.032l-0.728-1.844L219.387,126.62"/>
		<path fill="#3F1800" d="M192.465,126.823l0.723,0.015c0.172-6.912,6.715-7.536,9.521-7.486l0.004-0.733
			C200.361,118.578,192.654,119.042,192.465,126.823"/>
		<polyline fill="#3F1800" points="221.921,129.315 222.648,131.158 222.6,107.013 221.861,107.37 221.921,129.315 		"/>
		<path fill="#3F1800" d="M157.831,112.976c6.587,8.582,10.053,21.094,10.058,36.206h0.731c0-15.271-3.528-27.945-10.211-36.644
			c-6.943-9.053-17.249-13.832-29.804-13.851v0.734C140.926,99.434,151.032,104.121,157.831,112.976"/>
		<path fill="#3F1800" d="M170.255,127.365c0-10.123,4.894-16.534,9.009-20.153c5.215-4.572,12.279-7.271,19.363-7.407l-0.025-0.727
			c-7.238,0.142-14.477,2.901-19.815,7.583c-4.229,3.718-9.267,10.315-9.267,20.704c0,0.058,0,0.132,0,0.187h0.735
			C170.255,127.49,170.255,127.422,170.255,127.365"/>
		<path fill="#3F1800" d="M190.307,158.29l0.369-0.623c-17.019-10.089-20.365-18.69-20.421-30.116h-0.735
			C169.568,139.25,172.984,148.028,190.307,158.29"/>
		<path fill="#3F1800" d="M203.326,139.365l1.59,0.956l0.37-0.62l-1.581-0.956c-6.993-4.163-10.63-6.573-10.518-11.907l-0.724-0.015
			C192.329,132.83,196.698,135.418,203.326,139.365"/>
		<path fill="#3F1800" d="M194.688,200.975l0.006,0.729c9.646-0.096,17.688-3.42,23.263-9.614c4.698-5.236,7.44-12.274,7.692-19.797
			l-0.74-0.022C224.441,186.391,214.914,200.753,194.688,200.975"/>
		<path fill="#3F1800" d="M190.676,157.667l-0.369,0.623c8.81,5.25,11.258,8.068,11.365,13.21l0.732-0.019
			C202.282,166.093,199.657,162.998,190.676,157.667"/>
		<path fill="#3F1800" d="M199.955,178.448c1.6-1.635,2.458-3.947,2.458-6.662c0-0.104-0.009-0.203-0.009-0.304l-0.732,0.019
			c0.005,0.095,0.005,0.186,0.005,0.285c0,2.524-0.78,4.647-2.241,6.152c-1.726,1.768-4.332,2.688-7.549,2.688v0.731
			C195.302,181.358,198.1,180.346,199.955,178.448"/>
		<path fill="#3F1800" d="M221.43,155.525c2.633,4.667,3.668,9.678,3.479,16.743l0.74,0.022
			c0.334-12.353-2.959-22.106-20.361-32.593l-0.37,0.621C213.125,145.265,218.375,150.108,221.43,155.525"/>
		<path fill="#3F1800" d="M158.283,186.354c-6.578,9.533-16.106,14.57-27.551,14.589v0.719c11.701,0,21.434-5.146,28.146-14.892
			c6.37-9.243,9.741-22.246,9.741-37.588h-0.731C167.889,164.385,164.566,177.238,158.283,186.354"/>
		<path fill="#3F1800" d="M173.57,173.524c5.229,4.694,12.582,7.834,18.316,7.834v-0.731c-5.566,0-12.724-3.063-17.813-7.635
			l-3.655-3.284l0.73,1.64L173.57,173.524"/>
		<path fill="#3F1800" d="M171.811,194.649l-0.72-0.425l-0.739,0.411l1.092,0.638c7.106,4.221,15.365,6.511,23.25,6.43l-0.006-0.729
			C186.939,201.047,178.803,198.806,171.811,194.649"/>
		<polyline fill="#3F1800" points="171.148,171.347 170.418,169.707 170.352,194.636 171.091,194.225 171.148,171.347 		"/>
		<path fill="#3F1800" d="M123.717,120.257l-0.741-0.524c0,1.854,0,58.889,0,60.891l0.741-0.557
			C123.717,177.103,123.717,123.038,123.717,120.257"/>
		<path fill="#3F1800" d="M123.717,180.066l-0.741,0.557c1.265,0.375,3.108,0.809,5.172,0.809v-0.728
			C126.428,180.703,124.878,180.392,123.717,180.066"/>
		<path fill="#3F1800" d="M139.984,174.021c2.738-5.223,4.121-13.382,4.121-24.288h-0.724c-0.009,10.779-1.351,18.839-4.039,23.949
			c-2.524,4.775-6.075,7.021-11.194,7.021v0.728C133.498,181.431,137.37,179.004,139.984,174.021"/>
		<path fill="#3F1800" d="M122.99,200.207l0.732,0.895c2.105,0.37,4.445,0.578,7.012,0.561v-0.719
			C127.869,200.943,125.267,200.69,122.99,200.207"/>
		<path fill="#3F1800" d="M123.017,240.74l0.009,1.482l0.732,0.723l-0.005-2.205c0,0-0.031-34.817-0.031-39.639l-0.732-0.895
			C122.994,203.631,123.017,240.74,123.017,240.74"/>
		<path fill="#3F1800" d="M99.829,240.704c-0.224-43.321-0.285-87.921-0.186-132.526l0.007-0.795l-0.723-0.396l-0.007,1.185
			c-0.104,44.612-0.043,89.211,0.178,132.533l0.014,2.178l0.716-0.723L99.829,240.704"/>
		<rect x="99.113" y="242.159" fill="#3F1800" width="24.645" height="0.785"/>
		<path fill="#3F1800" d="M92.831,103.028c-0.11,29.167-0.099,58.958-0.018,88.555l0.005,0.776l0.734,0.385l-0.004-1.161
			c-0.088-29.598-0.082-59.388,0.018-88.555l0.004-2.214l-0.732,0.748L92.831,103.028"/>
		<path fill="#3F1800" d="M92.169,192.802c-8.089,5.489-18.896,8.317-31.272,8.2l-0.007,0.73c12.517,0.118,23.481-2.751,31.688-8.32
			l0.974-0.669l-0.734-0.385L92.169,192.802"/>
		<path fill="#3F1800" d="M69.616,179.104l-0.741-0.429c-1.868,0.953-4.421,1.478-7.319,1.459l-0.005,0.728
			C64.775,180.889,67.587,180.251,69.616,179.104"/>
		<path fill="#3F1800" d="M68.825,150.89c0,9.275,0.021,18.546,0.05,27.785l0.741,0.429c-0.032-9.374-0.05-18.789-0.05-28.214
			c0-15.963,0.043-31.94,0.111-47.744l0.007-1.44l-0.721-0.724l-0.02,2.164C68.875,118.949,68.825,134.926,68.825,150.89"/>
		<path fill="#3F1800" d="M37.564,192.196c-5.148-5.674-7.696-14.158-7.714-25.178h-0.734c0.032,11.204,2.634,19.847,7.906,25.68
			c5.358,5.888,13.386,8.933,23.868,9.035l0.007-0.73C50.629,200.889,42.78,197.938,37.564,192.196"/>
		<path fill="#3F1800" d="M54.138,176.61c1.479,2.832,3.91,4.22,7.414,4.251l0.005-0.728c-2.06-0.019-8.324-0.077-8.354-12.135
			l-0.734,0.005C52.479,171.608,53.04,174.505,54.138,176.61"/>
		<rect x="29.109" y="101.419" fill="#3F1800" width="0.741" height="65.599"/>
		<path fill="#3F1800" d="M52.572,103.351c-0.097,21.554-0.136,43.311-0.104,64.653l0.734-0.005
			c-0.039-21.338-0.007-43.095,0.097-64.648l0.02-2.228l-0.741,0.746L52.572,103.351"/>
		<polyline fill="#3F1800" points="91.369,101.568 92.837,101.562 93.569,100.814 91.355,100.828 68.963,100.981 69.684,101.704 
			91.369,101.568 		"/>
		<rect x="29.109" y="101.124" fill="#3F1800" width="24.209" height="1.022"/>
		<path fill="#3F1800" d="M128.75,119.486c5.245,0,8.62,1.969,10.92,6.425c2.493,4.812,3.704,12.598,3.713,23.822h0.725
			c0-11.342-1.229-19.255-3.787-24.162c-2.412-4.655-6.094-6.813-11.569-6.825L128.75,119.486"/>
		<path fill="#3F1800" d="M128.75,119.486v-0.74c-2.209,0-4.333,0.463-5.774,0.986l0.741,0.524
			C125.041,119.832,126.88,119.486,128.75,119.486"/>
		<path fill="#3F1800" d="M98.928,106.988l0.723,0.396l0.667-0.434c7.769-5.066,17.023-7.526,28.29-7.526v-0.734
			c-11.413,0-20.811,2.503-28.685,7.651L98.928,106.988"/>
		<path fill="#3F1800" d="M124.955,46.324c-40.541,8.123-74.899,25.46-102.128,51.537l0.734,0.321
			c27.093-25.86,61.242-43.071,101.534-51.14c30.297-6.045,64.252-7.025,103.734-3.017l0.735-0.667
			C189.729,39.265,155.491,40.234,124.955,46.324"/>
		<path fill="#3F1800" d="M229.051,150.862c0,8.088-0.01,16.156-0.014,24.188c-0.021,24.876-9.045,45.504-26.107,59.677
			c-14.693,12.41-59.492,32.533-76.65,39.727v0.79c16.97-7.099,62.283-27.414,77.123-39.951
			c17.231-14.313,26.345-35.148,26.375-60.241c0.006-8.032,0.015-16.102,0.015-24.188c0-35.567-0.081-71.62-0.226-107.501
			l-0.736,0.667C228.979,79.684,229.051,115.515,229.051,150.862"/>
		<path fill="#3F1800" d="M49.625,234.723c-17.055-14.168-26.082-34.806-26.1-59.672c-0.014-7.915-0.014-15.938-0.014-24.075
			c0-17.215,0.018-34.887,0.05-52.793l-0.734-0.321c-0.031,18.018-0.047,35.796-0.047,53.114c0,8.137,0.004,16.17,0.011,24.075
			c0.018,25.093,9.14,45.92,26.359,60.241c14.769,12.465,60.137,32.831,77.127,39.951v-0.79
			C109.102,267.233,64.24,247.065,49.625,234.723"/>
		<path fill="#3F1800" d="M127.521,12.438l-1.246,0.011l-1.234-0.011c-20.273-0.11-71.944,2.125-113.804,25.275L9.7,38.538
			l0.732,0.431l1.141-0.624c41.707-23.054,93.25-25.277,113.463-25.168h1.237h1.246c20.228-0.108,71.758,2.114,113.467,25.175
			l1.144,0.624l0.736-0.438l-1.527-0.825C199.48,14.564,147.793,12.328,127.521,12.438"/>
		<path fill="#3F1800" d="M242.13,174.952c0,14.203-2.513,27.261-7.459,38.854c-5.159,12.116-13.007,22.611-23.276,31.154
			c-8.295,7.021-25.002,16.444-49.642,28.038c-9.664,4.545-18.505,8.447-24.216,10.915c-3.434,1.48-9.688,4.098-11.264,4.758v0.785
			c1.576-0.659,8.119-3.385,11.558-4.865c5.715-2.484,14.562-6.379,24.247-10.929c24.676-11.615,41.429-21.085,49.777-28.143
			c10.377-8.62,18.297-19.195,23.502-31.431c4.97-11.674,7.498-24.835,7.509-39.138V38.538l-0.736,0.438V174.952"/>
		<path fill="#3F1800" d="M115.029,283.913c-5.71-2.468-14.559-6.37-24.22-10.915c-24.647-11.594-41.338-21.018-49.62-28.028
			c-10.285-8.553-18.121-19.048-23.296-31.164c-4.932-11.593-7.434-24.649-7.441-38.854l-0.02-135.983L9.7,38.538l0.018,136.414
			c0.011,14.303,2.528,27.464,7.504,39.138c5.209,12.233,13.12,22.811,23.493,31.431c8.349,7.058,25.094,16.526,49.777,28.143
			c9.668,4.55,18.523,8.443,24.238,10.929c3.424,1.48,9.989,4.206,11.543,4.865v-0.785
			C124.72,288.011,118.449,285.395,115.029,283.913"/>
		<g>
			<g>
				<defs>
					<path id="SVGID_7_" d="M199.436,177.938c1.461-1.505,2.241-3.628,2.241-6.152c0-0.101,0-0.19-0.005-0.285l-0.736,0.014
						c0.006,0.095,0.006,0.187,0.006,0.275c0,2.366-0.688,4.252-2.033,5.644c-1.581,1.612-4.012,2.453-7.021,2.453v0.74
						C195.104,180.626,197.71,179.705,199.436,177.938"/>
				</defs>
				<clipPath id="SVGID_8_">
					<use xlink:href="#SVGID_7_"  overflow="visible"/>
				</clipPath>
				<path clip-path="url(#SVGID_8_)" fill="#492300" d="M199.436,177.938c1.461-1.505,2.241-3.628,2.241-6.152
					c0-0.101,0-0.19-0.005-0.285l-0.736,0.014c0.006,0.095,0.006,0.187,0.006,0.275c0,2.366-0.688,4.252-2.033,5.644
					c-1.581,1.612-4.012,2.453-7.021,2.453v0.74C195.104,180.626,197.71,179.705,199.436,177.938"/>
			</g>
			<g>
				<defs>
					<path id="SVGID_9_" d="M199.436,177.938c1.461-1.505,2.241-3.628,2.241-6.152c0-0.101,0-0.19-0.005-0.285l-0.736,0.014
						c0.006,0.095,0.006,0.187,0.006,0.275c0,2.366-0.688,4.252-2.033,5.644c-1.581,1.612-4.012,2.453-7.021,2.453v0.74
						C195.104,180.626,197.71,179.705,199.436,177.938"/>
				</defs>
				<clipPath id="SVGID_10_">
					<use xlink:href="#SVGID_9_"  overflow="visible"/>
				</clipPath>
				
					<linearGradient id="SVGID_11_" gradientUnits="userSpaceOnUse" x1="-575.8145" y1="27.1614" x2="-571.189" y2="27.1614" gradientTransform="matrix(2.1164 0 0 4.7729 1410.5403 46.4238)">
					<stop  offset="0" style="stop-color:#492300"/>
					<stop  offset="1" style="stop-color:#492300"/>
				</linearGradient>
				<rect x="191.887" y="171.5" clip-path="url(#SVGID_10_)" fill="url(#SVGID_11_)" width="9.79" height="9.126"/>
			</g>
		</g>
		<polyline fill="#3F1800" points="170.418,169.707 169.695,168.076 169.623,195.043 170.352,194.636 170.418,169.707 		"/>
		<g>
			<g>
				<defs>
					<path id="SVGID_12_" d="M225.648,172.291l0.719,0.03c0.355-12.622-2.991-22.57-20.701-33.253l-0.38,0.631
						C222.689,150.185,225.982,159.939,225.648,172.291"/>
				</defs>
				<clipPath id="SVGID_13_">
					<use xlink:href="#SVGID_12_"  overflow="visible"/>
				</clipPath>
				<path clip-path="url(#SVGID_13_)" fill="#70491C" d="M225.648,172.291l0.719,0.03c0.355-12.622-2.991-22.57-20.701-33.253
					l-0.38,0.631C222.689,150.185,225.982,159.939,225.648,172.291"/>
			</g>
			<g>
				<defs>
					<path id="SVGID_14_" d="M225.648,172.291l0.719,0.03c0.355-12.622-2.991-22.57-20.701-33.253l-0.38,0.631
						C222.689,150.185,225.982,159.939,225.648,172.291"/>
				</defs>
				<clipPath id="SVGID_15_">
					<use xlink:href="#SVGID_14_"  overflow="visible"/>
				</clipPath>
				
					<linearGradient id="SVGID_16_" gradientUnits="userSpaceOnUse" x1="-673.7559" y1="-22.822" x2="-669.1282" y2="-22.822" gradientTransform="matrix(4.5568 0 0 9.988 3275.481 383.6398)">
					<stop  offset="0" style="stop-color:#70491C"/>
					<stop  offset="1" style="stop-color:#9C7955"/>
				</linearGradient>
				<rect x="205.286" y="139.069" clip-path="url(#SVGID_15_)" fill="url(#SVGID_16_)" width="21.438" height="33.253"/>
			</g>
		</g>
		<g>
			<g>
				<defs>
					<path id="SVGID_17_" d="M171.443,195.273l-1.094-0.638l-0.728,0.407l1.444,0.872c7.225,4.281,15.613,6.608,23.625,6.515v-0.728
						C186.809,201.783,178.55,199.493,171.443,195.273 M225.648,172.291l0.719,0.03c-0.254,7.698-3.045,14.896-7.87,20.255
						c-5.72,6.348-13.942,9.754-23.806,9.854v-0.728c9.646-0.096,17.688-3.42,23.264-9.614
						C222.652,186.852,225.396,179.813,225.648,172.291z"/>
				</defs>
				<clipPath id="SVGID_18_">
					<use xlink:href="#SVGID_17_"  overflow="visible"/>
				</clipPath>
				<path clip-path="url(#SVGID_18_)" fill="#492300" d="M171.443,195.273l-1.094-0.638l-0.728,0.407l1.444,0.872
					c7.225,4.281,15.613,6.608,23.625,6.515v-0.728C186.809,201.783,178.55,199.493,171.443,195.273 M225.648,172.291l0.719,0.03
					c-0.254,7.698-3.045,14.896-7.87,20.255c-5.72,6.348-13.942,9.754-23.806,9.854v-0.728c9.646-0.096,17.688-3.42,23.264-9.614
					C222.652,186.852,225.396,179.813,225.648,172.291z"/>
			</g>
			<g>
				<defs>
					<path id="SVGID_19_" d="M171.443,195.273l-1.094-0.638l-0.728,0.407l1.444,0.872c7.225,4.281,15.613,6.608,23.625,6.515v-0.728
						C186.809,201.783,178.55,199.493,171.443,195.273 M225.648,172.291l0.719,0.03c-0.254,7.698-3.045,14.896-7.87,20.255
						c-5.72,6.348-13.942,9.754-23.806,9.854v-0.728c9.646-0.096,17.688-3.42,23.264-9.614
						C222.652,186.852,225.396,179.813,225.648,172.291z"/>
				</defs>
				<clipPath id="SVGID_20_">
					<use xlink:href="#SVGID_19_"  overflow="visible"/>
				</clipPath>
				
					<linearGradient id="SVGID_21_" gradientUnits="userSpaceOnUse" x1="-732.1265" y1="-17.1736" x2="-727.5005" y2="-17.1736" gradientTransform="matrix(12.2657 0 0 9.3352 9149.6699 347.73)">
					<stop  offset="0" style="stop-color:#492300"/>
					<stop  offset="1" style="stop-color:#9C7955"/>
				</linearGradient>
				<rect x="169.623" y="172.291" clip-path="url(#SVGID_20_)" fill="url(#SVGID_21_)" width="56.744" height="30.232"/>
			</g>
		</g>
		<g>
			<g>
				<defs>
					<path id="SVGID_22_" d="M174.073,172.991c5.091,4.571,12.247,7.635,17.813,7.635v-0.74c-5.322,0-12.443-3.05-17.326-7.438
						l-4.865-4.372l0.723,1.631L174.073,172.991"/>
				</defs>
				<clipPath id="SVGID_23_">
					<use xlink:href="#SVGID_22_"  overflow="visible"/>
				</clipPath>
				<path clip-path="url(#SVGID_23_)" fill="#663F0F" d="M174.073,172.991c5.091,4.571,12.247,7.635,17.813,7.635v-0.74
					c-5.322,0-12.443-3.05-17.326-7.438l-4.865-4.372l0.723,1.631L174.073,172.991"/>
			</g>
			<g>
				<defs>
					<path id="SVGID_24_" d="M174.073,172.991c5.091,4.571,12.247,7.635,17.813,7.635v-0.74c-5.322,0-12.443-3.05-17.326-7.438
						l-4.865-4.372l0.723,1.631L174.073,172.991"/>
				</defs>
				<clipPath id="SVGID_25_">
					<use xlink:href="#SVGID_24_"  overflow="visible"/>
				</clipPath>
				
					<linearGradient id="SVGID_26_" gradientUnits="userSpaceOnUse" x1="-684.0259" y1="14.4827" x2="-679.3984" y2="14.4827" gradientTransform="matrix(4.7961 0 0 5.5125 3450.3511 94.5161)">
					<stop  offset="0" style="stop-color:#663F0F"/>
					<stop  offset="1" style="stop-color:#492300"/>
				</linearGradient>
				<rect x="169.695" y="168.076" clip-path="url(#SVGID_25_)" fill="url(#SVGID_26_)" width="22.191" height="12.55"/>
			</g>
		</g>
		<g>
			<g>
				<defs>
					<path id="SVGID_27_" d="M203.705,138.744l1.581,0.956l0.38-0.631l-1.59-0.956c-6.939-4.125-10.256-6.334-10.152-11.258
						l-0.736-0.018C193.075,132.17,196.712,134.581,203.705,138.744"/>
				</defs>
				<clipPath id="SVGID_28_">
					<use xlink:href="#SVGID_27_"  overflow="visible"/>
				</clipPath>
				<path clip-path="url(#SVGID_28_)" fill="#70491C" d="M203.705,138.744l1.581,0.956l0.38-0.631l-1.59-0.956
					c-6.939-4.125-10.256-6.334-10.152-11.258l-0.736-0.018C193.075,132.17,196.712,134.581,203.705,138.744"/>
			</g>
			<g>
				<defs>
					<path id="SVGID_29_" d="M203.705,138.744l1.581,0.956l0.38-0.631l-1.59-0.956c-6.939-4.125-10.256-6.334-10.152-11.258
						l-0.736-0.018C193.075,132.17,196.712,134.581,203.705,138.744"/>
				</defs>
				<clipPath id="SVGID_30_">
					<use xlink:href="#SVGID_29_"  overflow="visible"/>
				</clipPath>
				
					<linearGradient id="SVGID_31_" gradientUnits="userSpaceOnUse" x1="-913.9478" y1="-138.739" x2="-909.3211" y2="-138.739" gradientTransform="matrix(-2.6961 0 0 -5.5802 -2258.4285 -640.9242)">
					<stop  offset="0" style="stop-color:#70491C"/>
					<stop  offset="1" style="stop-color:#9C7955"/>
				</linearGradient>
				<rect x="193.075" y="126.837" clip-path="url(#SVGID_30_)" fill="url(#SVGID_31_)" width="12.591" height="12.862"/>
			</g>
		</g>
		<g>
			<g>
				<defs>
					<path id="SVGID_32_" d="M53.3,103.351c-0.104,21.554-0.136,43.311-0.097,64.648h0.732c-0.036-21.338-0.005-43.095,0.092-64.643
						l0.018-2.973l-0.725,0.739L53.3,103.351"/>
				</defs>
				<clipPath id="SVGID_33_">
					<use xlink:href="#SVGID_32_"  overflow="visible"/>
				</clipPath>
				<path clip-path="url(#SVGID_33_)" fill="#9C7955" d="M53.3,103.351c-0.104,21.554-0.136,43.311-0.097,64.648h0.732
					c-0.036-21.338-0.005-43.095,0.092-64.643l0.018-2.973l-0.725,0.739L53.3,103.351"/>
			</g>
			<g>
				<defs>
					<path id="SVGID_34_" d="M53.3,103.351c-0.104,21.554-0.136,43.311-0.097,64.648h0.732c-0.036-21.338-0.005-43.095,0.092-64.643
						l0.018-2.973l-0.725,0.739L53.3,103.351"/>
				</defs>
				<clipPath id="SVGID_35_">
					<use xlink:href="#SVGID_34_"  overflow="visible"/>
				</clipPath>
				
					<linearGradient id="SVGID_36_" gradientUnits="userSpaceOnUse" x1="-792.8262" y1="30.719" x2="-788.2002" y2="30.719" gradientTransform="matrix(0 -14.6153 2.9907 0 -38.2671 -11419.3965)">
					<stop  offset="0" style="stop-color:#9C7955"/>
					<stop  offset="1" style="stop-color:#AF906F"/>
				</linearGradient>
				<rect x="53.164" y="100.385" clip-path="url(#SVGID_35_)" fill="url(#SVGID_36_)" width="0.881" height="67.614"/>
			</g>
		</g>
		<path fill="#8A643E" d="M124.444,120.799l-0.728-0.542c0,2.781,0,56.846,0,59.81l0.728-0.573
			C124.444,175.603,124.444,124.488,124.444,120.799"/>
		<rect x="28.381" y="100.385" fill="#785228" width="25.664" height="1.035"/>
		<path fill="#70491C" d="M68.825,150.89c0-15.963,0.05-31.94,0.118-47.744l0.02-2.164l-0.734-0.728l-0.007,2.892
			c-0.082,15.799-0.118,31.781-0.118,47.744c0,9.126,0.014,18.243,0.036,27.329l0.734,0.456
			C68.846,169.436,68.825,160.165,68.825,150.89"/>
		<g>
			<g>
				<defs>
					<path id="SVGID_37_" d="M61.556,180.134l0.004-0.736c-2.076-0.009-7.601-0.055-7.626-11.397h-0.732
						C53.232,180.057,59.496,180.116,61.556,180.134 M61.556,180.134l0.004-0.736c2.591,0.019,4.861-0.401,6.58-1.179l0.734,0.456
						C67.007,179.628,64.454,180.152,61.556,180.134z"/>
				</defs>
				<clipPath id="SVGID_38_">
					<use xlink:href="#SVGID_37_"  overflow="visible"/>
				</clipPath>
				<path clip-path="url(#SVGID_38_)" fill="#532D00" d="M61.556,180.134l0.004-0.736c-2.076-0.009-7.601-0.055-7.626-11.397h-0.732
					C53.232,180.057,59.496,180.116,61.556,180.134 M61.556,180.134l0.004-0.736c2.591,0.019,4.861-0.401,6.58-1.179l0.734,0.456
					C67.007,179.628,64.454,180.152,61.556,180.134z"/>
			</g>
			<g>
				<defs>
					<path id="SVGID_39_" d="M61.556,180.134l0.004-0.736c-2.076-0.009-7.601-0.055-7.626-11.397h-0.732
						C53.232,180.057,59.496,180.116,61.556,180.134 M61.556,180.134l0.004-0.736c2.591,0.019,4.861-0.401,6.58-1.179l0.734,0.456
						C67.007,179.628,64.454,180.152,61.556,180.134z"/>
				</defs>
				<clipPath id="SVGID_40_">
					<use xlink:href="#SVGID_39_"  overflow="visible"/>
				</clipPath>
				
					<linearGradient id="SVGID_41_" gradientUnits="userSpaceOnUse" x1="-851.4731" y1="-146.696" x2="-846.8472" y2="-146.696" gradientTransform="matrix(-3.3879 0 0 -5.4271 -2815.8323 -622.0635)">
					<stop  offset="0" style="stop-color:#532D00"/>
					<stop  offset="1" style="stop-color:#9C7955"/>
				</linearGradient>
				<rect x="53.203" y="167.999" clip-path="url(#SVGID_40_)" fill="url(#SVGID_41_)" width="15.672" height="12.152"/>
			</g>
		</g>
		<polyline fill="#663F0F" points="68.229,100.254 68.963,100.981 91.355,100.828 93.569,100.814 94.299,100.082 91.355,100.1 
			68.229,100.254 		"/>
		<g>
			<g>
				<defs>
					<path id="SVGID_42_" d="M92.578,193.412c-8.207,5.569-19.171,8.438-31.688,8.32l-0.007,0.732
						c12.672,0.112,23.784-2.802,32.108-8.458l1.288-0.876l-0.728-0.389L92.578,193.412 M37.022,192.698
						c-5.272-5.833-7.877-14.476-7.909-25.68h-0.734c0.025,11.403,2.708,20.199,8.105,26.163c5.496,6.04,13.703,9.176,24.398,9.284
						l0.007-0.732C50.408,201.63,42.38,198.585,37.022,192.698z M28.381,100.706l0.728,0.714l0.004,65.599h-0.734L28.381,100.706z"
						/>
				</defs>
				<clipPath id="SVGID_43_">
					<use xlink:href="#SVGID_42_"  overflow="visible"/>
				</clipPath>
				<path clip-path="url(#SVGID_43_)" fill="#815B33" d="M92.578,193.412c-8.207,5.569-19.171,8.438-31.688,8.32l-0.007,0.732
					c12.672,0.112,23.784-2.802,32.108-8.458l1.288-0.876l-0.728-0.389L92.578,193.412 M37.022,192.698
					c-5.272-5.833-7.877-14.476-7.909-25.68h-0.734c0.025,11.403,2.708,20.199,8.105,26.163c5.496,6.04,13.703,9.176,24.398,9.284
					l0.007-0.732C50.408,201.63,42.38,198.585,37.022,192.698z M28.381,100.706l0.728,0.714l0.004,65.599h-0.734L28.381,100.706z"/>
			</g>
			<g>
				<defs>
					<path id="SVGID_44_" d="M92.578,193.412c-8.207,5.569-19.171,8.438-31.688,8.32l-0.007,0.732
						c12.672,0.112,23.784-2.802,32.108-8.458l1.288-0.876l-0.728-0.389L92.578,193.412 M37.022,192.698
						c-5.272-5.833-7.877-14.476-7.909-25.68h-0.734c0.025,11.403,2.708,20.199,8.105,26.163c5.496,6.04,13.703,9.176,24.398,9.284
						l0.007-0.732C50.408,201.63,42.38,198.585,37.022,192.698z M28.381,100.706l0.728,0.714l0.004,65.599h-0.734L28.381,100.706z"
						/>
				</defs>
				<clipPath id="SVGID_45_">
					<use xlink:href="#SVGID_44_"  overflow="visible"/>
				</clipPath>
				
					<linearGradient id="SVGID_46_" gradientUnits="userSpaceOnUse" x1="-744.1855" y1="-48.4524" x2="-739.5591" y2="-48.4524" gradientTransform="matrix(14.2448 0 0 24.8207 10629.1602 1354.2759)">
					<stop  offset="0" style="stop-color:#815B33"/>
					<stop  offset="1" style="stop-color:#9C7955"/>
				</linearGradient>
				<rect x="28.379" y="100.706" clip-path="url(#SVGID_45_)" fill="url(#SVGID_46_)" width="65.899" height="101.873"/>
			</g>
		</g>
		<path fill="#8A643E" d="M93.565,103.028c-0.1,29.167-0.106,58.958-0.018,88.555l0.004,1.161l0.728,0.389l-0.004-1.55
			c-0.082-29.602-0.082-59.388,0.018-88.541l0.006-2.959l-0.729,0.731L93.565,103.028"/>
		<g>
			<g>
				<defs>
					<path id="SVGID_47_" d="M190.307,158.29l-0.381,0.633c8.543,5.078,10.915,7.771,11.01,12.591l0.736-0.014
						C201.563,166.359,199.115,163.54,190.307,158.29 M190.307,158.29l-0.381,0.633c-8.385-4.976-13.802-9.75-17.068-15.024
						c-2.818-4.599-4.033-9.492-4.065-16.341l0.728-0.007C169.568,139.25,172.984,148.028,190.307,158.29z"/>
				</defs>
				<clipPath id="SVGID_48_">
					<use xlink:href="#SVGID_47_"  overflow="visible"/>
				</clipPath>
				<path clip-path="url(#SVGID_48_)" fill="#492300" d="M190.307,158.29l-0.381,0.633c8.543,5.078,10.915,7.771,11.01,12.591
					l0.736-0.014C201.563,166.359,199.115,163.54,190.307,158.29 M190.307,158.29l-0.381,0.633
					c-8.385-4.976-13.802-9.75-17.068-15.024c-2.818-4.599-4.033-9.492-4.065-16.341l0.728-0.007
					C169.568,139.25,172.984,148.028,190.307,158.29z"/>
			</g>
			<g>
				<defs>
					<path id="SVGID_49_" d="M190.307,158.29l-0.381,0.633c8.543,5.078,10.915,7.771,11.01,12.591l0.736-0.014
						C201.563,166.359,199.115,163.54,190.307,158.29 M190.307,158.29l-0.381,0.633c-8.385-4.976-13.802-9.75-17.068-15.024
						c-2.818-4.599-4.033-9.492-4.065-16.341l0.728-0.007C169.568,139.25,172.984,148.028,190.307,158.29z"/>
				</defs>
				<clipPath id="SVGID_50_">
					<use xlink:href="#SVGID_49_"  overflow="visible"/>
				</clipPath>
				
					<linearGradient id="SVGID_51_" gradientUnits="userSpaceOnUse" x1="-709.8003" y1="-31.2449" x2="-705.1733" y2="-31.2449" gradientTransform="matrix(7.1067 0 0 12.3026 5213.1284 533.9246)">
					<stop  offset="0" style="stop-color:#492300"/>
					<stop  offset="0.5" style="stop-color:#9C7955"/>
					<stop  offset="1" style="stop-color:#492300"/>
				</linearGradient>
				<rect x="168.791" y="127.551" clip-path="url(#SVGID_50_)" fill="url(#SVGID_51_)" width="32.881" height="43.963"/>
			</g>
		</g>
		<path fill="#532D00" d="M99.099,240.704c-0.221-43.321-0.282-87.921-0.178-132.533l0.007-1.185l-0.734-0.399l-0.004,1.583
			c-0.1,44.611-0.05,89.216,0.178,132.542l0.018,2.899l0.728-0.731L99.099,240.704"/>
		<g>
			<g>
				<defs>
					<path id="SVGID_52_" d="M138.686,173.335c-2.377,4.521-5.721,6.627-10.545,6.627l0.01,0.741c5.117,0,8.668-2.245,11.193-7.021
						c2.688-5.11,4.03-13.17,4.039-23.949h-0.73C142.65,160.396,141.313,168.338,138.686,173.335 M128.141,179.962l0.01,0.741
						c-1.723,0-3.271-0.313-4.434-0.638l0.728-0.573C125.479,179.759,126.758,179.962,128.141,179.962z"/>
				</defs>
				<clipPath id="SVGID_53_">
					<use xlink:href="#SVGID_52_"  overflow="visible"/>
				</clipPath>
				<path clip-path="url(#SVGID_53_)" fill="#492300" d="M138.686,173.335c-2.377,4.521-5.721,6.627-10.545,6.627l0.01,0.741
					c5.117,0,8.668-2.245,11.193-7.021c2.688-5.11,4.03-13.17,4.039-23.949h-0.73C142.65,160.396,141.313,168.338,138.686,173.335
					 M128.141,179.962l0.01,0.741c-1.723,0-3.271-0.313-4.434-0.638l0.728-0.573C125.479,179.759,126.758,179.962,128.141,179.962z"
					/>
			</g>
			<g>
				<defs>
					<path id="SVGID_54_" d="M138.686,173.335c-2.377,4.521-5.721,6.627-10.545,6.627l0.01,0.741c5.117,0,8.668-2.245,11.193-7.021
						c2.688-5.11,4.03-13.17,4.039-23.949h-0.73C142.65,160.396,141.313,168.338,138.686,173.335 M128.141,179.962l0.01,0.741
						c-1.723,0-3.271-0.313-4.434-0.638l0.728-0.573C125.479,179.759,126.758,179.962,128.141,179.962z"/>
				</defs>
				<clipPath id="SVGID_55_">
					<use xlink:href="#SVGID_54_"  overflow="visible"/>
				</clipPath>
				
					<linearGradient id="SVGID_56_" gradientUnits="userSpaceOnUse" x1="-847.2451" y1="-111.1824" x2="-842.6191" y2="-111.1824" gradientTransform="matrix(-4.2513 0 0 -9.4948 -3458.4893 -890.4286)">
					<stop  offset="0" style="stop-color:#492300"/>
					<stop  offset="1" style="stop-color:#70491C"/>
				</linearGradient>
				<rect x="123.717" y="149.733" clip-path="url(#SVGID_55_)" fill="url(#SVGID_56_)" width="19.666" height="30.971"/>
			</g>
		</g>
		<g>
			<g>
				<defs>
					<path id="SVGID_57_" d="M128.75,119.486L128.75,119.486v0.729c4.93,0,8.109,1.861,10.266,6.036
						c2.443,4.693,3.631,12.383,3.637,23.483h0.73c-0.009-11.225-1.22-19.011-3.713-23.822
						C137.37,121.454,133.995,119.486,128.75,119.486 M124.444,120.799l-0.728-0.542c1.324-0.425,3.163-0.771,5.033-0.771v0.729
						C127.184,120.214,125.637,120.467,124.444,120.799z"/>
				</defs>
				<clipPath id="SVGID_58_">
					<use xlink:href="#SVGID_57_"  overflow="visible"/>
				</clipPath>
				<path clip-path="url(#SVGID_58_)" fill="#492300" d="M128.75,119.486L128.75,119.486v0.729c4.93,0,8.109,1.861,10.266,6.036
					c2.443,4.693,3.631,12.383,3.637,23.483h0.73c-0.009-11.225-1.22-19.011-3.713-23.822
					C137.37,121.454,133.995,119.486,128.75,119.486 M124.444,120.799l-0.728-0.542c1.324-0.425,3.163-0.771,5.033-0.771v0.729
					C127.184,120.214,125.637,120.467,124.444,120.799z"/>
			</g>
			<g>
				<defs>
					<path id="SVGID_59_" d="M128.75,119.486L128.75,119.486v0.729c4.93,0,8.109,1.861,10.266,6.036
						c2.443,4.693,3.631,12.383,3.637,23.483h0.73c-0.009-11.225-1.22-19.011-3.713-23.822
						C137.37,121.454,133.995,119.486,128.75,119.486 M124.444,120.799l-0.728-0.542c1.324-0.425,3.163-0.771,5.033-0.771v0.729
						C127.184,120.214,125.637,120.467,124.444,120.799z"/>
				</defs>
				<clipPath id="SVGID_60_">
					<use xlink:href="#SVGID_59_"  overflow="visible"/>
				</clipPath>
				
					<linearGradient id="SVGID_61_" gradientUnits="userSpaceOnUse" x1="-847.2402" y1="-109.3816" x2="-842.6143" y2="-109.3816" gradientTransform="matrix(-4.2513 0 0 -9.3376 -3458.4893 -886.7512)">
					<stop  offset="0" style="stop-color:#492300"/>
					<stop  offset="1" style="stop-color:#9C7955"/>
				</linearGradient>
				<rect x="123.717" y="119.486" clip-path="url(#SVGID_60_)" fill="url(#SVGID_61_)" width="19.666" height="30.247"/>
			</g>
		</g>
		<rect x="98.385" y="242.882" fill="#8A643E" width="26.109" height="0.8"/>
		<g>
			<g>
				<defs>
					<path id="SVGID_62_" d="M99.921,106.339c7.875-5.148,17.272-7.651,28.685-7.651V97.96c-11.563,0-21.077,2.527-29.09,7.762
						l-1.322,0.865l0.734,0.399L99.921,106.339 M128.605,97.961v0.728c12.555,0.019,22.859,4.798,29.804,13.851
						c6.683,8.698,10.211,21.372,10.211,36.644h0.739c-0.018-15.439-3.592-28.266-10.362-37.096
						C151.913,102.856,141.404,97.972,128.605,97.961z M123.722,201.102l0.727,0.867c1.929,0.284,4.016,0.429,6.285,0.429v-0.735
						C128.167,201.68,125.827,201.472,123.722,201.102z M168.62,149.182h0.739c0,15.497-3.409,28.638-9.875,38.013
						c-6.857,9.936-16.803,15.198-28.752,15.202v-0.735c11.701,0,21.434-5.146,28.146-14.892
						C165.249,177.527,168.62,164.524,168.62,149.182z"/>
				</defs>
				<clipPath id="SVGID_63_">
					<use xlink:href="#SVGID_62_"  overflow="visible"/>
				</clipPath>
				<path clip-path="url(#SVGID_63_)" fill="#3E1700" d="M99.921,106.339c7.875-5.148,17.272-7.651,28.685-7.651V97.96
					c-11.563,0-21.077,2.527-29.09,7.762l-1.322,0.865l0.734,0.399L99.921,106.339 M128.605,97.961v0.728
					c12.555,0.019,22.859,4.798,29.804,13.851c6.683,8.698,10.211,21.372,10.211,36.644h0.739
					c-0.018-15.439-3.592-28.266-10.362-37.096C151.913,102.856,141.404,97.972,128.605,97.961z M123.722,201.102l0.727,0.867
					c1.929,0.284,4.016,0.429,6.285,0.429v-0.735C128.167,201.68,125.827,201.472,123.722,201.102z M168.62,149.182h0.739
					c0,15.497-3.409,28.638-9.875,38.013c-6.857,9.936-16.803,15.198-28.752,15.202v-0.735c11.701,0,21.434-5.146,28.146-14.892
					C165.249,177.527,168.62,164.524,168.62,149.182z"/>
			</g>
			<g>
				<defs>
					<path id="SVGID_64_" d="M99.921,106.339c7.875-5.148,17.272-7.651,28.685-7.651V97.96c-11.563,0-21.077,2.527-29.09,7.762
						l-1.322,0.865l0.734,0.399L99.921,106.339 M128.605,97.961v0.728c12.555,0.019,22.859,4.798,29.804,13.851
						c6.683,8.698,10.211,21.372,10.211,36.644h0.739c-0.018-15.439-3.592-28.266-10.362-37.096
						C151.913,102.856,141.404,97.972,128.605,97.961z M123.722,201.102l0.727,0.867c1.929,0.284,4.016,0.429,6.285,0.429v-0.735
						C128.167,201.68,125.827,201.472,123.722,201.102z M168.62,149.182h0.739c0,15.497-3.409,28.638-9.875,38.013
						c-6.857,9.936-16.803,15.198-28.752,15.202v-0.735c11.701,0,21.434-5.146,28.146-14.892
						C165.249,177.527,168.62,164.524,168.62,149.182z"/>
				</defs>
				<clipPath id="SVGID_65_">
					<use xlink:href="#SVGID_64_"  overflow="visible"/>
				</clipPath>
				
					<linearGradient id="SVGID_66_" gradientUnits="userSpaceOnUse" x1="-742.019" y1="-48.8713" x2="-737.3926" y2="-48.8713" gradientTransform="matrix(15.3826 0 0 25.3747 11512.3818 1390.2733)">
					<stop  offset="0" style="stop-color:#3E1700"/>
					<stop  offset="1" style="stop-color:#9C7955"/>
				</linearGradient>
				<rect x="98.193" y="97.961" clip-path="url(#SVGID_65_)" fill="url(#SVGID_66_)" width="71.167" height="104.437"/>
			</g>
		</g>
		<polyline fill="#8A643E" points="222.648,131.158 223.395,133.001 223.331,106.656 222.6,107.013 222.648,131.158 		"/>
		<g>
			<g>
				<defs>
					<path id="SVGID_67_" d="M218.85,127.126c-3.461-3.689-9.523-7.658-16.143-7.775l-0.02,0.734
						c6.397,0.11,12.268,3.969,15.638,7.547l5.069,5.37l-0.746-1.843L218.85,127.126 M202.707,119.351l-0.02,0.734
						c-2.488-0.058-4.703,0.499-6.226,1.554c-1.657,1.127-2.479,2.842-2.539,5.216l-0.735-0.018
						C193.359,119.925,199.9,119.301,202.707,119.351z"/>
				</defs>
				<clipPath id="SVGID_68_">
					<use xlink:href="#SVGID_67_"  overflow="visible"/>
				</clipPath>
				<path clip-path="url(#SVGID_68_)" fill="#3E1700" d="M218.85,127.126c-3.461-3.689-9.523-7.658-16.143-7.775l-0.02,0.734
					c6.397,0.11,12.268,3.969,15.638,7.547l5.069,5.37l-0.746-1.843L218.85,127.126 M202.707,119.351l-0.02,0.734
					c-2.488-0.058-4.703,0.499-6.226,1.554c-1.657,1.127-2.479,2.842-2.539,5.216l-0.735-0.018
					C193.359,119.925,199.9,119.301,202.707,119.351z"/>
			</g>
			<g>
				<defs>
					<path id="SVGID_69_" d="M218.85,127.126c-3.461-3.689-9.523-7.658-16.143-7.775l-0.02,0.734
						c6.397,0.11,12.268,3.969,15.638,7.547l5.069,5.37l-0.746-1.843L218.85,127.126 M202.707,119.351l-0.02,0.734
						c-2.488-0.058-4.703,0.499-6.226,1.554c-1.657,1.127-2.479,2.842-2.539,5.216l-0.735-0.018
						C193.359,119.925,199.9,119.301,202.707,119.351z"/>
				</defs>
				<clipPath id="SVGID_70_">
					<use xlink:href="#SVGID_69_"  overflow="visible"/>
				</clipPath>
				
					<linearGradient id="SVGID_71_" gradientUnits="userSpaceOnUse" x1="-827.4614" y1="-135.4734" x2="-822.835" y2="-135.4734" gradientTransform="matrix(-6.529 0 0 -5.7613 -5179.0986 -654.3523)">
					<stop  offset="0" style="stop-color:#3E1700"/>
					<stop  offset="1" style="stop-color:#9C7955"/>
				</linearGradient>
				<rect x="193.188" y="119.301" clip-path="url(#SVGID_70_)" fill="url(#SVGID_71_)" width="30.207" height="13.7"/>
			</g>
		</g>
		<g>
			<g>
				<defs>
					<path id="SVGID_72_" d="M168.791,127.379c0,0.054,0,0.122,0,0.179l0.729-0.007c0-0.054,0-0.129,0-0.187
						c0-10.389,5.037-16.986,9.267-20.704c5.34-4.682,12.577-7.441,19.815-7.583l-0.006-0.734
						c-7.423,0.149-14.818,2.978-20.304,7.775C172.162,111.494,168.791,119.042,168.791,127.379 M198.602,99.077l-0.006-0.734
						c12.131-0.229,20.02,4.556,23.643,7.441l1.094,0.871l-0.732,0.357l-0.822-0.66C218.227,103.534,210.509,98.849,198.602,99.077z
						"/>
				</defs>
				<clipPath id="SVGID_73_">
					<use xlink:href="#SVGID_72_"  overflow="visible"/>
				</clipPath>
				<path clip-path="url(#SVGID_73_)" fill="#492300" d="M168.791,127.379c0,0.054,0,0.122,0,0.179l0.729-0.007
					c0-0.054,0-0.129,0-0.187c0-10.389,5.037-16.986,9.267-20.704c5.34-4.682,12.577-7.441,19.815-7.583l-0.006-0.734
					c-7.423,0.149-14.818,2.978-20.304,7.775C172.162,111.494,168.791,119.042,168.791,127.379 M198.602,99.077l-0.006-0.734
					c12.131-0.229,20.02,4.556,23.643,7.441l1.094,0.871l-0.732,0.357l-0.822-0.66C218.227,103.534,210.509,98.849,198.602,99.077z"
					/>
			</g>
			<g>
				<defs>
					<path id="SVGID_74_" d="M168.791,127.379c0,0.054,0,0.122,0,0.179l0.729-0.007c0-0.054,0-0.129,0-0.187
						c0-10.389,5.037-16.986,9.267-20.704c5.34-4.682,12.577-7.441,19.815-7.583l-0.006-0.734
						c-7.423,0.149-14.818,2.978-20.304,7.775C172.162,111.494,168.791,119.042,168.791,127.379 M198.602,99.077l-0.006-0.734
						c12.131-0.229,20.02,4.556,23.643,7.441l1.094,0.871l-0.732,0.357l-0.822-0.66C218.227,103.534,210.509,98.849,198.602,99.077z
						"/>
				</defs>
				<clipPath id="SVGID_75_">
					<use xlink:href="#SVGID_74_"  overflow="visible"/>
				</clipPath>
				
					<linearGradient id="SVGID_76_" gradientUnits="userSpaceOnUse" x1="-730.9316" y1="-22.6482" x2="-726.3052" y2="-22.6482" gradientTransform="matrix(11.7886 0 0 9.1643 8785.4531 320.3881)">
					<stop  offset="0" style="stop-color:#492300"/>
					<stop  offset="1" style="stop-color:#70491C"/>
				</linearGradient>
				<rect x="168.791" y="98.115" clip-path="url(#SVGID_75_)" fill="url(#SVGID_76_)" width="54.54" height="29.443"/>
			</g>
		</g>
		<path fill="#785228" d="M123.753,240.74l0.005,2.205l0.736,0.736l-0.014-2.941c0,0-0.027-32.713-0.032-38.771l-0.727-0.867
			C123.722,205.922,123.753,240.74,123.753,240.74"/>
		<g>
			<g>
				<defs>
					<path id="SVGID_77_" d="M125.239,47.763c30.049-5.993,63.734-6.991,102.863-3.079l0.728-0.657
						c-39.481-4.01-73.438-3.028-103.734,3.017c-40.292,8.068-74.44,25.278-101.534,51.14l0.741,0.321
						C51.253,72.86,85.202,55.785,125.239,47.763"/>
				</defs>
				<clipPath id="SVGID_78_">
					<use xlink:href="#SVGID_77_"  overflow="visible"/>
				</clipPath>
				<path clip-path="url(#SVGID_78_)" fill="#8C6741" d="M125.239,47.763c30.049-5.993,63.734-6.991,102.863-3.079l0.728-0.657
					c-39.481-4.01-73.438-3.028-103.734,3.017c-40.292,8.068-74.44,25.278-101.534,51.14l0.741,0.321
					C51.253,72.86,85.202,55.785,125.239,47.763"/>
			</g>
			<g>
				<defs>
					<path id="SVGID_79_" d="M125.239,47.763c30.049-5.993,63.734-6.991,102.863-3.079l0.728-0.657
						c-39.481-4.01-73.438-3.028-103.734,3.017c-40.292,8.068-74.44,25.278-101.534,51.14l0.741,0.321
						C51.253,72.86,85.202,55.785,125.239,47.763"/>
				</defs>
				<clipPath id="SVGID_80_">
					<use xlink:href="#SVGID_79_"  overflow="visible"/>
				</clipPath>
				
					<linearGradient id="SVGID_81_" gradientUnits="userSpaceOnUse" x1="-757.0444" y1="-42.282" x2="-752.4185" y2="-42.282" gradientTransform="matrix(44.3701 0 0 15.4421 33613.707 722.1793)">
					<stop  offset="0" style="stop-color:#8C6741"/>
					<stop  offset="1" style="stop-color:#9C7955"/>
				</linearGradient>
				<rect x="23.561" y="40.018" clip-path="url(#SVGID_80_)" fill="url(#SVGID_81_)" width="205.268" height="58.486"/>
			</g>
		</g>
		<path fill="#3F1800" d="M228.318,150.862c0,8.088-0.01,16.156-0.014,24.188c-0.022,24.646-8.949,45.079-25.852,59.121
			c-14.534,12.279-58.836,32.207-76.176,39.477v0.806c17.158-7.192,61.957-27.315,76.649-39.727
			c17.063-14.173,26.087-34.801,26.108-59.677c0.004-8.032,0.014-16.103,0.014-24.188c0-35.347-0.072-71.178-0.222-106.835
			l-0.728,0.657C228.246,80.134,228.318,115.732,228.318,150.862"/>
		<g>
			<g>
				<defs>
					<path id="SVGID_82_" d="M23.525,175.051c0.018,24.866,9.044,45.504,26.1,59.672c14.615,12.343,59.477,32.511,76.654,39.73
						v-0.806c-17.355-7.296-61.713-27.273-76.188-39.495c-16.881-14.022-25.817-34.471-25.839-59.103
						c0-7.915-0.007-15.938-0.007-24.075c0-17.111,0.013-34.677,0.056-52.472l-0.741-0.321c-0.032,17.906-0.05,35.578-0.05,52.793
						C23.511,159.112,23.511,167.136,23.525,175.051"/>
				</defs>
				<clipPath id="SVGID_83_">
					<use xlink:href="#SVGID_82_"  overflow="visible"/>
				</clipPath>
				<path clip-path="url(#SVGID_83_)" fill="#492300" d="M23.525,175.051c0.018,24.866,9.044,45.504,26.1,59.672
					c14.615,12.343,59.477,32.511,76.654,39.73v-0.806c-17.355-7.296-61.713-27.273-76.188-39.495
					c-16.881-14.022-25.817-34.471-25.839-59.103c0-7.915-0.007-15.938-0.007-24.075c0-17.111,0.013-34.677,0.056-52.472
					l-0.741-0.321c-0.032,17.906-0.05,35.578-0.05,52.793C23.511,159.112,23.511,167.136,23.525,175.051"/>
			</g>
			<g>
				<defs>
					<path id="SVGID_84_" d="M23.525,175.051c0.018,24.866,9.044,45.504,26.1,59.672c14.615,12.343,59.477,32.511,76.654,39.73
						v-0.806c-17.355-7.296-61.713-27.273-76.188-39.495c-16.881-14.022-25.817-34.471-25.839-59.103
						c0-7.915-0.007-15.938-0.007-24.075c0-17.111,0.013-34.677,0.056-52.472l-0.741-0.321c-0.032,17.906-0.05,35.578-0.05,52.793
						C23.511,159.112,23.511,167.136,23.525,175.051"/>
				</defs>
				<clipPath id="SVGID_85_">
					<use xlink:href="#SVGID_84_"  overflow="visible"/>
				</clipPath>
				
					<linearGradient id="SVGID_86_" gradientUnits="userSpaceOnUse" x1="-778.5181" y1="-76.5081" x2="-773.8921" y2="-76.5081" gradientTransform="matrix(-22.2141 0 0 -40.9025 -17167.8027 -2943.0706)">
					<stop  offset="0" style="stop-color:#492300"/>
					<stop  offset="1" style="stop-color:#70491C"/>
				</linearGradient>
				<rect x="23.511" y="98.183" clip-path="url(#SVGID_85_)" fill="url(#SVGID_86_)" width="102.766" height="176.271"/>
			</g>
		</g>
		<path fill="#905800" d="M161.445,272.334c16.896-7.942,39.197-19.241,49.466-27.938c10.206-8.467,17.968-18.861,23.104-30.87
			c4.889-11.503,7.381-24.478,7.381-38.572V39.401l-1.459,0.87c0,44.907,0,89.783,0,134.683c0,27.272-9.396,51.244-29.957,68.326
			c-19.657,16.636-83.864,43.155-83.707,42.997v1.591c1.572-0.646,7.55-3.137,10.966-4.617
			C142.954,280.782,151.777,276.884,161.445,272.334"/>
		<g>
			<g>
				<defs>
					<path id="SVGID_87_" d="M42.59,243.279c-20.545-17.082-29.942-41.054-29.942-68.326c0-44.898-0.013-89.774-0.013-134.687
						l-1.466-0.865l0.018,135.552c0,14.096,2.485,27.069,7.38,38.572c5.125,12.008,12.892,22.403,23.098,30.885
						c10.262,8.684,32.551,19.981,49.445,27.925c9.662,4.55,18.499,8.447,24.209,10.915c3.422,1.48,9.401,3.971,10.957,4.617v-1.591
						C126.455,286.435,62.247,259.914,42.59,243.279"/>
				</defs>
				<clipPath id="SVGID_88_">
					<use xlink:href="#SVGID_87_"  overflow="visible"/>
				</clipPath>
				<path clip-path="url(#SVGID_88_)" fill="#FFD568" d="M42.59,243.279c-20.545-17.082-29.942-41.054-29.942-68.326
					c0-44.898-0.013-89.774-0.013-134.687l-1.466-0.865l0.018,135.552c0,14.096,2.485,27.069,7.38,38.572
					c5.125,12.008,12.892,22.403,23.098,30.885c10.262,8.684,32.551,19.981,49.445,27.925c9.662,4.55,18.499,8.447,24.209,10.915
					c3.422,1.48,9.401,3.971,10.957,4.617v-1.591C126.455,286.435,62.247,259.914,42.59,243.279"/>
			</g>
			<g>
				<defs>
					<path id="SVGID_89_" d="M42.59,243.279c-20.545-17.082-29.942-41.054-29.942-68.326c0-44.898-0.013-89.774-0.013-134.687
						l-1.466-0.865l0.018,135.552c0,14.096,2.485,27.069,7.38,38.572c5.125,12.008,12.892,22.403,23.098,30.885
						c10.262,8.684,32.551,19.981,49.445,27.925c9.662,4.55,18.499,8.447,24.209,10.915c3.422,1.48,9.401,3.971,10.957,4.617v-1.591
						C126.455,286.435,62.247,259.914,42.59,243.279"/>
				</defs>
				<clipPath id="SVGID_90_">
					<use xlink:href="#SVGID_89_"  overflow="visible"/>
				</clipPath>
				
					<linearGradient id="SVGID_91_" gradientUnits="userSpaceOnUse" x1="-752.772" y1="-57.8474" x2="-748.1473" y2="-57.8474" gradientTransform="matrix(24.8811 0 0 56.5076 18740.9688 3432.4055)">
					<stop  offset="0" style="stop-color:#FFD568"/>
					<stop  offset="0.8353" style="stop-color:#A36D12"/>
					<stop  offset="1" style="stop-color:#905800"/>
				</linearGradient>
				<rect x="11.168" y="39.401" clip-path="url(#SVGID_90_)" fill="url(#SVGID_91_)" width="115.287" height="248.466"/>
			</g>
		</g>
		<path fill="#FFD568" d="M126.273,15.359c-0.157,0.235,63.778-2.656,113.664,24.911l1.459-0.87l-0.758-0.411
			c-41.561-22.976-92.955-25.195-113.104-25.085h-1.261h-1.237c-20.152-0.109-71.551,2.11-113.111,25.085L11.168,39.4l1.466,0.865
			C62.519,12.698,126.455,15.594,126.273,15.359"/>
		<g>
			<g>
				<defs>
					<path id="SVGID_92_" d="M191.001,126.787l1.464,0.035c0.189-7.781,7.896-8.244,10.246-8.206l0.036-1.455
						C197.087,117.047,191.173,119.55,191.001,126.787"/>
				</defs>
				<clipPath id="SVGID_93_">
					<use xlink:href="#SVGID_92_"  overflow="visible"/>
				</clipPath>
				<path clip-path="url(#SVGID_93_)" fill="#905800" d="M191.001,126.787l1.464,0.035c0.189-7.781,7.896-8.244,10.246-8.206
					l0.036-1.455C197.087,117.047,191.173,119.55,191.001,126.787"/>
			</g>
			<g>
				<defs>
					<path id="SVGID_94_" d="M191.001,126.787l1.464,0.035c0.189-7.781,7.896-8.244,10.246-8.206l0.036-1.455
						C197.087,117.047,191.173,119.55,191.001,126.787"/>
				</defs>
				<clipPath id="SVGID_95_">
					<use xlink:href="#SVGID_94_"  overflow="visible"/>
				</clipPath>
				
					<linearGradient id="SVGID_96_" gradientUnits="userSpaceOnUse" x1="-607.2778" y1="15.8694" x2="-602.6528" y2="15.8694" gradientTransform="matrix(2.5396 0 0 4.9137 1733.2196 43.9559)">
					<stop  offset="0" style="stop-color:#905800"/>
					<stop  offset="1" style="stop-color:#905800"/>
				</linearGradient>
				<rect x="191.001" y="117.047" clip-path="url(#SVGID_95_)" fill="url(#SVGID_96_)" width="11.746" height="9.775"/>
			</g>
		</g>
		<g>
			<g>
				<defs>
					<path id="SVGID_97_" d="M198.641,101.272l-0.014-1.468c-7.084,0.136-14.148,2.835-19.363,7.407
						c-4.115,3.619-9.009,10.03-9.009,20.153c0,0.058,0,0.125,0,0.187l1.474-0.014C171.619,111.052,185.534,101.519,198.641,101.272
						"/>
				</defs>
				<clipPath id="SVGID_98_">
					<use xlink:href="#SVGID_97_"  overflow="visible"/>
				</clipPath>
				<path clip-path="url(#SVGID_98_)" fill="#EFCB95" d="M198.641,101.272l-0.014-1.468c-7.084,0.136-14.148,2.835-19.363,7.407
					c-4.115,3.619-9.009,10.03-9.009,20.153c0,0.058,0,0.125,0,0.187l1.474-0.014C171.619,111.052,185.534,101.519,198.641,101.272"
					/>
			</g>
			<g>
				<defs>
					<path id="SVGID_99_" d="M198.641,101.272l-0.014-1.468c-7.084,0.136-14.148,2.835-19.363,7.407
						c-4.115,3.619-9.009,10.03-9.009,20.153c0,0.058,0,0.125,0,0.187l1.474-0.014C171.619,111.052,185.534,101.519,198.641,101.272
						"/>
				</defs>
				<clipPath id="SVGID_100_">
					<use xlink:href="#SVGID_99_"  overflow="visible"/>
				</clipPath>
				
					<linearGradient id="SVGID_101_" gradientUnits="userSpaceOnUse" x1="-701.2021" y1="-20.7908" x2="-696.5757" y2="-20.7908" gradientTransform="matrix(6.1359 0 0 8.7975 4472.7568 296.5839)">
					<stop  offset="0" style="stop-color:#EFCB95"/>
					<stop  offset="1" style="stop-color:#E2AB53"/>
				</linearGradient>
				<rect x="170.255" y="99.804" clip-path="url(#SVGID_100_)" fill="url(#SVGID_101_)" width="28.386" height="27.747"/>
			</g>
		</g>
		<g>
			<g>
				<defs>
					<path id="SVGID_102_" d="M202.747,117.162l-0.036,1.455c6.85,0.117,13.104,4.217,16.676,8.003l2.534,2.694l-1.474-3.692
						C216.355,121.275,209.714,117.272,202.747,117.162"/>
				</defs>
				<clipPath id="SVGID_103_">
					<use xlink:href="#SVGID_102_"  overflow="visible"/>
				</clipPath>
				<path clip-path="url(#SVGID_103_)" fill="#905800" d="M202.747,117.162l-0.036,1.455c6.85,0.117,13.104,4.217,16.676,8.003
					l2.534,2.694l-1.474-3.692C216.355,121.275,209.714,117.272,202.747,117.162"/>
			</g>
			<g>
				<defs>
					<path id="SVGID_104_" d="M202.747,117.162l-0.036,1.455c6.85,0.117,13.104,4.217,16.676,8.003l2.534,2.694l-1.474-3.692
						C216.355,121.275,209.714,117.272,202.747,117.162"/>
				</defs>
				<clipPath id="SVGID_105_">
					<use xlink:href="#SVGID_104_"  overflow="visible"/>
				</clipPath>
				
					<linearGradient id="SVGID_106_" gradientUnits="userSpaceOnUse" x1="-665.564" y1="8.363" x2="-660.938" y2="8.363" gradientTransform="matrix(4.1528 0 0 5.4267 2966.6636 77.8548)">
					<stop  offset="0" style="stop-color:#905800"/>
					<stop  offset="0.5778" style="stop-color:#BF8934"/>
					<stop  offset="1" style="stop-color:#E4AF5D"/>
				</linearGradient>
				<rect x="202.711" y="117.162" clip-path="url(#SVGID_105_)" fill="url(#SVGID_106_)" width="19.21" height="12.152"/>
			</g>
		</g>
		<g>
			<g>
				<defs>
					<path id="SVGID_107_" d="M220.408,108.079l1.453-0.709l-0.541-0.438c-3.465-2.763-11.023-7.351-22.693-7.127l0.014,1.468
						C209.624,101.063,216.947,105.323,220.408,108.079"/>
				</defs>
				<clipPath id="SVGID_108_">
					<use xlink:href="#SVGID_107_"  overflow="visible"/>
				</clipPath>
				<path clip-path="url(#SVGID_108_)" fill="#E2AB53" d="M220.408,108.079l1.453-0.709l-0.541-0.438
					c-3.465-2.763-11.023-7.351-22.693-7.127l0.014,1.468C209.624,101.063,216.947,105.323,220.408,108.079"/>
			</g>
			<g>
				<defs>
					<path id="SVGID_109_" d="M220.408,108.079l1.453-0.709l-0.541-0.438c-3.465-2.763-11.023-7.351-22.693-7.127l0.014,1.468
						C209.624,101.063,216.947,105.323,220.408,108.079"/>
				</defs>
				<clipPath id="SVGID_110_">
					<use xlink:href="#SVGID_109_"  overflow="visible"/>
				</clipPath>
				
					<linearGradient id="SVGID_111_" gradientUnits="userSpaceOnUse" x1="-683.0654" y1="17.6633" x2="-678.439" y2="17.6633" gradientTransform="matrix(5.0224 0 0 4.6368 3629.2551 21.9303)">
					<stop  offset="0" style="stop-color:#E2AB53"/>
					<stop  offset="1" style="stop-color:#C27913"/>
				</linearGradient>
				<rect x="198.627" y="99.581" clip-path="url(#SVGID_110_)" fill="url(#SVGID_111_)" width="23.234" height="8.498"/>
			</g>
		</g>
		<path fill="#905800" d="M220.448,125.622l1.473,3.692l-0.06-21.944l-1.453,0.709C220.421,113.914,220.432,119.769,220.448,125.622
			"/>
		<g>
			<g>
				<defs>
					<path id="SVGID_112_" d="M204.162,141.581l0.754-1.262l-1.59-0.956c-6.628-3.945-10.997-6.534-10.861-12.542l-1.464-0.035
						C190.829,134.188,196.762,137.128,204.162,141.581"/>
				</defs>
				<clipPath id="SVGID_113_">
					<use xlink:href="#SVGID_112_"  overflow="visible"/>
				</clipPath>
				<path clip-path="url(#SVGID_113_)" fill="#DDAC72" d="M204.162,141.581l0.754-1.262l-1.59-0.956
					c-6.628-3.945-10.997-6.534-10.861-12.542l-1.464-0.035C190.829,134.188,196.762,137.128,204.162,141.581"/>
			</g>
			<g>
				<defs>
					<path id="SVGID_114_" d="M204.162,141.581l0.754-1.262l-1.59-0.956c-6.628-3.945-10.997-6.534-10.861-12.542l-1.464-0.035
						C190.829,134.188,196.762,137.128,204.162,141.581"/>
				</defs>
				<clipPath id="SVGID_115_">
					<use xlink:href="#SVGID_114_"  overflow="visible"/>
				</clipPath>
				
					<linearGradient id="SVGID_116_" gradientUnits="userSpaceOnUse" x1="-892.8545" y1="3.0828" x2="-888.2275" y2="3.0828" gradientTransform="matrix(0 -3.1975 5.8447 0 179.8596 -2713.3425)">
					<stop  offset="0" style="stop-color:#DDAC72"/>
					<stop  offset="1" style="stop-color:#905800"/>
				</linearGradient>
				<rect x="190.829" y="126.787" clip-path="url(#SVGID_115_)" fill="url(#SVGID_116_)" width="14.087" height="14.794"/>
			</g>
		</g>
		<g>
			<g>
				<defs>
					<path id="SVGID_117_" d="M202.404,171.482l1.464-0.026c-0.142-6.379-3.646-9.826-12.451-15.044l-0.741,1.256
						C199.657,162.998,202.282,166.093,202.404,171.482"/>
				</defs>
				<clipPath id="SVGID_118_">
					<use xlink:href="#SVGID_117_"  overflow="visible"/>
				</clipPath>
				<path clip-path="url(#SVGID_118_)" fill="#EABD79" d="M202.404,171.482l1.464-0.026c-0.142-6.379-3.646-9.826-12.451-15.044
					l-0.741,1.256C199.657,162.998,202.282,166.093,202.404,171.482"/>
			</g>
			<g>
				<defs>
					<path id="SVGID_119_" d="M202.404,171.482l1.464-0.026c-0.142-6.379-3.646-9.826-12.451-15.044l-0.741,1.256
						C199.657,162.998,202.282,166.093,202.404,171.482"/>
				</defs>
				<clipPath id="SVGID_120_">
					<use xlink:href="#SVGID_119_"  overflow="visible"/>
				</clipPath>
				
					<linearGradient id="SVGID_121_" gradientUnits="userSpaceOnUse" x1="-905.2046" y1="-136.9348" x2="-900.5786" y2="-136.9348" gradientTransform="matrix(-2.8519 0 0 -6.058 -2377.7078 -665.6013)">
					<stop  offset="0" style="stop-color:#EABD79"/>
					<stop  offset="1" style="stop-color:#C27913"/>
				</linearGradient>
				<rect x="190.676" y="156.411" clip-path="url(#SVGID_120_)" fill="url(#SVGID_121_)" width="13.192" height="15.07"/>
			</g>
		</g>
		<g>
			<g>
				<defs>
					<path id="SVGID_122_" d="M172.551,193.394l-1.46,0.831l0.72,0.425c6.992,4.156,15.129,6.397,22.877,6.325l-0.014-1.469
						C186.736,199.592,178.885,197.144,172.551,193.394"/>
				</defs>
				<clipPath id="SVGID_123_">
					<use xlink:href="#SVGID_122_"  overflow="visible"/>
				</clipPath>
				<path clip-path="url(#SVGID_123_)" fill="#C27913" d="M172.551,193.394l-1.46,0.831l0.72,0.425
					c6.992,4.156,15.129,6.397,22.877,6.325l-0.014-1.469C186.736,199.592,178.885,197.144,172.551,193.394"/>
			</g>
			<g>
				<defs>
					<path id="SVGID_124_" d="M172.551,193.394l-1.46,0.831l0.72,0.425c6.992,4.156,15.129,6.397,22.877,6.325l-0.014-1.469
						C186.736,199.592,178.885,197.144,172.551,193.394"/>
				</defs>
				<clipPath id="SVGID_125_">
					<use xlink:href="#SVGID_124_"  overflow="visible"/>
				</clipPath>
				
					<linearGradient id="SVGID_126_" gradientUnits="userSpaceOnUse" x1="-688.521" y1="37.5081" x2="-683.8945" y2="37.5081" gradientTransform="matrix(5.1003 0 0 4.4543 3682.7561 30.1505)">
					<stop  offset="0" style="stop-color:#C27913"/>
					<stop  offset="0.8538" style="stop-color:#985D03"/>
					<stop  offset="1" style="stop-color:#905800"/>
				</linearGradient>
				<rect x="171.091" y="193.394" clip-path="url(#SVGID_125_)" fill="url(#SVGID_126_)" width="23.597" height="7.653"/>
			</g>
		</g>
		<path fill="#EDC68C" d="M172.604,174.617l-1.455-3.271l-0.059,22.878l1.46-0.831C172.587,187.146,172.596,180.893,172.604,174.617
			"/>
		<g>
			<g>
				<defs>
					<path id="SVGID_127_" d="M171.729,127.537l-1.474,0.014c0.056,11.426,3.402,20.027,20.421,30.116l0.741-1.256
						C174.818,146.566,171.766,138.416,171.729,127.537"/>
				</defs>
				<clipPath id="SVGID_128_">
					<use xlink:href="#SVGID_127_"  overflow="visible"/>
				</clipPath>
				<path clip-path="url(#SVGID_128_)" fill="#EFCB95" d="M171.729,127.537l-1.474,0.014c0.056,11.426,3.402,20.027,20.421,30.116
					l0.741-1.256C174.818,146.566,171.766,138.416,171.729,127.537"/>
			</g>
			<g>
				<defs>
					<path id="SVGID_129_" d="M171.729,127.537l-1.474,0.014c0.056,11.426,3.402,20.027,20.421,30.116l0.741-1.256
						C174.818,146.566,171.766,138.416,171.729,127.537"/>
				</defs>
				<clipPath id="SVGID_130_">
					<use xlink:href="#SVGID_129_"  overflow="visible"/>
				</clipPath>
				
					<linearGradient id="SVGID_131_" gradientUnits="userSpaceOnUse" x1="-680.1191" y1="-20.823" x2="-675.4937" y2="-20.823" gradientTransform="matrix(4.5753 0 0 9.312 3282.0029 336.5029)">
					<stop  offset="0" style="stop-color:#EFCB95"/>
					<stop  offset="1" style="stop-color:#C27913"/>
				</linearGradient>
				<rect x="170.255" y="127.537" clip-path="url(#SVGID_130_)" fill="url(#SVGID_131_)" width="21.162" height="30.13"/>
			</g>
		</g>
		<g>
			<g>
				<defs>
					<path id="SVGID_132_" d="M191.887,182.822v-1.464c-5.732,0-13.088-3.14-18.314-7.834l-2.422-2.178l1.455,3.271
						C177.782,179.28,185.484,182.822,191.887,182.822"/>
				</defs>
				<clipPath id="SVGID_133_">
					<use xlink:href="#SVGID_132_"  overflow="visible"/>
				</clipPath>
				<path clip-path="url(#SVGID_133_)" fill="#EABD79" d="M191.887,182.822v-1.464c-5.732,0-13.088-3.14-18.314-7.834l-2.422-2.178
					l1.455,3.271C177.782,179.28,185.484,182.822,191.887,182.822"/>
			</g>
			<g>
				<defs>
					<path id="SVGID_134_" d="M191.887,182.822v-1.464c-5.732,0-13.088-3.14-18.314-7.834l-2.422-2.178l1.455,3.271
						C177.782,179.28,185.484,182.822,191.887,182.822"/>
				</defs>
				<clipPath id="SVGID_135_">
					<use xlink:href="#SVGID_134_"  overflow="visible"/>
				</clipPath>
				
					<linearGradient id="SVGID_136_" gradientUnits="userSpaceOnUse" x1="-851.3979" y1="-149.406" x2="-846.7705" y2="-149.406" gradientTransform="matrix(-4.4816 0 0 -5.2801 -3623.7585 -611.7965)">
					<stop  offset="0" style="stop-color:#EABD79"/>
					<stop  offset="1" style="stop-color:#C27913"/>
				</linearGradient>
				<rect x="171.148" y="171.347" clip-path="url(#SVGID_135_)" fill="url(#SVGID_136_)" width="20.738" height="11.476"/>
			</g>
		</g>
		<g>
			<g>
				<defs>
					<path id="SVGID_137_" d="M194.674,199.506l0.014,1.469c20.228-0.222,29.756-14.584,30.221-28.706l-1.454-0.063
						C223.023,185.108,214.449,199.303,194.674,199.506"/>
				</defs>
				<clipPath id="SVGID_138_">
					<use xlink:href="#SVGID_137_"  overflow="visible"/>
				</clipPath>
				<path clip-path="url(#SVGID_138_)" fill="#905800" d="M194.674,199.506l0.014,1.469c20.228-0.222,29.756-14.584,30.221-28.706
					l-1.454-0.063C223.023,185.108,214.449,199.303,194.674,199.506"/>
			</g>
			<g>
				<defs>
					<path id="SVGID_139_" d="M194.674,199.506l0.014,1.469c20.228-0.222,29.756-14.584,30.221-28.706l-1.454-0.063
						C223.023,185.108,214.449,199.303,194.674,199.506"/>
				</defs>
				<clipPath id="SVGID_140_">
					<use xlink:href="#SVGID_139_"  overflow="visible"/>
				</clipPath>
				
					<linearGradient id="SVGID_141_" gradientUnits="userSpaceOnUse" x1="-702.0425" y1="-15.5466" x2="-697.416" y2="-15.5466" gradientTransform="matrix(6.5352 0 0 9.018 4782.6606 326.7892)">
					<stop  offset="0" style="stop-color:#905800"/>
					<stop  offset="1" style="stop-color:#9A6419"/>
				</linearGradient>
				<rect x="194.674" y="172.205" clip-path="url(#SVGID_140_)" fill="url(#SVGID_141_)" width="30.233" height="28.77"/>
			</g>
		</g>
		<g>
			<g>
				<defs>
					<path id="SVGID_142_" d="M203.868,171.455l-1.464,0.026c0,0.101,0.009,0.198,0.009,0.304c0,2.715-0.858,5.027-2.458,6.662
						c-1.855,1.897-4.653,2.91-8.068,2.91v1.464C199.215,182.822,204.021,178.494,203.868,171.455"/>
				</defs>
				<clipPath id="SVGID_143_">
					<use xlink:href="#SVGID_142_"  overflow="visible"/>
				</clipPath>
				<path clip-path="url(#SVGID_143_)" fill="#EABD79" d="M203.868,171.455l-1.464,0.026c0,0.101,0.009,0.198,0.009,0.304
					c0,2.715-0.858,5.027-2.458,6.662c-1.855,1.897-4.653,2.91-8.068,2.91v1.464C199.215,182.822,204.021,178.494,203.868,171.455"
					/>
			</g>
			<g>
				<defs>
					<path id="SVGID_144_" d="M203.868,171.455l-1.464,0.026c0,0.101,0.009,0.198,0.009,0.304c0,2.715-0.858,5.027-2.458,6.662
						c-1.855,1.897-4.653,2.91-8.068,2.91v1.464C199.215,182.822,204.021,178.494,203.868,171.455"/>
				</defs>
				<clipPath id="SVGID_145_">
					<use xlink:href="#SVGID_144_"  overflow="visible"/>
				</clipPath>
				
					<linearGradient id="SVGID_146_" gradientUnits="userSpaceOnUse" x1="-610.0894" y1="18.7756" x2="-605.4646" y2="18.7756" gradientTransform="matrix(2.5908 0 0 5.2575 1772.5245 78.4248)">
					<stop  offset="0" style="stop-color:#EABD79"/>
					<stop  offset="1" style="stop-color:#EABD79"/>
				</linearGradient>
				<rect x="191.887" y="171.455" clip-path="url(#SVGID_145_)" fill="url(#SVGID_146_)" width="12.135" height="11.366"/>
			</g>
		</g>
		<g>
			<g>
				<defs>
					<path id="SVGID_147_" d="M223.453,172.205l1.454,0.063c0.19-7.065-0.845-12.076-3.479-16.743
						c-3.054-5.417-8.304-10.26-16.513-15.205l-0.754,1.262C220.766,151.595,223.77,160.449,223.453,172.205"/>
				</defs>
				<clipPath id="SVGID_148_">
					<use xlink:href="#SVGID_147_"  overflow="visible"/>
				</clipPath>
				<path clip-path="url(#SVGID_148_)" fill="#DDAC72" d="M223.453,172.205l1.454,0.063c0.19-7.065-0.845-12.076-3.479-16.743
					c-3.054-5.417-8.304-10.26-16.513-15.205l-0.754,1.262C220.766,151.595,223.77,160.449,223.453,172.205"/>
			</g>
			<g>
				<defs>
					<path id="SVGID_149_" d="M223.453,172.205l1.454,0.063c0.19-7.065-0.845-12.076-3.479-16.743
						c-3.054-5.417-8.304-10.26-16.513-15.205l-0.754,1.262C220.766,151.595,223.77,160.449,223.453,172.205"/>
				</defs>
				<clipPath id="SVGID_150_">
					<use xlink:href="#SVGID_149_"  overflow="visible"/>
				</clipPath>
				
					<linearGradient id="SVGID_151_" gradientUnits="userSpaceOnUse" x1="-703.0151" y1="-122.0154" x2="-698.3887" y2="-122.0154" gradientTransform="matrix(0 6.9053 -7.3254 0 -679.1856 4994.8496)">
					<stop  offset="0" style="stop-color:#DDAC72"/>
					<stop  offset="1" style="stop-color:#9A6419"/>
				</linearGradient>
				<rect x="204.162" y="140.32" clip-path="url(#SVGID_150_)" fill="url(#SVGID_151_)" width="20.936" height="31.948"/>
			</g>
		</g>
		<g>
			<g>
				<defs>
					<path id="SVGID_152_" d="M128.75,118.746c5.477,0.013,9.157,2.17,11.57,6.825c2.557,4.906,3.785,12.819,3.785,24.162
						l1.474-0.009c0-22.962-4.961-32.434-16.829-32.434V118.746"/>
				</defs>
				<clipPath id="SVGID_153_">
					<use xlink:href="#SVGID_152_"  overflow="visible"/>
				</clipPath>
				<path clip-path="url(#SVGID_153_)" fill="#EABD79" d="M128.75,118.746c5.477,0.013,9.157,2.17,11.57,6.825
					c2.557,4.906,3.785,12.819,3.785,24.162l1.474-0.009c0-22.962-4.961-32.434-16.829-32.434V118.746"/>
			</g>
			<g>
				<defs>
					<path id="SVGID_154_" d="M128.75,118.746c5.477,0.013,9.157,2.17,11.57,6.825c2.557,4.906,3.785,12.819,3.785,24.162
						l1.474-0.009c0-22.962-4.961-32.434-16.829-32.434V118.746"/>
				</defs>
				<clipPath id="SVGID_155_">
					<use xlink:href="#SVGID_154_"  overflow="visible"/>
				</clipPath>
				
					<linearGradient id="SVGID_156_" gradientUnits="userSpaceOnUse" x1="-823.1245" y1="-10.6228" x2="-818.498" y2="-10.6228" gradientTransform="matrix(0 -7.0123 6.4374 0 205.5488 -5622.2607)">
					<stop  offset="0" style="stop-color:#EABD79"/>
					<stop  offset="1" style="stop-color:#905800"/>
				</linearGradient>
				<rect x="128.75" y="117.291" clip-path="url(#SVGID_155_)" fill="url(#SVGID_156_)" width="16.829" height="32.442"/>
			</g>
		</g>
		<g>
			<g>
				<defs>
					<path id="SVGID_157_" d="M128.75,118.746v-1.455c-2.752,0-5.589,0.66-7.242,1.468l1.468,0.974
						C124.417,119.208,126.541,118.746,128.75,118.746"/>
				</defs>
				<clipPath id="SVGID_158_">
					<use xlink:href="#SVGID_157_"  overflow="visible"/>
				</clipPath>
				<path clip-path="url(#SVGID_158_)" fill="#905800" d="M128.75,118.746v-1.455c-2.752,0-5.589,0.66-7.242,1.468l1.468,0.974
					C124.417,119.208,126.541,118.746,128.75,118.746"/>
			</g>
			<g>
				<defs>
					<path id="SVGID_159_" d="M128.75,118.746v-1.455c-2.752,0-5.589,0.66-7.242,1.468l1.468,0.974
						C124.417,119.208,126.541,118.746,128.75,118.746"/>
				</defs>
				<clipPath id="SVGID_160_">
					<use xlink:href="#SVGID_159_"  overflow="visible"/>
				</clipPath>
				
					<linearGradient id="SVGID_161_" gradientUnits="userSpaceOnUse" x1="-545.1196" y1="53.8308" x2="-540.4922" y2="53.8308" gradientTransform="matrix(1.5651 0 0 3.3281 974.6757 -60.6413)">
					<stop  offset="0" style="stop-color:#905800"/>
					<stop  offset="1" style="stop-color:#905800"/>
				</linearGradient>
				<rect x="121.508" y="117.291" clip-path="url(#SVGID_160_)" fill="url(#SVGID_161_)" width="7.242" height="2.441"/>
			</g>
		</g>
		<g>
			<g>
				<defs>
					<path id="SVGID_162_" d="M130.732,199.466v1.478c11.443-0.019,20.973-5.056,27.551-14.589
						c6.283-9.116,9.604-21.97,9.604-37.172h-1.459C166.43,179.059,153.377,199.447,130.732,199.466"/>
				</defs>
				<clipPath id="SVGID_163_">
					<use xlink:href="#SVGID_162_"  overflow="visible"/>
				</clipPath>
				<path clip-path="url(#SVGID_163_)" fill="#905800" d="M130.732,199.466v1.478c11.443-0.019,20.973-5.056,27.551-14.589
					c6.283-9.116,9.604-21.97,9.604-37.172h-1.459C166.43,179.059,153.377,199.447,130.732,199.466"/>
			</g>
			<g>
				<defs>
					<path id="SVGID_164_" d="M130.732,199.466v1.478c11.443-0.019,20.973-5.056,27.551-14.589
						c6.283-9.116,9.604-21.97,9.604-37.172h-1.459C166.43,179.059,153.377,199.447,130.732,199.466"/>
				</defs>
				<clipPath id="SVGID_165_">
					<use xlink:href="#SVGID_164_"  overflow="visible"/>
				</clipPath>
				
					<linearGradient id="SVGID_166_" gradientUnits="userSpaceOnUse" x1="-719.6421" y1="-33.9397" x2="-715.0161" y2="-33.9397" gradientTransform="matrix(8.0316 0 0 13.9884 5910.6084 649.8208)">
					<stop  offset="0" style="stop-color:#905800"/>
					<stop  offset="1" style="stop-color:#905800"/>
				</linearGradient>
				<rect x="130.732" y="149.182" clip-path="url(#SVGID_165_)" fill="url(#SVGID_166_)" width="37.154" height="51.761"/>
			</g>
		</g>
		<g>
			<g>
				<defs>
					<path id="SVGID_167_" d="M99.829,240.704v1.455l1.461-1.465c-0.224-43.271-0.278-88.313-0.186-132.517l-1.455-0.795
						l-0.007,0.795C99.544,152.783,99.605,197.383,99.829,240.704"/>
				</defs>
				<clipPath id="SVGID_168_">
					<use xlink:href="#SVGID_167_"  overflow="visible"/>
				</clipPath>
				<path clip-path="url(#SVGID_168_)" fill="#E0B27C" d="M99.829,240.704v1.455l1.461-1.465
					c-0.224-43.271-0.278-88.313-0.186-132.517l-1.455-0.795l-0.007,0.795C99.544,152.783,99.605,197.383,99.829,240.704"/>
			</g>
			<g>
				<defs>
					<path id="SVGID_169_" d="M99.829,240.704v1.455l1.461-1.465c-0.224-43.271-0.278-88.313-0.186-132.517l-1.455-0.795
						l-0.007,0.795C99.544,152.783,99.605,197.383,99.829,240.704"/>
				</defs>
				<clipPath id="SVGID_170_">
					<use xlink:href="#SVGID_169_"  overflow="visible"/>
				</clipPath>
				
					<linearGradient id="SVGID_171_" gradientUnits="userSpaceOnUse" x1="-749.6685" y1="-167.6091" x2="-745.042" y2="-167.6091" gradientTransform="matrix(0 29.1327 -3.1774 0 -432.1442 21947.2363)">
					<stop  offset="0" style="stop-color:#E0B27C"/>
					<stop  offset="1" style="stop-color:#C27913"/>
				</linearGradient>
				<rect x="99.544" y="107.383" clip-path="url(#SVGID_170_)" fill="url(#SVGID_171_)" width="1.746" height="134.776"/>
			</g>
		</g>
		<g>
			<g>
				<defs>
					<path id="SVGID_172_" d="M122.976,119.732l-1.468-0.974c0,20.909,0,41.976,0.007,62.906l1.461-1.043
						C122.976,178.62,122.976,121.587,122.976,119.732"/>
				</defs>
				<clipPath id="SVGID_173_">
					<use xlink:href="#SVGID_172_"  overflow="visible"/>
				</clipPath>
				<path clip-path="url(#SVGID_173_)" fill="#905800" d="M122.976,119.732l-1.468-0.974c0,20.909,0,41.976,0.007,62.906
					l1.461-1.043C122.976,178.62,122.976,121.587,122.976,119.732"/>
			</g>
			<g>
				<defs>
					<path id="SVGID_174_" d="M122.976,119.732l-1.468-0.974c0,20.909,0,41.976,0.007,62.906l1.461-1.043
						C122.976,178.62,122.976,121.587,122.976,119.732"/>
				</defs>
				<clipPath id="SVGID_175_">
					<use xlink:href="#SVGID_174_"  overflow="visible"/>
				</clipPath>
				
					<linearGradient id="SVGID_176_" gradientUnits="userSpaceOnUse" x1="312.0332" y1="-39.7654" x2="316.6621" y2="-39.7654" gradientTransform="matrix(0.3172 0 0 16.3974 22.5229 802.2657)">
					<stop  offset="0" style="stop-color:#905800"/>
					<stop  offset="1" style="stop-color:#905800"/>
				</linearGradient>
				<rect x="121.508" y="118.759" clip-path="url(#SVGID_175_)" fill="url(#SVGID_176_)" width="1.468" height="62.906"/>
			</g>
		</g>
		<g>
			<g>
				<defs>
					<path id="SVGID_177_" d="M166.43,149.182h1.459c-0.005-15.112-3.471-27.625-10.058-36.206
						c-6.799-8.854-16.905-13.542-29.226-13.553l-0.006,1.473C152.997,100.909,166.406,119.387,166.43,149.182"/>
				</defs>
				<clipPath id="SVGID_178_">
					<use xlink:href="#SVGID_177_"  overflow="visible"/>
				</clipPath>
				<path clip-path="url(#SVGID_178_)" fill="#EDC68C" d="M166.43,149.182h1.459c-0.005-15.112-3.471-27.625-10.058-36.206
					c-6.799-8.854-16.905-13.542-29.226-13.553l-0.006,1.473C152.997,100.909,166.406,119.387,166.43,149.182"/>
			</g>
			<g>
				<defs>
					<path id="SVGID_179_" d="M166.43,149.182h1.459c-0.005-15.112-3.471-27.625-10.058-36.206
						c-6.799-8.854-16.905-13.542-29.226-13.553l-0.006,1.473C152.997,100.909,166.406,119.387,166.43,149.182"/>
				</defs>
				<clipPath id="SVGID_180_">
					<use xlink:href="#SVGID_179_"  overflow="visible"/>
				</clipPath>
				
					<linearGradient id="SVGID_181_" gradientUnits="userSpaceOnUse" x1="-722.1929" y1="-35.8679" x2="-717.5669" y2="-35.8679" gradientTransform="matrix(8.4923 0 0 13.5561 6261.6812 610.5303)">
					<stop  offset="0" style="stop-color:#EDC68C"/>
					<stop  offset="1" style="stop-color:#905800"/>
				</linearGradient>
				<rect x="128.602" y="99.423" clip-path="url(#SVGID_180_)" fill="url(#SVGID_181_)" width="39.287" height="49.759"/>
			</g>
		</g>
		<g>
			<g>
				<defs>
					<path id="SVGID_182_" d="M128.602,100.896l0.004-1.473c-11.266,0-20.52,2.46-28.289,7.526l-0.667,0.434l1.455,0.795
						C108.492,103.367,117.482,100.896,128.602,100.896"/>
				</defs>
				<clipPath id="SVGID_183_">
					<use xlink:href="#SVGID_182_"  overflow="visible"/>
				</clipPath>
				<path clip-path="url(#SVGID_183_)" fill="#FFECC0" d="M128.602,100.896l0.004-1.473c-11.266,0-20.52,2.46-28.289,7.526
					l-0.667,0.434l1.455,0.795C108.492,103.367,117.482,100.896,128.602,100.896"/>
			</g>
			<g>
				<defs>
					<path id="SVGID_184_" d="M128.602,100.896l0.004-1.473c-11.266,0-20.52,2.46-28.289,7.526l-0.667,0.434l1.455,0.795
						C108.492,103.367,117.482,100.896,128.602,100.896"/>
				</defs>
				<clipPath id="SVGID_185_">
					<use xlink:href="#SVGID_184_"  overflow="visible"/>
				</clipPath>
				
					<linearGradient id="SVGID_186_" gradientUnits="userSpaceOnUse" x1="-711.2554" y1="16.6711" x2="-706.6289" y2="16.6711" gradientTransform="matrix(6.259 0 0 4.6925 4551.3979 25.5747)">
					<stop  offset="0" style="stop-color:#FFECC0"/>
					<stop  offset="0.1264" style="stop-color:#FDE7B9"/>
					<stop  offset="1" style="stop-color:#EDC68C"/>
				</linearGradient>
				<rect x="99.65" y="99.423" clip-path="url(#SVGID_185_)" fill="url(#SVGID_186_)" width="28.956" height="8.755"/>
			</g>
		</g>
		<g>
			<g>
				<defs>
					<path id="SVGID_187_" d="M121.521,198.332l1.468,1.875c2.277,0.482,4.879,0.735,7.744,0.735v-1.478
						C126.541,199.483,123.563,198.933,121.521,198.332"/>
				</defs>
				<clipPath id="SVGID_188_">
					<use xlink:href="#SVGID_187_"  overflow="visible"/>
				</clipPath>
				<path clip-path="url(#SVGID_188_)" fill="#905800" d="M121.521,198.332l1.468,1.875c2.277,0.482,4.879,0.735,7.744,0.735v-1.478
					C126.541,199.483,123.563,198.933,121.521,198.332"/>
			</g>
			<g>
				<defs>
					<path id="SVGID_189_" d="M121.521,198.332l1.468,1.875c2.277,0.482,4.879,0.735,7.744,0.735v-1.478
						C126.541,199.483,123.563,198.933,121.521,198.332"/>
				</defs>
				<clipPath id="SVGID_190_">
					<use xlink:href="#SVGID_189_"  overflow="visible"/>
				</clipPath>
				
					<linearGradient id="SVGID_191_" gradientUnits="userSpaceOnUse" x1="-937.814" y1="-202.4216" x2="-933.1895" y2="-202.4216" gradientTransform="matrix(-1.992 0 0 -3.3647 -1737.3917 -481.4496)">
					<stop  offset="0" style="stop-color:#905800"/>
					<stop  offset="1" style="stop-color:#C27913"/>
				</linearGradient>
				<rect x="121.521" y="198.332" clip-path="url(#SVGID_190_)" fill="url(#SVGID_191_)" width="9.211" height="2.61"/>
			</g>
		</g>
		<g>
			<g>
				<defs>
					<path id="SVGID_192_" d="M121.551,240.74l1.475,1.482l-0.009-1.482c0,0-0.022-37.108-0.027-40.532l-1.468-1.875
						C121.54,212.595,121.546,226.78,121.551,240.74"/>
				</defs>
				<clipPath id="SVGID_193_">
					<use xlink:href="#SVGID_192_"  overflow="visible"/>
				</clipPath>
				<path clip-path="url(#SVGID_193_)" fill="#905800" d="M121.551,240.74l1.475,1.482l-0.009-1.482c0,0-0.022-37.108-0.027-40.532
					l-1.468-1.875C121.54,212.595,121.546,226.78,121.551,240.74"/>
			</g>
			<g>
				<defs>
					<path id="SVGID_194_" d="M121.551,240.74l1.475,1.482l-0.009-1.482c0,0-0.022-37.108-0.027-40.532l-1.468-1.875
						C121.54,212.595,121.546,226.78,121.551,240.74"/>
				</defs>
				<clipPath id="SVGID_195_">
					<use xlink:href="#SVGID_194_"  overflow="visible"/>
				</clipPath>
				
					<linearGradient id="SVGID_196_" gradientUnits="userSpaceOnUse" x1="286.2412" y1="-26.6848" x2="290.8691" y2="-26.6848" gradientTransform="matrix(0.325 0 0 12.287 28.5084 548.1552)">
					<stop  offset="0" style="stop-color:#905800"/>
					<stop  offset="1" style="stop-color:#905800"/>
				</linearGradient>
				<rect x="121.521" y="198.332" clip-path="url(#SVGID_195_)" fill="url(#SVGID_196_)" width="1.504" height="43.891"/>
			</g>
		</g>
		<path fill="#905800" d="M101.291,240.695l-1.461,1.465l23.197,0.063l-1.475-1.481C114.794,240.74,108.042,240.728,101.291,240.695
			"/>
		<g>
			<g>
				<defs>
					<path id="SVGID_197_" d="M144.105,149.733l1.474-0.009c0,22.396-5.64,33.17-17.431,33.174v-1.468
						c5.35,0,9.222-2.427,11.836-7.409C142.725,168.799,144.105,160.64,144.105,149.733"/>
				</defs>
				<clipPath id="SVGID_198_">
					<use xlink:href="#SVGID_197_"  overflow="visible"/>
				</clipPath>
				<path clip-path="url(#SVGID_198_)" fill="#FFE4A2" d="M144.105,149.733l1.474-0.009c0,22.396-5.64,33.17-17.431,33.174v-1.468
					c5.35,0,9.222-2.427,11.836-7.409C142.725,168.799,144.105,160.64,144.105,149.733"/>
			</g>
			<g>
				<defs>
					<path id="SVGID_199_" d="M144.105,149.733l1.474-0.009c0,22.396-5.64,33.17-17.431,33.174v-1.468
						c5.35,0,9.222-2.427,11.836-7.409C142.725,168.799,144.105,160.64,144.105,149.733"/>
				</defs>
				<clipPath id="SVGID_200_">
					<use xlink:href="#SVGID_199_"  overflow="visible"/>
				</clipPath>
				
					<linearGradient id="SVGID_201_" gradientUnits="userSpaceOnUse" x1="-664.8169" y1="-21.9124" x2="-660.1897" y2="-21.9124" gradientTransform="matrix(3.5289 0 0 9.9706 2474.5859 384.7898)">
					<stop  offset="0" style="stop-color:#FFE4A2"/>
					<stop  offset="0.1" style="stop-color:#FFE4A2"/>
					<stop  offset="0.6" style="stop-color:#F7E4CA"/>
					<stop  offset="1" style="stop-color:#EABD79"/>
				</linearGradient>
				<rect x="128.148" y="149.724" clip-path="url(#SVGID_200_)" fill="url(#SVGID_201_)" width="17.431" height="33.174"/>
			</g>
		</g>
		<path fill="#FFE4A2" d="M128.148,181.431c-2.064,0-3.907-0.434-5.172-0.809l-1.461,1.043c1.461,0.547,3.892,1.232,6.635,1.232
			v-1.467"/>
		<g>
			<g>
				<defs>
					<path id="SVGID_202_" d="M71.149,103.166l-1.466-1.461l-0.007,1.44c-0.068,15.804-0.111,31.781-0.111,47.744
						c0,9.425,0.018,18.84,0.05,28.214l1.455,0.827C71.003,154.359,71.028,128.624,71.149,103.166"/>
				</defs>
				<clipPath id="SVGID_203_">
					<use xlink:href="#SVGID_202_"  overflow="visible"/>
				</clipPath>
				<path clip-path="url(#SVGID_203_)" fill="#DB9A28" d="M71.149,103.166l-1.466-1.461l-0.007,1.44
					c-0.068,15.804-0.111,31.781-0.111,47.744c0,9.425,0.018,18.84,0.05,28.214l1.455,0.827
					C71.003,154.359,71.028,128.624,71.149,103.166"/>
			</g>
			<g>
				<defs>
					<path id="SVGID_204_" d="M71.149,103.166l-1.466-1.461l-0.007,1.44c-0.068,15.804-0.111,31.781-0.111,47.744
						c0,9.425,0.018,18.84,0.05,28.214l1.455,0.827C71.003,154.359,71.028,128.624,71.149,103.166"/>
				</defs>
				<clipPath id="SVGID_205_">
					<use xlink:href="#SVGID_204_"  overflow="visible"/>
				</clipPath>
				
					<linearGradient id="SVGID_206_" gradientUnits="userSpaceOnUse" x1="-740.293" y1="-161.2527" x2="-735.6665" y2="-161.2527" gradientTransform="matrix(0 16.9098 -3.1425 0 -436.3772 12619.8984)">
					<stop  offset="0" style="stop-color:#DB9A28"/>
					<stop  offset="1" style="stop-color:#C27913"/>
				</linearGradient>
				<rect x="69.566" y="101.704" clip-path="url(#SVGID_205_)" fill="url(#SVGID_206_)" width="1.583" height="78.227"/>
			</g>
		</g>
		<g>
			<g>
				<defs>
					<path id="SVGID_207_" d="M91.351,191.582l1.466,0.776l-0.005-0.776c-0.081-29.598-0.092-59.388,0.018-88.555l0.007-1.466
						l-1.468,1.466C91.256,132.398,91.256,162.156,91.351,191.582"/>
				</defs>
				<clipPath id="SVGID_208_">
					<use xlink:href="#SVGID_207_"  overflow="visible"/>
				</clipPath>
				<path clip-path="url(#SVGID_208_)" fill="#C27913" d="M91.351,191.582l1.466,0.776l-0.005-0.776
					c-0.081-29.598-0.092-59.388,0.018-88.555l0.007-1.466l-1.468,1.466C91.256,132.398,91.256,162.156,91.351,191.582"/>
			</g>
			<g>
				<defs>
					<path id="SVGID_209_" d="M91.351,191.582l1.466,0.776l-0.005-0.776c-0.081-29.598-0.092-59.388,0.018-88.555l0.007-1.466
						l-1.468,1.466C91.256,132.398,91.256,162.156,91.351,191.582"/>
				</defs>
				<clipPath id="SVGID_210_">
					<use xlink:href="#SVGID_209_"  overflow="visible"/>
				</clipPath>
				
					<linearGradient id="SVGID_211_" gradientUnits="userSpaceOnUse" x1="-743.4434" y1="-166.6882" x2="-738.8169" y2="-166.6882" gradientTransform="matrix(0 19.627 -3.1415 0 -431.6058 14693.124)">
					<stop  offset="0" style="stop-color:#C27913"/>
					<stop  offset="0.8538" style="stop-color:#985D03"/>
					<stop  offset="1" style="stop-color:#905800"/>
				</linearGradient>
				<rect x="91.256" y="101.562" clip-path="url(#SVGID_210_)" fill="url(#SVGID_211_)" width="1.581" height="90.797"/>
			</g>
		</g>
		<path fill="#F7E4CA" d="M91.369,103.028l1.468-1.466l-1.468,0.006l-21.686,0.137l1.466,1.461
			C77.858,103.109,84.606,103.064,91.369,103.028"/>
		<g>
			<g>
				<defs>
					<path id="SVGID_212_" d="M60.915,199.533l-0.018,1.469c12.376,0.117,23.183-2.711,31.272-8.2l0.648-0.442l-1.466-0.776
						C83.587,196.854,73.198,199.646,60.915,199.533"/>
				</defs>
				<clipPath id="SVGID_213_">
					<use xlink:href="#SVGID_212_"  overflow="visible"/>
				</clipPath>
				<path clip-path="url(#SVGID_213_)" fill="#905800" d="M60.915,199.533l-0.018,1.469c12.376,0.117,23.183-2.711,31.272-8.2
					l0.648-0.442l-1.466-0.776C83.587,196.854,73.198,199.646,60.915,199.533"/>
			</g>
			<g>
				<defs>
					<path id="SVGID_214_" d="M60.915,199.533l-0.018,1.469c12.376,0.117,23.183-2.711,31.272-8.2l0.648-0.442l-1.466-0.776
						C83.587,196.854,73.198,199.646,60.915,199.533"/>
				</defs>
				<clipPath id="SVGID_215_">
					<use xlink:href="#SVGID_214_"  overflow="visible"/>
				</clipPath>
				
					<linearGradient id="SVGID_216_" gradientUnits="userSpaceOnUse" x1="-720.4678" y1="28.7454" x2="-715.8413" y2="28.7454" gradientTransform="matrix(6.9002 0 0 4.861 5032.2632 56.6177)">
					<stop  offset="0" style="stop-color:#905800"/>
					<stop  offset="1" style="stop-color:#905800"/>
				</linearGradient>
				<rect x="60.896" y="191.582" clip-path="url(#SVGID_215_)" fill="url(#SVGID_216_)" width="31.921" height="9.537"/>
			</g>
		</g>
		<g>
			<g>
				<defs>
					<path id="SVGID_217_" d="M61.545,182.316c4.086,0.036,7.344-0.877,9.526-2.386l-1.455-0.827
						c-2.028,1.147-4.841,1.785-8.064,1.758L61.545,182.316 M61.545,182.316l0.006-1.455c-3.503-0.031-5.934-1.419-7.414-4.251
						c-1.098-2.104-1.658-5.002-1.669-8.605h-1.461C51.018,173.732,52.376,182.253,61.545,182.316z M51.106,103.351l1.473-1.481
						l-0.007,1.481c-0.097,21.554-0.136,43.311-0.104,64.653h-1.461C50.968,146.431,51.007,124.833,51.106,103.351z"/>
				</defs>
				<clipPath id="SVGID_218_">
					<use xlink:href="#SVGID_217_"  overflow="visible"/>
				</clipPath>
				
					<linearGradient id="SVGID_219_" gradientUnits="userSpaceOnUse" x1="107.7319" y1="117.3528" x2="127.8105" y2="117.3528" gradientTransform="matrix(1 0 0 -1 -56.7402 259.4458)">
					<stop  offset="0" style="stop-color:#CE8E3E"/>
					<stop  offset="1" style="stop-color:#FFE7B0"/>
				</linearGradient>
				<path clip-path="url(#SVGID_218_)" fill="url(#SVGID_219_)" d="M61.545,182.316c4.086,0.036,7.344-0.877,9.526-2.386
					l-1.455-0.827c-2.028,1.147-4.841,1.785-8.064,1.758L61.545,182.316 M61.545,182.316l0.006-1.455
					c-3.503-0.031-5.934-1.419-7.414-4.251c-1.098-2.104-1.658-5.002-1.669-8.605h-1.461
					C51.018,173.732,52.376,182.253,61.545,182.316z M51.106,103.351l1.473-1.481l-0.007,1.481
					c-0.097,21.554-0.136,43.311-0.104,64.653h-1.461C50.968,146.431,51.007,124.833,51.106,103.351z"/>
			</g>
		</g>
		<g>
			<g>
				<defs>
					<path id="SVGID_220_" d="M31.316,167.019h-1.471c0.021,11.02,2.571,19.504,7.719,25.178c5.216,5.742,13.065,8.692,23.333,8.807
						l0.018-1.469C41.079,199.33,31.352,188.36,31.316,167.019"/>
				</defs>
				<clipPath id="SVGID_221_">
					<use xlink:href="#SVGID_220_"  overflow="visible"/>
				</clipPath>
				<path clip-path="url(#SVGID_221_)" fill="#DB9A28" d="M31.316,167.019h-1.471c0.021,11.02,2.571,19.504,7.719,25.178
					c5.216,5.742,13.065,8.692,23.333,8.807l0.018-1.469C41.079,199.33,31.352,188.36,31.316,167.019"/>
			</g>
			<g>
				<defs>
					<path id="SVGID_222_" d="M31.316,167.019h-1.471c0.021,11.02,2.571,19.504,7.719,25.178c5.216,5.742,13.065,8.692,23.333,8.807
						l0.018-1.469C41.079,199.33,31.352,188.36,31.316,167.019"/>
				</defs>
				<clipPath id="SVGID_223_">
					<use xlink:href="#SVGID_222_"  overflow="visible"/>
				</clipPath>
				
					<linearGradient id="SVGID_224_" gradientUnits="userSpaceOnUse" x1="-722.9238" y1="-21.2957" x2="-718.2974" y2="-21.2957" gradientTransform="matrix(6.7156 0 0 10.1452 4884.7114 400.0593)">
					<stop  offset="0" style="stop-color:#DB9A28"/>
					<stop  offset="0.9376" style="stop-color:#955C03"/>
					<stop  offset="1" style="stop-color:#905800"/>
				</linearGradient>
				<rect x="29.845" y="167.019" clip-path="url(#SVGID_223_)" fill="url(#SVGID_224_)" width="31.069" height="33.983"/>
			</g>
		</g>
		<path fill="#FAEFE1" d="M51.106,103.351l1.473-1.481l-22.729,0.277l1.468,1.443C37.853,103.498,44.452,103.412,51.106,103.351"/>
		<g>
			<g>
				<defs>
					<polyline id="SVGID_225_" points="29.845,167.019 31.316,167.019 31.318,103.59 29.85,102.147 29.845,167.019 					"/>
				</defs>
				<clipPath id="SVGID_226_">
					<use xlink:href="#SVGID_225_"  overflow="visible"/>
				</clipPath>
				<rect x="29.845" y="102.147" clip-path="url(#SVGID_226_)" fill="#DB9A28" width="1.473" height="64.872"/>
			</g>
			<g>
				<defs>
					<polyline id="SVGID_227_" points="29.845,167.019 31.316,167.019 31.318,103.59 29.85,102.147 29.845,167.019 					"/>
				</defs>
				<clipPath id="SVGID_228_">
					<use xlink:href="#SVGID_227_"  overflow="visible"/>
				</clipPath>
				
					<linearGradient id="SVGID_229_" gradientUnits="userSpaceOnUse" x1="-794.0313" y1="21.0139" x2="-789.4053" y2="21.0139" gradientTransform="matrix(0 -14.0223 3.1179 0 -34.938 -10967.123)">
					<stop  offset="0" style="stop-color:#DB9A28"/>
					<stop  offset="0.9376" style="stop-color:#955C03"/>
					<stop  offset="1" style="stop-color:#905800"/>
				</linearGradient>
				<rect x="29.845" y="102.147" clip-path="url(#SVGID_228_)" fill="url(#SVGID_229_)" width="1.473" height="64.872"/>
			</g>
		</g>
		<path fill="#C27913" d="M124.955,46.324c30.536-6.091,64.771-7.06,104.609-2.964l1.465-1.333
			c-33.256-3.497-69.896-4.42-106.364,2.855C88.268,52.17,52.042,67.655,21.361,97.22l1.466,0.642
			C50.056,71.785,84.414,54.448,124.955,46.324"/>
		<path fill="#FFD568" d="M229.564,43.361c0.146,35.881,0.227,71.934,0.227,107.501c0,8.088-0.009,16.156-0.014,24.188
			c-0.031,25.093-9.145,45.929-26.375,60.241c-14.842,12.537-60.154,32.854-77.125,39.951v1.6
			c13.396-5.58,62.211-27.03,78.074-40.426c17.785-14.773,26.871-36.065,26.895-61.366c0.036-44.403-0.027-88.893-0.217-133.023
			L229.564,43.361"/>
		<g>
			<g>
				<defs>
					<path id="SVGID_230_" d="M49.15,235.292c-17.22-14.321-26.341-35.148-26.359-60.241c-0.007-7.905-0.011-15.938-0.011-24.075
						c0-17.318,0.016-35.097,0.047-53.114l-1.466-0.642c-0.043,25.91-0.068,51.89-0.039,77.831
						c0.018,25.301,9.101,46.593,26.897,61.366c15.865,13.396,64.693,34.846,78.058,40.426v-1.6
						C109.287,268.123,63.919,247.757,49.15,235.292"/>
				</defs>
				<clipPath id="SVGID_231_">
					<use xlink:href="#SVGID_230_"  overflow="visible"/>
				</clipPath>
				<path clip-path="url(#SVGID_231_)" fill="#C27913" d="M49.15,235.292c-17.22-14.321-26.341-35.148-26.359-60.241
					c-0.007-7.905-0.011-15.938-0.011-24.075c0-17.318,0.016-35.097,0.047-53.114l-1.466-0.642
					c-0.043,25.91-0.068,51.89-0.039,77.831c0.018,25.301,9.101,46.593,26.897,61.366c15.865,13.396,64.693,34.846,78.058,40.426
					v-1.6C109.287,268.123,63.919,247.757,49.15,235.292"/>
			</g>
			<g>
				<defs>
					<path id="SVGID_232_" d="M49.15,235.292c-17.22-14.321-26.341-35.148-26.359-60.241c-0.007-7.905-0.011-15.938-0.011-24.075
						c0-17.318,0.016-35.097,0.047-53.114l-1.466-0.642c-0.043,25.91-0.068,51.89-0.039,77.831
						c0.018,25.301,9.101,46.593,26.897,61.366c15.865,13.396,64.693,34.846,78.058,40.426v-1.6
						C109.287,268.123,63.919,247.757,49.15,235.292"/>
				</defs>
				<clipPath id="SVGID_233_">
					<use xlink:href="#SVGID_232_"  overflow="visible"/>
				</clipPath>
				
					<linearGradient id="SVGID_234_" gradientUnits="userSpaceOnUse" x1="-776.4253" y1="-53.5916" x2="-771.7988" y2="-53.5916" gradientTransform="matrix(0 -38.8261 25.494 0 1440.0376 -29868.7324)">
					<stop  offset="0" style="stop-color:#C27913"/>
					<stop  offset="0.3" style="stop-color:#DB9A28"/>
					<stop  offset="1" style="stop-color:#C27913"/>
				</linearGradient>
				<rect x="21.293" y="97.22" clip-path="url(#SVGID_233_)" fill="url(#SVGID_234_)" width="104.984" height="179.623"/>
			</g>
		</g>
		<g>
			<g>
				<defs>
					<path id="SVGID_235_" d="M203.863,171.455c-0.137-6.379-3.637-9.826-12.446-15.055c-16.59-9.84-19.651-17.991-19.698-28.863
						c-0.1-16.492,13.815-26.019,26.928-26.266c10.969-0.21,18.302,4.056,21.758,6.807c0.018,5.839,0.031,11.689,0.035,17.535
						c-4.088-4.346-10.729-8.328-17.701-8.452c-5.655-0.106-11.564,2.388-11.745,9.625c-0.163,7.391,5.771,10.341,13.165,14.794
						c16.599,10.014,19.611,18.858,19.291,30.624c-0.426,12.894-8.999,27.08-28.778,27.297c-7.925,0.081-15.795-2.367-22.119-6.108
						c0.026-6.248,0.046-12.505,0.054-18.785c5.179,4.653,12.881,8.204,19.273,8.204
						C199.215,182.809,204.021,178.503,203.863,171.455 M121.508,118.752c1.653-0.802,4.486-1.461,7.242-1.461
						c11.877,0,16.811,9.479,16.829,32.434c-0.011,22.381-5.652,33.17-17.435,33.17c-2.751,0-5.165-0.688-6.638-1.238
						C121.503,160.734,121.505,139.674,121.508,118.752z M121.548,240.745c-0.009-13.979-0.025-28.143-0.027-42.409
						c2.028,0.597,5.02,1.139,9.208,1.134c22.644-0.022,35.694-20.411,35.694-50.288c-0.014-29.795-13.432-48.272-37.823-48.287
						c-11.118,0-20.116,2.472-27.493,7.283c-0.102,44.203-0.041,89.246,0.176,132.508
						C108.033,240.723,114.792,240.74,121.548,240.745z M61.545,182.316c4.086,0.026,7.346-0.895,9.528-2.403
						c-0.072-25.563-0.05-51.282,0.075-76.747c6.711-0.057,13.458-0.103,20.222-0.131c-0.099,29.363-0.106,59.117-0.018,88.542
						c-7.762,5.269-18.146,8.068-30.43,7.955c-19.836-0.202-29.567-11.182-29.605-32.522c0-21.145,0.002-42.319,0.002-63.419
						c6.535-0.093,13.143-0.165,19.791-0.239c-0.102,21.469-0.138,43.086-0.102,64.648C51.025,173.728,52.38,182.253,61.545,182.316
						z"/>
				</defs>
				<clipPath id="SVGID_236_">
					<use xlink:href="#SVGID_235_"  overflow="visible"/>
				</clipPath>
				<path clip-path="url(#SVGID_236_)" fill="#DA9017" d="M203.863,171.455c-0.137-6.379-3.637-9.826-12.446-15.055
					c-16.59-9.84-19.651-17.991-19.698-28.863c-0.1-16.492,13.815-26.019,26.928-26.266c10.969-0.21,18.302,4.056,21.758,6.807
					c0.018,5.839,0.031,11.689,0.035,17.535c-4.088-4.346-10.729-8.328-17.701-8.452c-5.655-0.106-11.564,2.388-11.745,9.625
					c-0.163,7.391,5.771,10.341,13.165,14.794c16.599,10.014,19.611,18.858,19.291,30.624c-0.426,12.894-8.999,27.08-28.778,27.297
					c-7.925,0.081-15.795-2.367-22.119-6.108c0.026-6.248,0.046-12.505,0.054-18.785c5.179,4.653,12.881,8.204,19.273,8.204
					C199.215,182.809,204.021,178.503,203.863,171.455 M121.508,118.752c1.653-0.802,4.486-1.461,7.242-1.461
					c11.877,0,16.811,9.479,16.829,32.434c-0.011,22.381-5.652,33.17-17.435,33.17c-2.751,0-5.165-0.688-6.638-1.238
					C121.503,160.734,121.505,139.674,121.508,118.752z M121.548,240.745c-0.009-13.979-0.025-28.143-0.027-42.409
					c2.028,0.597,5.02,1.139,9.208,1.134c22.644-0.022,35.694-20.411,35.694-50.288c-0.014-29.795-13.432-48.272-37.823-48.287
					c-11.118,0-20.116,2.472-27.493,7.283c-0.102,44.203-0.041,89.246,0.176,132.508
					C108.033,240.723,114.792,240.74,121.548,240.745z M61.545,182.316c4.086,0.026,7.346-0.895,9.528-2.403
					c-0.072-25.563-0.05-51.282,0.075-76.747c6.711-0.057,13.458-0.103,20.222-0.131c-0.099,29.363-0.106,59.117-0.018,88.542
					c-7.762,5.269-18.146,8.068-30.43,7.955c-19.836-0.202-29.567-11.182-29.605-32.522c0-21.145,0.002-42.319,0.002-63.419
					c6.535-0.093,13.143-0.165,19.791-0.239c-0.102,21.469-0.138,43.086-0.102,64.648C51.025,173.728,52.38,182.253,61.545,182.316z
					"/>
			</g>
			<g>
				<defs>
					<path id="SVGID_237_" d="M203.863,171.455c-0.137-6.379-3.637-9.826-12.446-15.055c-16.59-9.84-19.651-17.991-19.698-28.863
						c-0.1-16.492,13.815-26.019,26.928-26.266c10.969-0.21,18.302,4.056,21.758,6.807c0.018,5.839,0.031,11.689,0.035,17.535
						c-4.088-4.346-10.729-8.328-17.701-8.452c-5.655-0.106-11.564,2.388-11.745,9.625c-0.163,7.391,5.771,10.341,13.165,14.794
						c16.599,10.014,19.611,18.858,19.291,30.624c-0.426,12.894-8.999,27.08-28.778,27.297c-7.925,0.081-15.795-2.367-22.119-6.108
						c0.026-6.248,0.046-12.505,0.054-18.785c5.179,4.653,12.881,8.204,19.273,8.204
						C199.215,182.809,204.021,178.503,203.863,171.455 M121.508,118.752c1.653-0.802,4.486-1.461,7.242-1.461
						c11.877,0,16.811,9.479,16.829,32.434c-0.011,22.381-5.652,33.17-17.435,33.17c-2.751,0-5.165-0.688-6.638-1.238
						C121.503,160.734,121.505,139.674,121.508,118.752z M121.548,240.745c-0.009-13.979-0.025-28.143-0.027-42.409
						c2.028,0.597,5.02,1.139,9.208,1.134c22.644-0.022,35.694-20.411,35.694-50.288c-0.014-29.795-13.432-48.272-37.823-48.287
						c-11.118,0-20.116,2.472-27.493,7.283c-0.102,44.203-0.041,89.246,0.176,132.508
						C108.033,240.723,114.792,240.74,121.548,240.745z M61.545,182.316c4.086,0.026,7.346-0.895,9.528-2.403
						c-0.072-25.563-0.05-51.282,0.075-76.747c6.711-0.057,13.458-0.103,20.222-0.131c-0.099,29.363-0.106,59.117-0.018,88.542
						c-7.762,5.269-18.146,8.068-30.43,7.955c-19.836-0.202-29.567-11.182-29.605-32.522c0-21.145,0.002-42.319,0.002-63.419
						c6.535-0.093,13.143-0.165,19.791-0.239c-0.102,21.469-0.138,43.086-0.102,64.648C51.025,173.728,52.38,182.253,61.545,182.316
						z"/>
				</defs>
				<clipPath id="SVGID_238_">
					<use xlink:href="#SVGID_237_"  overflow="visible"/>
				</clipPath>
				
					<radialGradient id="SVGID_239_" cx="121.9072" cy="134.6106" r="132.3331" gradientTransform="matrix(1 0 0 -1 -56.7402 259.4458)" gradientUnits="userSpaceOnUse">
					<stop  offset="0" style="stop-color:#FFE7B0"/>
					<stop  offset="0.5275" style="stop-color:#FEBF52"/>
					<stop  offset="0.5568" style="stop-color:#F9B94C"/>
					<stop  offset="1" style="stop-color:#DA9017"/>
				</radialGradient>
				<rect x="30.833" y="100.833" clip-path="url(#SVGID_238_)" fill="url(#SVGID_239_)" width="193.333" height="140.667"/>
			</g>
		</g>
		<g>
			<path fill="#905800" d="M206.826,282.858c0,6.697-5.257,11.953-12.098,11.953c-6.769,0-12.169-5.256-12.169-11.953
				c0-6.553,5.4-11.809,12.169-11.809C201.569,271.049,206.826,276.305,206.826,282.858z M185.584,282.858
				c0,5.257,3.889,9.434,9.217,9.434c5.185,0,9.001-4.177,9.001-9.361c0-5.256-3.816-9.505-9.073-9.505
				C189.473,273.425,185.584,277.674,185.584,282.858z M192.856,289.051h-2.736v-11.81c1.08-0.216,2.593-0.36,4.536-0.36
				c2.232,0,3.241,0.36,4.104,0.864c0.648,0.505,1.152,1.44,1.152,2.593c0,1.296-1.008,2.304-2.448,2.736v0.144
				c1.152,0.433,1.8,1.296,2.16,2.88c0.36,1.801,0.576,2.521,0.864,2.953h-2.952c-0.36-0.433-0.576-1.513-0.937-2.881
				c-0.216-1.296-0.936-1.872-2.448-1.872h-1.296V289.051z M192.929,282.354h1.296c1.512,0,2.736-0.504,2.736-1.729
				c0-1.08-0.792-1.799-2.521-1.799c-0.72,0-1.224,0.071-1.512,0.143V282.354z"/>
		</g>
	</g>
</g>
</svg>
