<?xml version="1.0" encoding="utf-8"?>
<!-- Generator: Adobe Illustrator 17.1.0, SVG Export Plug-In . SVG Version: 6.00 Build 0)  -->
<!DOCTYPE svg PUBLIC "-//W3C//DTD SVG 1.1//EN" "http://www.w3.org/Graphics/SVG/1.1/DTD/svg11.dtd">
<svg version="1.1" id="Layer_1" xmlns="http://www.w3.org/2000/svg" xmlns:xlink="http://www.w3.org/1999/xlink" x="0px" y="0px"
	 viewBox="0 0 184 110" enable-background="new 0 0 184 110" xml:space="preserve">
<g>
	<polygon fill="#004C82" points="23.4,0.6 24.2,0.6 25.6,0.8 27.2,1.1 31.6,2.2 37.7,3.3 41,4.1 44.6,5 48.4,5.5 52.3,6.6 56.4,7.2 
		60.5,8.3 73.7,10.7 77.9,11.8 82.3,12.7 86.1,13.5 90.2,14.3 94.1,15.1 97.9,15.7 101.2,16.5 104.5,17.1 107.3,17.9 109.8,18.4 
		112,18.7 113.9,19 115.3,19.3 116.1,19.5 116.6,19.5 120.2,20.4 123.5,20.9 126.3,21.7 128.5,22.3 130.7,23.1 132.3,23.7 
		134.5,24.8 135.3,25.3 136.7,26.7 136.7,27 137,27.2 137,27.5 148.8,27.5 149.9,27.8 151,27.8 151.9,28.1 152.7,28.1 153.5,28.3 
		155.7,29.4 156,30 157.9,33 158.5,36.6 157.9,41 156.5,45.1 154.9,49.2 153.2,52.5 151.9,54.7 151.3,55.6 150.8,55.8 149.4,56.4 
		147.5,57.2 144.7,58.3 141.7,59.4 137.8,61.1 133.7,62.7 129,64.4 123.8,66.6 118.3,68.5 112.8,70.7 100.7,75.7 94.4,78.1 88,80.3 
		81.7,83.1 75.1,85.6 68.8,87.8 62.7,90.5 56.4,92.7 50.6,94.9 39.6,99.3 34.7,101.2 30,102.9 25.9,104.5 22.3,105.9 19.3,107.3 
		16.8,108.1 14.9,108.9 13.8,109.2 13.5,109.5 155.7,109.5 178.8,0 23.4,0 	"/>
	<polygon fill="#004C82" points="129.8,36 129,36.3 123.5,37.4 122.1,37.4 121,37.7 119.9,37.7 118.3,38 117.5,38.2 116.9,38.5 
		116.6,39.1 116.6,39.6 117.2,40.2 118.3,40.2 119.4,40.4 122.1,40.4 123.8,40.2 125.4,40.2 129.3,39.6 131.2,39.6 133.4,39.3 
		135.3,39.1 137,38.8 138.9,38.5 146.4,38.5 147.2,38.8 147.7,39.1 148.3,39.9 148.3,41 148,42.1 147.7,43.5 147.2,45.1 146.4,47 
		145.8,49 145.5,50.1 146.1,50.6 146.6,50.3 147.7,49.2 148.3,48.4 149.1,47 149.9,45.4 150.8,43.5 151.6,41.8 152.1,40.2 
		152.4,38.8 152.4,37.1 151.9,35.8 151,34.9 149.9,34.1 148.6,33.6 146.9,33.3 145,33 133.4,33 133.1,33.3 132.9,33.3 132.3,33.6 
		131.8,34.7 131.2,34.9 130.7,35.5 	"/>
	<polygon fill="#004C82" points="18.2,25.3 0,109.5 0.8,109.2 2.5,108.1 5.2,107 8.8,105.1 12.9,103.2 17.6,100.7 23.1,98.2 
		28.3,95.5 33.8,93 39.1,90.2 44.3,87.8 49.2,85.3 53.4,83.1 56.9,81.4 59.7,80.1 61.6,79.2 64.4,77.9 66.8,76.5 69.9,75.1 
		72.9,73.5 75.7,72.1 79,70.7 82,69 85.3,67.7 88.6,66 105.1,59.1 112.5,56.7 113.6,56.4 114.7,55.8 116.1,55.6 121,53.9 
		126.8,52.3 128.7,52 134.5,50.3 137.8,49.8 138.9,49.5 139.7,49.2 140.6,49.2 141.4,49 141.9,48.4 142.2,48.4 142.2,48.1 141.7,47 
		140.8,46.8 139.7,46.5 138.6,46.5 137,46.2 135.3,46.2 133.4,46.5 130.1,46.8 126.5,47.3 122.7,48.1 118.6,49 114.4,50.1 110,51.4 
		105.9,52.8 101.5,54.2 97.4,55.8 93.3,57.2 89.4,58.6 85.8,60 82.5,61.6 79.8,62.7 77.3,63.8 75.4,64.9 64.9,32.5 131.5,32.5 
		131.8,31.1 130.7,29.7 129,28.9 126.5,28.1 123.8,27.2 116.6,26.1 105.1,25.3 	"/>
</g>
</svg>
